%TF.GenerationSoftware,KiCad,Pcbnew,(6.0.0)*%
%TF.CreationDate,2023-02-05T21:46:31-06:00*%
%TF.ProjectId,drv8212p_eval,64727638-3231-4327-905f-6576616c2e6b,rev?*%
%TF.SameCoordinates,Original*%
%TF.FileFunction,Legend,Top*%
%TF.FilePolarity,Positive*%
%FSLAX46Y46*%
G04 Gerber Fmt 4.6, Leading zero omitted, Abs format (unit mm)*
G04 Created by KiCad (PCBNEW (6.0.0)) date 2023-02-05 21:46:31*
%MOMM*%
%LPD*%
G01*
G04 APERTURE LIST*
G04 Aperture macros list*
%AMRoundRect*
0 Rectangle with rounded corners*
0 $1 Rounding radius*
0 $2 $3 $4 $5 $6 $7 $8 $9 X,Y pos of 4 corners*
0 Add a 4 corners polygon primitive as box body*
4,1,4,$2,$3,$4,$5,$6,$7,$8,$9,$2,$3,0*
0 Add four circle primitives for the rounded corners*
1,1,$1+$1,$2,$3*
1,1,$1+$1,$4,$5*
1,1,$1+$1,$6,$7*
1,1,$1+$1,$8,$9*
0 Add four rect primitives between the rounded corners*
20,1,$1+$1,$2,$3,$4,$5,0*
20,1,$1+$1,$4,$5,$6,$7,0*
20,1,$1+$1,$6,$7,$8,$9,0*
20,1,$1+$1,$8,$9,$2,$3,0*%
%AMFreePoly0*
4,1,22,0.500000,-0.750000,0.000000,-0.750000,0.000000,-0.745033,-0.079941,-0.743568,-0.215256,-0.701293,-0.333266,-0.622738,-0.424486,-0.514219,-0.481581,-0.384460,-0.499164,-0.250000,-0.500000,-0.250000,-0.500000,0.250000,-0.499164,0.250000,-0.499963,0.256109,-0.478152,0.396186,-0.417904,0.524511,-0.324060,0.630769,-0.204165,0.706417,-0.067858,0.745374,0.000000,0.744959,0.000000,0.750000,
0.500000,0.750000,0.500000,-0.750000,0.500000,-0.750000,$1*%
%AMFreePoly1*
4,1,20,0.000000,0.744959,0.073905,0.744508,0.209726,0.703889,0.328688,0.626782,0.421226,0.519385,0.479903,0.390333,0.500000,0.250000,0.500000,-0.250000,0.499851,-0.262216,0.476331,-0.402017,0.414519,-0.529596,0.319384,-0.634700,0.198574,-0.708877,0.061801,-0.746166,0.000000,-0.745033,0.000000,-0.750000,-0.500000,-0.750000,-0.500000,0.750000,0.000000,0.750000,0.000000,0.744959,
0.000000,0.744959,$1*%
G04 Aperture macros list end*
%ADD10C,0.150000*%
%ADD11C,0.120000*%
%ADD12RoundRect,0.250000X-0.275000X0.312500X-0.275000X-0.312500X0.275000X-0.312500X0.275000X0.312500X0*%
%ADD13O,1.700000X1.700000*%
%ADD14R,1.700000X1.700000*%
%ADD15FreePoly0,180.000000*%
%ADD16FreePoly1,180.000000*%
%ADD17C,4.400000*%
%ADD18RoundRect,0.250000X-0.475000X0.250000X-0.475000X-0.250000X0.475000X-0.250000X0.475000X0.250000X0*%
%ADD19RoundRect,0.120000X-0.400000X-0.750000X0.400000X-0.750000X0.400000X0.750000X-0.400000X0.750000X0*%
%ADD20RoundRect,0.120000X-0.200000X-0.075000X0.200000X-0.075000X0.200000X0.075000X-0.200000X0.075000X0*%
%ADD21RoundRect,0.250000X-0.262500X-0.450000X0.262500X-0.450000X0.262500X0.450000X-0.262500X0.450000X0*%
G04 APERTURE END LIST*
D10*
X123836133Y-73864742D02*
X123788514Y-73912361D01*
X123645657Y-73959980D01*
X123550419Y-73959980D01*
X123407561Y-73912361D01*
X123312323Y-73817123D01*
X123264704Y-73721885D01*
X123217085Y-73531409D01*
X123217085Y-73388552D01*
X123264704Y-73198076D01*
X123312323Y-73102838D01*
X123407561Y-73007600D01*
X123550419Y-72959980D01*
X123645657Y-72959980D01*
X123788514Y-73007600D01*
X123836133Y-73055219D01*
X124788514Y-73959980D02*
X124217085Y-73959980D01*
X124502800Y-73959980D02*
X124502800Y-72959980D01*
X124407561Y-73102838D01*
X124312323Y-73198076D01*
X124217085Y-73245695D01*
X132833333Y-73857142D02*
X132785714Y-73904761D01*
X132642857Y-73952380D01*
X132547619Y-73952380D01*
X132404761Y-73904761D01*
X132309523Y-73809523D01*
X132261904Y-73714285D01*
X132214285Y-73523809D01*
X132214285Y-73380952D01*
X132261904Y-73190476D01*
X132309523Y-73095238D01*
X132404761Y-73000000D01*
X132547619Y-72952380D01*
X132642857Y-72952380D01*
X132785714Y-73000000D01*
X132833333Y-73047619D01*
X133166666Y-72952380D02*
X133785714Y-72952380D01*
X133452380Y-73333333D01*
X133595238Y-73333333D01*
X133690476Y-73380952D01*
X133738095Y-73428571D01*
X133785714Y-73523809D01*
X133785714Y-73761904D01*
X133738095Y-73857142D01*
X133690476Y-73904761D01*
X133595238Y-73952380D01*
X133309523Y-73952380D01*
X133214285Y-73904761D01*
X133166666Y-73857142D01*
X126833333Y-73857142D02*
X126785714Y-73904761D01*
X126642857Y-73952380D01*
X126547619Y-73952380D01*
X126404761Y-73904761D01*
X126309523Y-73809523D01*
X126261904Y-73714285D01*
X126214285Y-73523809D01*
X126214285Y-73380952D01*
X126261904Y-73190476D01*
X126309523Y-73095238D01*
X126404761Y-73000000D01*
X126547619Y-72952380D01*
X126642857Y-72952380D01*
X126785714Y-73000000D01*
X126833333Y-73047619D01*
X127214285Y-73047619D02*
X127261904Y-73000000D01*
X127357142Y-72952380D01*
X127595238Y-72952380D01*
X127690476Y-73000000D01*
X127738095Y-73047619D01*
X127785714Y-73142857D01*
X127785714Y-73238095D01*
X127738095Y-73380952D01*
X127166666Y-73952380D01*
X127785714Y-73952380D01*
D11*
X124785000Y-77050000D02*
X124785000Y-74340000D01*
X124785000Y-74340000D02*
X123215000Y-74340000D01*
X123215000Y-74340000D02*
X123215000Y-77050000D01*
X132602200Y-88586000D02*
X132602200Y-89916000D01*
X131272200Y-88586000D02*
X132602200Y-88586000D01*
X130002200Y-88586000D02*
X130002200Y-91246000D01*
X130002200Y-91246000D02*
X127402200Y-91246000D01*
X130002200Y-88586000D02*
X127402200Y-88586000D01*
X127402200Y-88586000D02*
X127402200Y-91246000D01*
X130700000Y-76100000D02*
X129300000Y-76100000D01*
X129300000Y-74100000D02*
X130700000Y-74100000D01*
X128600000Y-75400000D02*
X128600000Y-74800000D01*
X131400000Y-74800000D02*
X131400000Y-75400000D01*
X130700000Y-76100000D02*
G75*
G03*
X131400000Y-75400000I1J699999D01*
G01*
X129300000Y-74100000D02*
G75*
G03*
X128600000Y-74800000I-1J-699999D01*
G01*
X131400000Y-74800000D02*
G75*
G03*
X130700000Y-74100000I-699999J1D01*
G01*
X128600000Y-75400000D02*
G75*
G03*
X129300000Y-76100000I699999J-1D01*
G01*
X135080000Y-71330000D02*
X122320000Y-71330000D01*
X136350000Y-68670000D02*
X137680000Y-68670000D01*
X135080000Y-68670000D02*
X135080000Y-71330000D01*
X135080000Y-68670000D02*
X122320000Y-68670000D01*
X122320000Y-68670000D02*
X122320000Y-71330000D01*
X137680000Y-68670000D02*
X137680000Y-70000000D01*
X111330000Y-77430000D02*
X108670000Y-77430000D01*
X111330000Y-80030000D02*
X108670000Y-80030000D01*
X108670000Y-80030000D02*
X108670000Y-77430000D01*
X111330000Y-81300000D02*
X111330000Y-82630000D01*
X111330000Y-82630000D02*
X110000000Y-82630000D01*
X111330000Y-80030000D02*
X111330000Y-77430000D01*
G36*
X108892102Y-77631606D02*
G01*
X115889504Y-77631606D01*
X115999126Y-77636992D01*
X116107692Y-77653096D01*
X116214157Y-77679764D01*
X116317495Y-77716739D01*
X116416711Y-77763665D01*
X116510851Y-77820090D01*
X116599006Y-77885470D01*
X116680328Y-77959176D01*
X116754034Y-78040499D01*
X116819415Y-78128654D01*
X116875840Y-78222793D01*
X116922765Y-78322009D01*
X116959740Y-78425347D01*
X116986408Y-78531812D01*
X117002513Y-78640378D01*
X117007898Y-78750000D01*
X117002513Y-78859622D01*
X116986408Y-78968188D01*
X116959740Y-79074653D01*
X116922765Y-79177991D01*
X116875840Y-79277207D01*
X116819415Y-79371346D01*
X116754034Y-79459501D01*
X116680328Y-79540824D01*
X116599006Y-79614530D01*
X116510851Y-79679910D01*
X116416711Y-79736335D01*
X116317495Y-79783261D01*
X116214157Y-79820236D01*
X116107692Y-79846904D01*
X115999126Y-79863008D01*
X115889504Y-79868394D01*
X108892102Y-79868394D01*
X108892102Y-79408416D01*
X112221586Y-79408416D01*
X112225157Y-79494141D01*
X112247779Y-79556053D01*
X112310882Y-79604273D01*
X112428754Y-79620347D01*
X112550198Y-79604273D01*
X112614492Y-79556053D01*
X112637114Y-79495331D01*
X112640686Y-79413178D01*
X112640686Y-78610697D01*
X112684739Y-78669930D01*
X112793086Y-78819056D01*
X112910362Y-78979493D01*
X112981204Y-79072659D01*
X113000254Y-79098853D01*
X113063357Y-79147669D01*
X113160989Y-79172672D01*
X113261001Y-79145287D01*
X113319342Y-79102425D01*
X113362204Y-79046466D01*
X113413996Y-78975921D01*
X113507461Y-78845250D01*
X113608068Y-78706245D01*
X113681292Y-78610697D01*
X113681292Y-79408416D01*
X113693198Y-79532241D01*
X113726536Y-79579866D01*
X113788448Y-79608441D01*
X113897986Y-79620347D01*
X114012286Y-79606059D01*
X114080151Y-79543552D01*
X114102773Y-79413178D01*
X114102773Y-78970266D01*
X114257554Y-78970266D01*
X114269461Y-79078612D01*
X114317086Y-79139334D01*
X114431386Y-79158384D01*
X114638554Y-79158384D01*
X114638554Y-79348884D01*
X114659986Y-79479853D01*
X114717136Y-79523906D01*
X114825482Y-79537003D01*
X114933829Y-79523906D01*
X114994551Y-79472709D01*
X115014792Y-79351266D01*
X115014792Y-79158384D01*
X115219579Y-79158384D01*
X115341023Y-79136953D01*
X115381504Y-79079803D01*
X115393411Y-78971456D01*
X115380314Y-78863109D01*
X115329117Y-78802388D01*
X115207673Y-78782147D01*
X115014792Y-78782147D01*
X115014792Y-78591647D01*
X114993361Y-78460678D01*
X114935020Y-78416625D01*
X114826673Y-78403528D01*
X114718326Y-78416625D01*
X114657604Y-78467822D01*
X114638554Y-78589266D01*
X114638554Y-78782147D01*
X114448054Y-78782147D01*
X114317086Y-78803578D01*
X114270651Y-78861919D01*
X114257554Y-78970266D01*
X114102773Y-78970266D01*
X114102773Y-78091584D01*
X114099201Y-78008241D01*
X114076579Y-77943947D01*
X114013774Y-77895727D01*
X113892032Y-77879653D01*
X113768505Y-77895727D01*
X113700342Y-77943947D01*
X113635286Y-78027100D01*
X113548704Y-78139400D01*
X113440595Y-78280846D01*
X113310960Y-78451439D01*
X113159798Y-78651178D01*
X112619254Y-77941566D01*
X112604967Y-77927278D01*
X112544245Y-77895131D01*
X112433517Y-77879653D01*
X112312073Y-77895131D01*
X112247779Y-77941566D01*
X112225157Y-78004669D01*
X112221586Y-78086822D01*
X112221586Y-79408416D01*
X108892102Y-79408416D01*
X108892102Y-77631606D01*
G37*
X133735000Y-75788748D02*
X133735000Y-76311252D01*
X132265000Y-75788748D02*
X132265000Y-76311252D01*
X127735000Y-75788748D02*
X127735000Y-76311252D01*
X126265000Y-75788748D02*
X126265000Y-76311252D01*
G36*
X108892102Y-80181606D02*
G01*
X115889504Y-80181606D01*
X115999126Y-80186992D01*
X116107692Y-80203096D01*
X116214157Y-80229764D01*
X116317495Y-80266739D01*
X116416711Y-80313665D01*
X116510851Y-80370090D01*
X116599006Y-80435470D01*
X116680328Y-80509176D01*
X116754034Y-80590499D01*
X116819415Y-80678654D01*
X116875840Y-80772793D01*
X116922765Y-80872009D01*
X116959740Y-80975347D01*
X116986408Y-81081812D01*
X117002513Y-81190378D01*
X117007898Y-81300000D01*
X117002513Y-81409622D01*
X116986408Y-81518188D01*
X116959740Y-81624653D01*
X116922765Y-81727991D01*
X116875840Y-81827207D01*
X116819415Y-81921346D01*
X116754034Y-82009501D01*
X116680328Y-82090824D01*
X116599006Y-82164530D01*
X116510851Y-82229910D01*
X116416711Y-82286335D01*
X116317495Y-82333261D01*
X116214157Y-82370236D01*
X116107692Y-82396904D01*
X115999126Y-82413008D01*
X115889504Y-82418394D01*
X108892102Y-82418394D01*
X108892102Y-81958416D01*
X112445423Y-81958416D01*
X112448995Y-82044141D01*
X112471617Y-82106053D01*
X112534720Y-82154273D01*
X112652592Y-82170347D01*
X112774036Y-82154273D01*
X112838329Y-82106053D01*
X112860951Y-82045331D01*
X112864523Y-81963178D01*
X112864523Y-81160697D01*
X112908576Y-81219930D01*
X113016923Y-81369056D01*
X113134200Y-81529493D01*
X113205042Y-81622659D01*
X113224092Y-81648853D01*
X113287195Y-81697669D01*
X113384826Y-81722672D01*
X113484839Y-81695287D01*
X113543179Y-81652425D01*
X113586042Y-81596466D01*
X113637834Y-81525921D01*
X113731298Y-81395250D01*
X113831906Y-81256245D01*
X113905129Y-81160697D01*
X113905129Y-81958416D01*
X113917036Y-82082241D01*
X113950373Y-82129866D01*
X114012286Y-82158441D01*
X114121823Y-82170347D01*
X114236123Y-82156059D01*
X114303989Y-82093552D01*
X114326611Y-81963178D01*
X114326611Y-81651234D01*
X114481392Y-81651234D01*
X114493298Y-81760772D01*
X114546281Y-81821494D01*
X114652842Y-81841734D01*
X115219579Y-81841734D01*
X115338642Y-81820303D01*
X115380314Y-81761963D01*
X115393411Y-81653616D01*
X115379123Y-81544078D01*
X115327926Y-81485142D01*
X115221961Y-81465497D01*
X114655223Y-81465497D01*
X114540923Y-81486928D01*
X114495679Y-81544078D01*
X114481392Y-81651234D01*
X114326611Y-81651234D01*
X114326611Y-80641584D01*
X114323039Y-80558241D01*
X114300417Y-80493947D01*
X114237611Y-80445727D01*
X114115870Y-80429653D01*
X113992343Y-80445727D01*
X113924179Y-80493947D01*
X113859124Y-80577100D01*
X113772541Y-80689400D01*
X113664433Y-80830846D01*
X113534797Y-81001439D01*
X113383636Y-81201178D01*
X112843092Y-80491566D01*
X112828804Y-80477278D01*
X112768082Y-80445131D01*
X112657354Y-80429653D01*
X112535911Y-80445131D01*
X112471617Y-80491566D01*
X112448995Y-80554669D01*
X112445423Y-80636822D01*
X112445423Y-81958416D01*
X108892102Y-81958416D01*
X108892102Y-80181606D01*
G37*
X128800000Y-78900000D02*
X131400000Y-78900000D01*
X131400000Y-78900000D02*
X131400000Y-81100000D01*
X128600000Y-79100000D02*
X128800000Y-78900000D01*
X128600000Y-81100000D02*
X128600000Y-79100000D01*
X131400000Y-81100000D02*
X128600000Y-81100000D01*
G36*
X129247106Y-88159630D02*
G01*
X129325687Y-88182252D01*
X129387302Y-88178680D01*
X129434034Y-88167964D01*
X129447131Y-88163202D01*
X129494756Y-88150105D01*
X129560241Y-88203683D01*
X129575719Y-88258452D01*
X129559869Y-88304812D01*
X129512318Y-88337926D01*
X129433067Y-88357794D01*
X129322116Y-88364417D01*
X129238921Y-88356827D01*
X129165548Y-88334056D01*
X129104678Y-88298784D01*
X129058987Y-88253689D01*
X129017316Y-88186882D01*
X128992312Y-88115047D01*
X128983978Y-88038186D01*
X128988930Y-87995323D01*
X129205434Y-87995323D01*
X129355453Y-87995323D01*
X129400697Y-87957223D01*
X129379861Y-87913170D01*
X129320330Y-87896502D01*
X129243534Y-87928053D01*
X129205434Y-87995323D01*
X128988930Y-87995323D01*
X128994760Y-87944854D01*
X129027105Y-87864884D01*
X129081014Y-87798275D01*
X129151062Y-87748335D01*
X129231827Y-87718371D01*
X129323306Y-87708383D01*
X129400548Y-87715675D01*
X129466777Y-87737553D01*
X129521992Y-87774016D01*
X129566194Y-87825064D01*
X129596555Y-87889804D01*
X129606675Y-87960200D01*
X129597596Y-88023898D01*
X129570361Y-88068547D01*
X129489994Y-88103670D01*
X129207816Y-88103670D01*
X129247106Y-88159630D01*
G37*
G36*
X131233069Y-88159630D02*
G01*
X131311650Y-88182252D01*
X131373265Y-88178680D01*
X131419997Y-88167964D01*
X131433094Y-88163202D01*
X131480719Y-88150105D01*
X131546203Y-88203683D01*
X131561681Y-88258452D01*
X131545831Y-88304812D01*
X131498280Y-88337926D01*
X131419029Y-88357794D01*
X131308078Y-88364417D01*
X131224883Y-88356827D01*
X131151511Y-88334056D01*
X131090640Y-88298784D01*
X131044950Y-88253689D01*
X131003278Y-88186882D01*
X130978275Y-88115047D01*
X130969941Y-88038186D01*
X130974892Y-87995323D01*
X131191397Y-87995323D01*
X131341416Y-87995323D01*
X131386659Y-87957223D01*
X131365823Y-87913170D01*
X131306292Y-87896502D01*
X131229497Y-87928053D01*
X131191397Y-87995323D01*
X130974892Y-87995323D01*
X130980722Y-87944854D01*
X131013068Y-87864884D01*
X131066977Y-87798275D01*
X131137025Y-87748335D01*
X131217789Y-87718371D01*
X131309269Y-87708383D01*
X131386511Y-87715675D01*
X131452739Y-87737553D01*
X131507954Y-87774016D01*
X131552156Y-87825064D01*
X131582517Y-87889804D01*
X131592637Y-87960200D01*
X131583559Y-88023898D01*
X131556323Y-88068547D01*
X131475956Y-88103670D01*
X131193778Y-88103670D01*
X131233069Y-88159630D01*
G37*
G36*
X130753247Y-87719694D02*
G01*
X130841353Y-87750055D01*
X130883025Y-87797680D01*
X130856831Y-87867927D01*
X130803253Y-87909598D01*
X130750270Y-87891739D01*
X130666331Y-87873880D01*
X130596084Y-87900073D01*
X130616325Y-87929541D01*
X130677047Y-87946508D01*
X130754437Y-87961986D01*
X130829447Y-87991752D01*
X130887192Y-88049497D01*
X130904605Y-88095782D01*
X130910409Y-88152486D01*
X130904605Y-88209785D01*
X130887192Y-88257856D01*
X130822303Y-88322745D01*
X130767204Y-88343251D01*
X130703505Y-88355554D01*
X130631208Y-88359655D01*
X130555603Y-88352246D01*
X130481983Y-88330021D01*
X130410347Y-88292980D01*
X130387725Y-88247736D01*
X130399036Y-88208743D01*
X130432969Y-88153677D01*
X130475236Y-88133436D01*
X130554412Y-88162606D01*
X130644900Y-88191777D01*
X130699371Y-88184633D01*
X130717528Y-88163202D01*
X130697585Y-88143556D01*
X130637756Y-88129864D01*
X130563045Y-88110516D01*
X130488928Y-88073905D01*
X130431778Y-88006634D01*
X130414812Y-87956479D01*
X130409156Y-87897692D01*
X130419491Y-87829969D01*
X130450495Y-87777296D01*
X130502168Y-87739672D01*
X130574510Y-87717098D01*
X130667522Y-87709573D01*
X130753247Y-87719694D01*
G37*
G36*
X128767284Y-87719694D02*
G01*
X128855391Y-87750055D01*
X128897062Y-87797680D01*
X128870869Y-87867927D01*
X128817291Y-87909598D01*
X128764308Y-87891739D01*
X128680369Y-87873880D01*
X128610122Y-87900073D01*
X128630362Y-87929541D01*
X128691084Y-87946508D01*
X128768475Y-87961986D01*
X128843484Y-87991752D01*
X128901230Y-88049497D01*
X128918643Y-88095782D01*
X128924447Y-88152486D01*
X128918643Y-88209785D01*
X128901230Y-88257856D01*
X128836341Y-88322745D01*
X128781241Y-88343251D01*
X128717543Y-88355554D01*
X128645245Y-88359655D01*
X128569641Y-88352246D01*
X128496020Y-88330021D01*
X128424384Y-88292980D01*
X128401762Y-88247736D01*
X128413073Y-88208743D01*
X128447006Y-88153677D01*
X128489273Y-88133436D01*
X128568450Y-88162606D01*
X128658937Y-88191777D01*
X128713409Y-88184633D01*
X128731566Y-88163202D01*
X128711623Y-88143556D01*
X128651794Y-88129864D01*
X128577082Y-88110516D01*
X128502966Y-88073905D01*
X128445816Y-88006634D01*
X128428849Y-87956479D01*
X128423194Y-87897692D01*
X128433528Y-87829969D01*
X128464532Y-87777296D01*
X128516205Y-87739672D01*
X128588548Y-87717098D01*
X128681559Y-87709573D01*
X128767284Y-87719694D01*
G37*
G36*
X130107862Y-87731600D02*
G01*
X130173942Y-87761961D01*
X130231158Y-87812563D01*
X130275145Y-87877716D01*
X130301537Y-87951733D01*
X130310334Y-88034614D01*
X130310334Y-88244164D01*
X130308548Y-88285241D01*
X130298428Y-88315602D01*
X130266877Y-88339712D01*
X130205559Y-88347748D01*
X130138884Y-88336735D01*
X130107928Y-88303695D01*
X130100784Y-88242973D01*
X130100784Y-88033423D01*
X130072805Y-87957223D01*
X129997795Y-87929839D01*
X129921595Y-87958414D01*
X129892425Y-88033423D01*
X129892425Y-88244164D01*
X129890639Y-88285241D01*
X129879328Y-88315602D01*
X129848670Y-88339712D01*
X129787650Y-88347748D01*
X129727226Y-88339712D01*
X129695972Y-88315602D01*
X129685852Y-88284050D01*
X129684066Y-88242973D01*
X129684066Y-87821492D01*
X129685852Y-87781606D01*
X129697162Y-87751245D01*
X129728416Y-87728921D01*
X129788841Y-87721480D01*
X129847479Y-87728326D01*
X129878137Y-87748864D01*
X129890044Y-87797680D01*
X129911475Y-87773867D01*
X129943622Y-87748864D01*
X130032919Y-87721480D01*
X130107862Y-87731600D01*
G37*
X129770136Y-85571000D02*
X130224264Y-85571000D01*
X129770136Y-84101000D02*
X130224264Y-84101000D01*
%LPC*%
G36*
X117967853Y-89769614D02*
G01*
X117988094Y-89814263D01*
X117968448Y-89859506D01*
X117910108Y-89880938D01*
X117850577Y-89859506D01*
X117829741Y-89813667D01*
X117848791Y-89769019D01*
X117907727Y-89748778D01*
X117967853Y-89769614D01*
G37*
G36*
X120668191Y-89801761D02*
G01*
X120702719Y-89880938D01*
X120668191Y-89959519D01*
X120597944Y-89985713D01*
X120447925Y-89985713D01*
X120447925Y-89774972D01*
X120596753Y-89774972D01*
X120668191Y-89801761D01*
G37*
G36*
X117987498Y-90101203D02*
G01*
X118014287Y-90162520D01*
X117988094Y-90223838D01*
X117909512Y-90252413D01*
X117829741Y-90223838D01*
X117802356Y-90161925D01*
X117829741Y-90100608D01*
X117908917Y-90072628D01*
X117987498Y-90101203D01*
G37*
G36*
X116358128Y-89801761D02*
G01*
X116392656Y-89880938D01*
X116358128Y-89959519D01*
X116289072Y-89985713D01*
X116136672Y-89985713D01*
X116136672Y-89774972D01*
X116286691Y-89774972D01*
X116358128Y-89801761D01*
G37*
G36*
X114432523Y-90698296D02*
G01*
X114364409Y-90688193D01*
X114297613Y-90671461D01*
X114232779Y-90648263D01*
X114170532Y-90618822D01*
X114111469Y-90583421D01*
X114056161Y-90542402D01*
X114005140Y-90496159D01*
X113958897Y-90445138D01*
X113917877Y-90389830D01*
X113882477Y-90330767D01*
X113882021Y-90329803D01*
X115087731Y-90329803D01*
X115102019Y-90406003D01*
X115133570Y-90428327D01*
X115192506Y-90435769D01*
X115410391Y-90435769D01*
X115498088Y-90427658D01*
X115579013Y-90403324D01*
X115653166Y-90362769D01*
X115692289Y-90329803D01*
X115925931Y-90329803D01*
X115933075Y-90391716D01*
X115964627Y-90424755D01*
X116030706Y-90435769D01*
X116092023Y-90427732D01*
X116123575Y-90403622D01*
X116134886Y-90372070D01*
X116136672Y-90330994D01*
X116136672Y-90196453D01*
X116286691Y-90196453D01*
X116323600Y-90194072D01*
X116369902Y-90303742D01*
X116400858Y-90375576D01*
X116416469Y-90409575D01*
X116438495Y-90432792D01*
X116476595Y-90444103D01*
X116537912Y-90427434D01*
X116593277Y-90392906D01*
X116611731Y-90351234D01*
X116593872Y-90289322D01*
X116560534Y-90213519D01*
X116533547Y-90151209D01*
X116512909Y-90102394D01*
X116562519Y-90039158D01*
X116592284Y-89965340D01*
X116602206Y-89880938D01*
X116594467Y-89807119D01*
X116571250Y-89740444D01*
X116536127Y-89683889D01*
X116505766Y-89653528D01*
X116647450Y-89653528D01*
X116665309Y-89710678D01*
X116993922Y-90377428D01*
X117033808Y-90419695D01*
X117090362Y-90435769D01*
X117102269Y-90435769D01*
X117157633Y-90419695D01*
X117197519Y-90377428D01*
X117306078Y-90157163D01*
X117591616Y-90157163D01*
X117602397Y-90240903D01*
X117634743Y-90312738D01*
X117688652Y-90372666D01*
X117756186Y-90417645D01*
X117829410Y-90444632D01*
X117908322Y-90453628D01*
X117987234Y-90444566D01*
X118060457Y-90417380D01*
X118127992Y-90372070D01*
X118163754Y-90332184D01*
X118284559Y-90332184D01*
X118315516Y-90407194D01*
X118389334Y-90439341D01*
X118854869Y-90439341D01*
X118928687Y-90425053D01*
X118954286Y-90394097D01*
X118962025Y-90333970D01*
X118954881Y-90273248D01*
X118926902Y-90238720D01*
X118857250Y-90227409D01*
X118639366Y-90227409D01*
X118639366Y-90221456D01*
X118669131Y-90209550D01*
X118742950Y-90169366D01*
X118826294Y-90103584D01*
X118864989Y-90060722D01*
X118897731Y-90005953D01*
X118920055Y-89943445D01*
X118927497Y-89877366D01*
X118923310Y-89842838D01*
X118997744Y-89842838D01*
X119035248Y-89916656D01*
X119107281Y-89958328D01*
X119190625Y-89921419D01*
X119206103Y-89907131D01*
X119206103Y-90332184D01*
X119207889Y-90375642D01*
X119219200Y-90408384D01*
X119251049Y-90431602D01*
X119310878Y-90439341D01*
X119372195Y-90431304D01*
X119403747Y-90407194D01*
X119415058Y-90375642D01*
X119416844Y-90334566D01*
X119416844Y-90332184D01*
X119494234Y-90332184D01*
X119525191Y-90407194D01*
X119599009Y-90439341D01*
X120064544Y-90439341D01*
X120138362Y-90425053D01*
X120163961Y-90394097D01*
X120171700Y-90333970D01*
X120171210Y-90329803D01*
X120237184Y-90329803D01*
X120244328Y-90391716D01*
X120275880Y-90424755D01*
X120341959Y-90435769D01*
X120403277Y-90427732D01*
X120434828Y-90403622D01*
X120446139Y-90372070D01*
X120447925Y-90330994D01*
X120447925Y-90196453D01*
X120596753Y-90196453D01*
X120666603Y-90187986D01*
X120734866Y-90162586D01*
X120801541Y-90120253D01*
X120845891Y-90076944D01*
X120881312Y-90020836D01*
X120904530Y-89954607D01*
X120912269Y-89880938D01*
X120904530Y-89807119D01*
X120881312Y-89740444D01*
X120845891Y-89683889D01*
X120801541Y-89640431D01*
X120734998Y-89598098D01*
X120667132Y-89572698D01*
X120597944Y-89564231D01*
X120343150Y-89564231D01*
X120281833Y-89572268D01*
X120250281Y-89596378D01*
X120238970Y-89627930D01*
X120237184Y-89669006D01*
X120237184Y-90329803D01*
X120171210Y-90329803D01*
X120164556Y-90273248D01*
X120136577Y-90238720D01*
X120066925Y-90227409D01*
X119849041Y-90227409D01*
X119849041Y-90221456D01*
X119878806Y-90209550D01*
X119952625Y-90169366D01*
X120035969Y-90103584D01*
X120074664Y-90060722D01*
X120107406Y-90005953D01*
X120129730Y-89943445D01*
X120137172Y-89877366D01*
X120127250Y-89795543D01*
X120097484Y-89719939D01*
X120047875Y-89650552D01*
X119982324Y-89595320D01*
X119904735Y-89562181D01*
X119815108Y-89551134D01*
X119725546Y-89562048D01*
X119648156Y-89594791D01*
X119582936Y-89649361D01*
X119533657Y-89717690D01*
X119504090Y-89791707D01*
X119494234Y-89871413D01*
X119500187Y-89932134D01*
X119532632Y-89966067D01*
X119599009Y-89977378D01*
X119659731Y-89970234D01*
X119691878Y-89948803D01*
X119703189Y-89919038D01*
X119704975Y-89879747D01*
X119704975Y-89872603D01*
X119709737Y-89845219D01*
X119741289Y-89789855D01*
X119807369Y-89761875D01*
X119866900Y-89772591D01*
X119898452Y-89795808D01*
X119916906Y-89827955D01*
X119925241Y-89858316D01*
X119914079Y-89910405D01*
X119880592Y-89959519D01*
X119831330Y-90004614D01*
X119772841Y-90044648D01*
X119709737Y-90082451D01*
X119646634Y-90120848D01*
X119588145Y-90163413D01*
X119538883Y-90213717D01*
X119505396Y-90270421D01*
X119494234Y-90332184D01*
X119416844Y-90332184D01*
X119416844Y-89671388D01*
X119410891Y-89608284D01*
X119394222Y-89582686D01*
X119363266Y-89568994D01*
X119306711Y-89563041D01*
X119239441Y-89593997D01*
X119235869Y-89596378D01*
X119040606Y-89772591D01*
X118997744Y-89842838D01*
X118923310Y-89842838D01*
X118917575Y-89795543D01*
X118887809Y-89719939D01*
X118838200Y-89650552D01*
X118772649Y-89595320D01*
X118695060Y-89562181D01*
X118605433Y-89551134D01*
X118515871Y-89562048D01*
X118438481Y-89594791D01*
X118373261Y-89649361D01*
X118323982Y-89717690D01*
X118294415Y-89791707D01*
X118284559Y-89871413D01*
X118290512Y-89932134D01*
X118322957Y-89966067D01*
X118389334Y-89977378D01*
X118450056Y-89970234D01*
X118482203Y-89948803D01*
X118493514Y-89919038D01*
X118495300Y-89879747D01*
X118495300Y-89872603D01*
X118500062Y-89845219D01*
X118531614Y-89789855D01*
X118597694Y-89761875D01*
X118657225Y-89772591D01*
X118688777Y-89795808D01*
X118707231Y-89827955D01*
X118715566Y-89858316D01*
X118704404Y-89910405D01*
X118670917Y-89959519D01*
X118621655Y-90004614D01*
X118563166Y-90044648D01*
X118500062Y-90082451D01*
X118436959Y-90120848D01*
X118378470Y-90163413D01*
X118329208Y-90213717D01*
X118295721Y-90270421D01*
X118284559Y-90332184D01*
X118163754Y-90332184D01*
X118181901Y-90311944D01*
X118214246Y-90240308D01*
X118225028Y-90157163D01*
X118218331Y-90107454D01*
X118198239Y-90058341D01*
X118155377Y-89993452D01*
X118128587Y-89969044D01*
X118146447Y-89949994D01*
X118181570Y-89894034D01*
X118198834Y-89821406D01*
X118189309Y-89746000D01*
X118160734Y-89680119D01*
X118113109Y-89623763D01*
X118052520Y-89580768D01*
X117985051Y-89554971D01*
X117910703Y-89546372D01*
X117836091Y-89554839D01*
X117767828Y-89580239D01*
X117705916Y-89622572D01*
X117656968Y-89677870D01*
X117627599Y-89742164D01*
X117617809Y-89815453D01*
X117637455Y-89898202D01*
X117669006Y-89949994D01*
X117689247Y-89969044D01*
X117664244Y-89991666D01*
X117616023Y-90060127D01*
X117597718Y-90107900D01*
X117591616Y-90157163D01*
X117306078Y-90157163D01*
X117526131Y-89710678D01*
X117543991Y-89653528D01*
X117526429Y-89613642D01*
X117473744Y-89577328D01*
X117403497Y-89557088D01*
X117351109Y-89589234D01*
X117334441Y-89624953D01*
X117096316Y-90146447D01*
X117083368Y-90118914D01*
X117054048Y-90055364D01*
X117015353Y-89971276D01*
X116974277Y-89882128D01*
X116933349Y-89792980D01*
X116895100Y-89708892D01*
X116865186Y-89643408D01*
X116849261Y-89610070D01*
X116829616Y-89578519D01*
X116809375Y-89561850D01*
X116777823Y-89557088D01*
X116717697Y-89577328D01*
X116665012Y-89613642D01*
X116647450Y-89653528D01*
X116505766Y-89653528D01*
X116492669Y-89640431D01*
X116426126Y-89598098D01*
X116358260Y-89572698D01*
X116289072Y-89564231D01*
X116031897Y-89564231D01*
X115970580Y-89572268D01*
X115939028Y-89596378D01*
X115927717Y-89627930D01*
X115925931Y-89669006D01*
X115925931Y-90329803D01*
X115692289Y-90329803D01*
X115720548Y-90305991D01*
X115776545Y-90237865D01*
X115816543Y-90163264D01*
X115840541Y-90082190D01*
X115848541Y-89994642D01*
X115840355Y-89907429D01*
X115815798Y-89827359D01*
X115774871Y-89754434D01*
X115717572Y-89688652D01*
X115649483Y-89634218D01*
X115576185Y-89595336D01*
X115497678Y-89572008D01*
X115413962Y-89564231D01*
X115193697Y-89563041D01*
X115132380Y-89571077D01*
X115100828Y-89595188D01*
X115089517Y-89626144D01*
X115087731Y-89667816D01*
X115087731Y-90329803D01*
X113882021Y-90329803D01*
X113853036Y-90268519D01*
X113829838Y-90203685D01*
X113813106Y-90136890D01*
X113803003Y-90068776D01*
X113799624Y-90000000D01*
X113803003Y-89931224D01*
X113813106Y-89863110D01*
X113829838Y-89796315D01*
X113853036Y-89731481D01*
X113882477Y-89669233D01*
X113917877Y-89610170D01*
X113958897Y-89554862D01*
X114005140Y-89503841D01*
X114056161Y-89457598D01*
X114111469Y-89416579D01*
X114170532Y-89381178D01*
X114232779Y-89351737D01*
X114297613Y-89328539D01*
X114364409Y-89311807D01*
X114432523Y-89301704D01*
X114501299Y-89298325D01*
X121498701Y-89298325D01*
X121567477Y-89301704D01*
X121635591Y-89311807D01*
X121702387Y-89328539D01*
X121767221Y-89351737D01*
X121829468Y-89381178D01*
X121888531Y-89416579D01*
X121943839Y-89457598D01*
X121994860Y-89503841D01*
X122041103Y-89554862D01*
X122082123Y-89610170D01*
X122117523Y-89669233D01*
X122146964Y-89731481D01*
X122170162Y-89796314D01*
X122186894Y-89863110D01*
X122196997Y-89931224D01*
X122200376Y-90000000D01*
X122196997Y-90068776D01*
X122186894Y-90136890D01*
X122170162Y-90203686D01*
X122146964Y-90268519D01*
X122117523Y-90330767D01*
X122082123Y-90389830D01*
X122041103Y-90445138D01*
X121994860Y-90496159D01*
X121943839Y-90542402D01*
X121888531Y-90583421D01*
X121829468Y-90618822D01*
X121767221Y-90648263D01*
X121702387Y-90671461D01*
X121635591Y-90688193D01*
X121567477Y-90698296D01*
X121498701Y-90701675D01*
X114501299Y-90701675D01*
X114432523Y-90698296D01*
G37*
G36*
X115497455Y-89791194D02*
G01*
X115570530Y-89839861D01*
X115620982Y-89912638D01*
X115637800Y-90001191D01*
X115620536Y-90089446D01*
X115568744Y-90161330D01*
X115495520Y-90209104D01*
X115413962Y-90225028D01*
X115298472Y-90225028D01*
X115298472Y-89774972D01*
X115412772Y-89774972D01*
X115497455Y-89791194D01*
G37*
D12*
X124000000Y-75162500D03*
X124000000Y-76937500D03*
D13*
X128732200Y-89916000D03*
D14*
X131272200Y-89916000D03*
D15*
X130650000Y-75100000D03*
D16*
X129350000Y-75100000D03*
D17*
X110000000Y-70000000D03*
D14*
X136350000Y-70000000D03*
D13*
X133810000Y-70000000D03*
X131270000Y-70000000D03*
X128730000Y-70000000D03*
X126190000Y-70000000D03*
X123650000Y-70000000D03*
D14*
X110000000Y-81300000D03*
D13*
X110000000Y-78760000D03*
D17*
X150000000Y-90000000D03*
D18*
X133000000Y-75100000D03*
X133000000Y-77000000D03*
D17*
X150000000Y-70000000D03*
D18*
X127000000Y-75100000D03*
X127000000Y-77000000D03*
D19*
X130000000Y-80000000D03*
D20*
X129050000Y-79250000D03*
X129050000Y-79750000D03*
X129050000Y-80250000D03*
X129050000Y-80750000D03*
X130950000Y-80750000D03*
X130950000Y-80250000D03*
X130950000Y-79750000D03*
X130950000Y-79250000D03*
D17*
X110000000Y-90000000D03*
D21*
X130909700Y-84836000D03*
X129084700Y-84836000D03*
M02*
