%TF.GenerationSoftware,KiCad,Pcbnew,(6.0.0)*%
%TF.CreationDate,2023-02-05T21:46:31-06:00*%
%TF.ProjectId,drv8212p_eval,64727638-3231-4327-905f-6576616c2e6b,rev?*%
%TF.SameCoordinates,Original*%
%TF.FileFunction,Copper,L1,Top*%
%TF.FilePolarity,Positive*%
%FSLAX46Y46*%
G04 Gerber Fmt 4.6, Leading zero omitted, Abs format (unit mm)*
G04 Created by KiCad (PCBNEW (6.0.0)) date 2023-02-05 21:46:31*
%MOMM*%
%LPD*%
G01*
G04 APERTURE LIST*
G04 Aperture macros list*
%AMRoundRect*
0 Rectangle with rounded corners*
0 $1 Rounding radius*
0 $2 $3 $4 $5 $6 $7 $8 $9 X,Y pos of 4 corners*
0 Add a 4 corners polygon primitive as box body*
4,1,4,$2,$3,$4,$5,$6,$7,$8,$9,$2,$3,0*
0 Add four circle primitives for the rounded corners*
1,1,$1+$1,$2,$3*
1,1,$1+$1,$4,$5*
1,1,$1+$1,$6,$7*
1,1,$1+$1,$8,$9*
0 Add four rect primitives between the rounded corners*
20,1,$1+$1,$2,$3,$4,$5,0*
20,1,$1+$1,$4,$5,$6,$7,0*
20,1,$1+$1,$6,$7,$8,$9,0*
20,1,$1+$1,$8,$9,$2,$3,0*%
%AMFreePoly0*
4,1,22,0.500000,-0.750000,0.000000,-0.750000,0.000000,-0.745033,-0.079941,-0.743568,-0.215256,-0.701293,-0.333266,-0.622738,-0.424486,-0.514219,-0.481581,-0.384460,-0.499164,-0.250000,-0.500000,-0.250000,-0.500000,0.250000,-0.499164,0.250000,-0.499963,0.256109,-0.478152,0.396186,-0.417904,0.524511,-0.324060,0.630769,-0.204165,0.706417,-0.067858,0.745374,0.000000,0.744959,0.000000,0.750000,
0.500000,0.750000,0.500000,-0.750000,0.500000,-0.750000,$1*%
%AMFreePoly1*
4,1,20,0.000000,0.744959,0.073905,0.744508,0.209726,0.703889,0.328688,0.626782,0.421226,0.519385,0.479903,0.390333,0.500000,0.250000,0.500000,-0.250000,0.499851,-0.262216,0.476331,-0.402017,0.414519,-0.529596,0.319384,-0.634700,0.198574,-0.708877,0.061801,-0.746166,0.000000,-0.745033,0.000000,-0.750000,-0.500000,-0.750000,-0.500000,0.750000,0.000000,0.750000,0.000000,0.744959,
0.000000,0.744959,$1*%
G04 Aperture macros list end*
%TA.AperFunction,SMDPad,CuDef*%
%ADD10RoundRect,0.250000X-0.275000X0.312500X-0.275000X-0.312500X0.275000X-0.312500X0.275000X0.312500X0*%
%TD*%
%TA.AperFunction,ComponentPad*%
%ADD11O,1.700000X1.700000*%
%TD*%
%TA.AperFunction,ComponentPad*%
%ADD12R,1.700000X1.700000*%
%TD*%
%TA.AperFunction,SMDPad,CuDef*%
%ADD13FreePoly0,180.000000*%
%TD*%
%TA.AperFunction,SMDPad,CuDef*%
%ADD14FreePoly1,180.000000*%
%TD*%
%TA.AperFunction,ComponentPad*%
%ADD15C,4.400000*%
%TD*%
%TA.AperFunction,SMDPad,CuDef*%
%ADD16RoundRect,0.250000X-0.475000X0.250000X-0.475000X-0.250000X0.475000X-0.250000X0.475000X0.250000X0*%
%TD*%
%TA.AperFunction,SMDPad,CuDef*%
%ADD17RoundRect,0.050000X-0.400000X-0.750000X0.400000X-0.750000X0.400000X0.750000X-0.400000X0.750000X0*%
%TD*%
%TA.AperFunction,SMDPad,CuDef*%
%ADD18RoundRect,0.050000X-0.200000X-0.075000X0.200000X-0.075000X0.200000X0.075000X-0.200000X0.075000X0*%
%TD*%
%TA.AperFunction,SMDPad,CuDef*%
%ADD19RoundRect,0.250000X-0.262500X-0.450000X0.262500X-0.450000X0.262500X0.450000X-0.262500X0.450000X0*%
%TD*%
%TA.AperFunction,ViaPad*%
%ADD20C,0.560000*%
%TD*%
%TA.AperFunction,Conductor*%
%ADD21C,0.250000*%
%TD*%
%TA.AperFunction,Conductor*%
%ADD22C,0.200000*%
%TD*%
G04 APERTURE END LIST*
G36*
X130250000Y-75400000D02*
G01*
X129750000Y-75400000D01*
X129750000Y-74800000D01*
X130250000Y-74800000D01*
X130250000Y-75400000D01*
G37*
G36*
X116358128Y-89801761D02*
G01*
X116392656Y-89880938D01*
X116358128Y-89959519D01*
X116289072Y-89985713D01*
X116136672Y-89985713D01*
X116136672Y-89774972D01*
X116286691Y-89774972D01*
X116358128Y-89801761D01*
G37*
G36*
X115497455Y-89791194D02*
G01*
X115570530Y-89839861D01*
X115620982Y-89912638D01*
X115637800Y-90001191D01*
X115620536Y-90089446D01*
X115568744Y-90161330D01*
X115495520Y-90209104D01*
X115413962Y-90225028D01*
X115298472Y-90225028D01*
X115298472Y-89774972D01*
X115412772Y-89774972D01*
X115497455Y-89791194D01*
G37*
G36*
X117967853Y-89769614D02*
G01*
X117988094Y-89814263D01*
X117968448Y-89859506D01*
X117910108Y-89880938D01*
X117850577Y-89859506D01*
X117829741Y-89813667D01*
X117848791Y-89769019D01*
X117907727Y-89748778D01*
X117967853Y-89769614D01*
G37*
G36*
X117987498Y-90101203D02*
G01*
X118014287Y-90162520D01*
X117988094Y-90223838D01*
X117909512Y-90252413D01*
X117829741Y-90223838D01*
X117802356Y-90161925D01*
X117829741Y-90100608D01*
X117908917Y-90072628D01*
X117987498Y-90101203D01*
G37*
G36*
X120668191Y-89801761D02*
G01*
X120702719Y-89880938D01*
X120668191Y-89959519D01*
X120597944Y-89985713D01*
X120447925Y-89985713D01*
X120447925Y-89774972D01*
X120596753Y-89774972D01*
X120668191Y-89801761D01*
G37*
G36*
X114432523Y-90698296D02*
G01*
X114364409Y-90688193D01*
X114297613Y-90671461D01*
X114232779Y-90648263D01*
X114170532Y-90618822D01*
X114111469Y-90583421D01*
X114056161Y-90542402D01*
X114005140Y-90496159D01*
X113958897Y-90445138D01*
X113917877Y-90389830D01*
X113882477Y-90330767D01*
X113882021Y-90329803D01*
X115087731Y-90329803D01*
X115102019Y-90406003D01*
X115133570Y-90428327D01*
X115192506Y-90435769D01*
X115410391Y-90435769D01*
X115498088Y-90427658D01*
X115579013Y-90403324D01*
X115653166Y-90362769D01*
X115692289Y-90329803D01*
X115925931Y-90329803D01*
X115933075Y-90391716D01*
X115964627Y-90424755D01*
X116030706Y-90435769D01*
X116092023Y-90427732D01*
X116123575Y-90403622D01*
X116134886Y-90372070D01*
X116136672Y-90330994D01*
X116136672Y-90196453D01*
X116286691Y-90196453D01*
X116323600Y-90194072D01*
X116369902Y-90303742D01*
X116400858Y-90375576D01*
X116416469Y-90409575D01*
X116438495Y-90432792D01*
X116476595Y-90444103D01*
X116537912Y-90427434D01*
X116593277Y-90392906D01*
X116611731Y-90351234D01*
X116593872Y-90289322D01*
X116560534Y-90213519D01*
X116533547Y-90151209D01*
X116512909Y-90102394D01*
X116562519Y-90039158D01*
X116592284Y-89965340D01*
X116602206Y-89880938D01*
X116594467Y-89807119D01*
X116571250Y-89740444D01*
X116536127Y-89683889D01*
X116505766Y-89653528D01*
X116647450Y-89653528D01*
X116665309Y-89710678D01*
X116993922Y-90377428D01*
X117033808Y-90419695D01*
X117090362Y-90435769D01*
X117102269Y-90435769D01*
X117157633Y-90419695D01*
X117197519Y-90377428D01*
X117306078Y-90157163D01*
X117591616Y-90157163D01*
X117602397Y-90240903D01*
X117634743Y-90312738D01*
X117688652Y-90372666D01*
X117756186Y-90417645D01*
X117829410Y-90444632D01*
X117908322Y-90453628D01*
X117987234Y-90444566D01*
X118060457Y-90417380D01*
X118127992Y-90372070D01*
X118163754Y-90332184D01*
X118284559Y-90332184D01*
X118315516Y-90407194D01*
X118389334Y-90439341D01*
X118854869Y-90439341D01*
X118928687Y-90425053D01*
X118954286Y-90394097D01*
X118962025Y-90333970D01*
X118954881Y-90273248D01*
X118926902Y-90238720D01*
X118857250Y-90227409D01*
X118639366Y-90227409D01*
X118639366Y-90221456D01*
X118669131Y-90209550D01*
X118742950Y-90169366D01*
X118826294Y-90103584D01*
X118864989Y-90060722D01*
X118897731Y-90005953D01*
X118920055Y-89943445D01*
X118927497Y-89877366D01*
X118923310Y-89842838D01*
X118997744Y-89842838D01*
X119035248Y-89916656D01*
X119107281Y-89958328D01*
X119190625Y-89921419D01*
X119206103Y-89907131D01*
X119206103Y-90332184D01*
X119207889Y-90375642D01*
X119219200Y-90408384D01*
X119251049Y-90431602D01*
X119310878Y-90439341D01*
X119372195Y-90431304D01*
X119403747Y-90407194D01*
X119415058Y-90375642D01*
X119416844Y-90334566D01*
X119416844Y-90332184D01*
X119494234Y-90332184D01*
X119525191Y-90407194D01*
X119599009Y-90439341D01*
X120064544Y-90439341D01*
X120138362Y-90425053D01*
X120163961Y-90394097D01*
X120171700Y-90333970D01*
X120171210Y-90329803D01*
X120237184Y-90329803D01*
X120244328Y-90391716D01*
X120275880Y-90424755D01*
X120341959Y-90435769D01*
X120403277Y-90427732D01*
X120434828Y-90403622D01*
X120446139Y-90372070D01*
X120447925Y-90330994D01*
X120447925Y-90196453D01*
X120596753Y-90196453D01*
X120666603Y-90187986D01*
X120734866Y-90162586D01*
X120801541Y-90120253D01*
X120845891Y-90076944D01*
X120881312Y-90020836D01*
X120904530Y-89954607D01*
X120912269Y-89880938D01*
X120904530Y-89807119D01*
X120881312Y-89740444D01*
X120845891Y-89683889D01*
X120801541Y-89640431D01*
X120734998Y-89598098D01*
X120667132Y-89572698D01*
X120597944Y-89564231D01*
X120343150Y-89564231D01*
X120281833Y-89572268D01*
X120250281Y-89596378D01*
X120238970Y-89627930D01*
X120237184Y-89669006D01*
X120237184Y-90329803D01*
X120171210Y-90329803D01*
X120164556Y-90273248D01*
X120136577Y-90238720D01*
X120066925Y-90227409D01*
X119849041Y-90227409D01*
X119849041Y-90221456D01*
X119878806Y-90209550D01*
X119952625Y-90169366D01*
X120035969Y-90103584D01*
X120074664Y-90060722D01*
X120107406Y-90005953D01*
X120129730Y-89943445D01*
X120137172Y-89877366D01*
X120127250Y-89795543D01*
X120097484Y-89719939D01*
X120047875Y-89650552D01*
X119982324Y-89595320D01*
X119904735Y-89562181D01*
X119815108Y-89551134D01*
X119725546Y-89562048D01*
X119648156Y-89594791D01*
X119582936Y-89649361D01*
X119533657Y-89717690D01*
X119504090Y-89791707D01*
X119494234Y-89871413D01*
X119500187Y-89932134D01*
X119532632Y-89966067D01*
X119599009Y-89977378D01*
X119659731Y-89970234D01*
X119691878Y-89948803D01*
X119703189Y-89919038D01*
X119704975Y-89879747D01*
X119704975Y-89872603D01*
X119709737Y-89845219D01*
X119741289Y-89789855D01*
X119807369Y-89761875D01*
X119866900Y-89772591D01*
X119898452Y-89795808D01*
X119916906Y-89827955D01*
X119925241Y-89858316D01*
X119914079Y-89910405D01*
X119880592Y-89959519D01*
X119831330Y-90004614D01*
X119772841Y-90044648D01*
X119709737Y-90082451D01*
X119646634Y-90120848D01*
X119588145Y-90163413D01*
X119538883Y-90213717D01*
X119505396Y-90270421D01*
X119494234Y-90332184D01*
X119416844Y-90332184D01*
X119416844Y-89671388D01*
X119410891Y-89608284D01*
X119394222Y-89582686D01*
X119363266Y-89568994D01*
X119306711Y-89563041D01*
X119239441Y-89593997D01*
X119235869Y-89596378D01*
X119040606Y-89772591D01*
X118997744Y-89842838D01*
X118923310Y-89842838D01*
X118917575Y-89795543D01*
X118887809Y-89719939D01*
X118838200Y-89650552D01*
X118772649Y-89595320D01*
X118695060Y-89562181D01*
X118605433Y-89551134D01*
X118515871Y-89562048D01*
X118438481Y-89594791D01*
X118373261Y-89649361D01*
X118323982Y-89717690D01*
X118294415Y-89791707D01*
X118284559Y-89871413D01*
X118290512Y-89932134D01*
X118322957Y-89966067D01*
X118389334Y-89977378D01*
X118450056Y-89970234D01*
X118482203Y-89948803D01*
X118493514Y-89919038D01*
X118495300Y-89879747D01*
X118495300Y-89872603D01*
X118500062Y-89845219D01*
X118531614Y-89789855D01*
X118597694Y-89761875D01*
X118657225Y-89772591D01*
X118688777Y-89795808D01*
X118707231Y-89827955D01*
X118715566Y-89858316D01*
X118704404Y-89910405D01*
X118670917Y-89959519D01*
X118621655Y-90004614D01*
X118563166Y-90044648D01*
X118500062Y-90082451D01*
X118436959Y-90120848D01*
X118378470Y-90163413D01*
X118329208Y-90213717D01*
X118295721Y-90270421D01*
X118284559Y-90332184D01*
X118163754Y-90332184D01*
X118181901Y-90311944D01*
X118214246Y-90240308D01*
X118225028Y-90157163D01*
X118218331Y-90107454D01*
X118198239Y-90058341D01*
X118155377Y-89993452D01*
X118128587Y-89969044D01*
X118146447Y-89949994D01*
X118181570Y-89894034D01*
X118198834Y-89821406D01*
X118189309Y-89746000D01*
X118160734Y-89680119D01*
X118113109Y-89623763D01*
X118052520Y-89580768D01*
X117985051Y-89554971D01*
X117910703Y-89546372D01*
X117836091Y-89554839D01*
X117767828Y-89580239D01*
X117705916Y-89622572D01*
X117656968Y-89677870D01*
X117627599Y-89742164D01*
X117617809Y-89815453D01*
X117637455Y-89898202D01*
X117669006Y-89949994D01*
X117689247Y-89969044D01*
X117664244Y-89991666D01*
X117616023Y-90060127D01*
X117597718Y-90107900D01*
X117591616Y-90157163D01*
X117306078Y-90157163D01*
X117526131Y-89710678D01*
X117543991Y-89653528D01*
X117526429Y-89613642D01*
X117473744Y-89577328D01*
X117403497Y-89557088D01*
X117351109Y-89589234D01*
X117334441Y-89624953D01*
X117096316Y-90146447D01*
X117083368Y-90118914D01*
X117054048Y-90055364D01*
X117015353Y-89971276D01*
X116974277Y-89882128D01*
X116933349Y-89792980D01*
X116895100Y-89708892D01*
X116865186Y-89643408D01*
X116849261Y-89610070D01*
X116829616Y-89578519D01*
X116809375Y-89561850D01*
X116777823Y-89557088D01*
X116717697Y-89577328D01*
X116665012Y-89613642D01*
X116647450Y-89653528D01*
X116505766Y-89653528D01*
X116492669Y-89640431D01*
X116426126Y-89598098D01*
X116358260Y-89572698D01*
X116289072Y-89564231D01*
X116031897Y-89564231D01*
X115970580Y-89572268D01*
X115939028Y-89596378D01*
X115927717Y-89627930D01*
X115925931Y-89669006D01*
X115925931Y-90329803D01*
X115692289Y-90329803D01*
X115720548Y-90305991D01*
X115776545Y-90237865D01*
X115816543Y-90163264D01*
X115840541Y-90082190D01*
X115848541Y-89994642D01*
X115840355Y-89907429D01*
X115815798Y-89827359D01*
X115774871Y-89754434D01*
X115717572Y-89688652D01*
X115649483Y-89634218D01*
X115576185Y-89595336D01*
X115497678Y-89572008D01*
X115413962Y-89564231D01*
X115193697Y-89563041D01*
X115132380Y-89571077D01*
X115100828Y-89595188D01*
X115089517Y-89626144D01*
X115087731Y-89667816D01*
X115087731Y-90329803D01*
X113882021Y-90329803D01*
X113853036Y-90268519D01*
X113829838Y-90203685D01*
X113813106Y-90136890D01*
X113803003Y-90068776D01*
X113799624Y-90000000D01*
X113803003Y-89931224D01*
X113813106Y-89863110D01*
X113829838Y-89796315D01*
X113853036Y-89731481D01*
X113882477Y-89669233D01*
X113917877Y-89610170D01*
X113958897Y-89554862D01*
X114005140Y-89503841D01*
X114056161Y-89457598D01*
X114111469Y-89416579D01*
X114170532Y-89381178D01*
X114232779Y-89351737D01*
X114297613Y-89328539D01*
X114364409Y-89311807D01*
X114432523Y-89301704D01*
X114501299Y-89298325D01*
X121498701Y-89298325D01*
X121567477Y-89301704D01*
X121635591Y-89311807D01*
X121702387Y-89328539D01*
X121767221Y-89351737D01*
X121829468Y-89381178D01*
X121888531Y-89416579D01*
X121943839Y-89457598D01*
X121994860Y-89503841D01*
X122041103Y-89554862D01*
X122082123Y-89610170D01*
X122117523Y-89669233D01*
X122146964Y-89731481D01*
X122170162Y-89796314D01*
X122186894Y-89863110D01*
X122196997Y-89931224D01*
X122200376Y-90000000D01*
X122196997Y-90068776D01*
X122186894Y-90136890D01*
X122170162Y-90203686D01*
X122146964Y-90268519D01*
X122117523Y-90330767D01*
X122082123Y-90389830D01*
X122041103Y-90445138D01*
X121994860Y-90496159D01*
X121943839Y-90542402D01*
X121888531Y-90583421D01*
X121829468Y-90618822D01*
X121767221Y-90648263D01*
X121702387Y-90671461D01*
X121635591Y-90688193D01*
X121567477Y-90698296D01*
X121498701Y-90701675D01*
X114501299Y-90701675D01*
X114432523Y-90698296D01*
G37*
D10*
X124000000Y-75162500D03*
X124000000Y-76937500D03*
D11*
X128732200Y-89916000D03*
D12*
X131272200Y-89916000D03*
D13*
X130650000Y-75100000D03*
D14*
X129350000Y-75100000D03*
D15*
X110000000Y-70000000D03*
D12*
X136350000Y-70000000D03*
D11*
X133810000Y-70000000D03*
X131270000Y-70000000D03*
X128730000Y-70000000D03*
X126190000Y-70000000D03*
X123650000Y-70000000D03*
D12*
X110000000Y-81300000D03*
D11*
X110000000Y-78760000D03*
D15*
X150000000Y-90000000D03*
D16*
X133000000Y-75100000D03*
X133000000Y-77000000D03*
D15*
X150000000Y-70000000D03*
D16*
X127000000Y-75100000D03*
X127000000Y-77000000D03*
D17*
X130000000Y-80000000D03*
D18*
X129050000Y-79250000D03*
X129050000Y-79750000D03*
X129050000Y-80250000D03*
X129050000Y-80750000D03*
X130950000Y-80750000D03*
X130950000Y-80250000D03*
X130950000Y-79750000D03*
X130950000Y-79250000D03*
D15*
X110000000Y-90000000D03*
D19*
X130909700Y-84836000D03*
X129084700Y-84836000D03*
D20*
X130000000Y-79500000D03*
X130000000Y-80500000D03*
X133000000Y-77000000D03*
X130000000Y-78400000D03*
D21*
X129082800Y-86868000D02*
X128732200Y-87218600D01*
X129084700Y-84836000D02*
X129082800Y-84837900D01*
X129082800Y-84837900D02*
X129082800Y-86868000D01*
X128732200Y-87218600D02*
X128732200Y-89916000D01*
X129050000Y-84801300D02*
X129084700Y-84836000D01*
X129050000Y-80750000D02*
X129050000Y-84801300D01*
X129050000Y-78100000D02*
X129050000Y-79250000D01*
X127000000Y-75100000D02*
X129350000Y-75100000D01*
X124000000Y-75100000D02*
X127000000Y-75100000D01*
X129350000Y-77800000D02*
X129050000Y-78100000D01*
X123650000Y-71400000D02*
X124000000Y-71750000D01*
X129350000Y-75100000D02*
X129350000Y-77800000D01*
X124000000Y-71750000D02*
X124000000Y-75100000D01*
X123650000Y-70000000D02*
X123650000Y-71400000D01*
X133000000Y-74350000D02*
X133000000Y-75100000D01*
X132150000Y-73500000D02*
X133000000Y-74350000D01*
X127890000Y-73500000D02*
X132150000Y-73500000D01*
X133000000Y-75100000D02*
X130650000Y-75100000D01*
X126190000Y-70000000D02*
X126190000Y-71800000D01*
X130950000Y-78100000D02*
X130950000Y-79250000D01*
X130650000Y-77800000D02*
X130950000Y-78100000D01*
X126190000Y-71800000D02*
X127890000Y-73500000D01*
X130650000Y-75100000D02*
X130650000Y-77800000D01*
X131270000Y-70000000D02*
X131270000Y-71820000D01*
X133850000Y-80250000D02*
X130950000Y-80250000D01*
X133864282Y-72500000D02*
X135000000Y-73635718D01*
X135000000Y-79100000D02*
X133850000Y-80250000D01*
X131270000Y-71820000D02*
X131950000Y-72500000D01*
X135000000Y-73635718D02*
X135000000Y-79100000D01*
X131950000Y-72500000D02*
X133864282Y-72500000D01*
X133810000Y-70000000D02*
X133810000Y-71810000D01*
X135500000Y-73500000D02*
X135500000Y-79250000D01*
X135500000Y-79250000D02*
X134000000Y-80750000D01*
X134000000Y-80750000D02*
X130950000Y-80750000D01*
X133810000Y-71810000D02*
X135500000Y-73500000D01*
X134500000Y-73771436D02*
X134500000Y-78964282D01*
X133714282Y-79750000D02*
X130950000Y-79750000D01*
X128730000Y-70000000D02*
X128730000Y-71830000D01*
X134500000Y-78964282D02*
X133714282Y-79750000D01*
X129900000Y-73000000D02*
X133728564Y-73000000D01*
X133728564Y-73000000D02*
X134500000Y-73771436D01*
X128730000Y-71830000D02*
X129900000Y-73000000D01*
D22*
X111050000Y-80250000D02*
X110000000Y-81300000D01*
X129050000Y-80250000D02*
X111050000Y-80250000D01*
X110990000Y-79750000D02*
X110000000Y-78760000D01*
X129050000Y-79750000D02*
X110990000Y-79750000D01*
%TA.AperFunction,Conductor*%
G36*
X149981102Y-67210161D02*
G01*
X149985800Y-67210169D01*
X149999628Y-67213349D01*
X150013468Y-67210217D01*
X150027656Y-67210242D01*
X150027655Y-67210757D01*
X150036279Y-67210038D01*
X150206584Y-67219602D01*
X150305544Y-67225159D01*
X150319577Y-67226740D01*
X150466942Y-67251779D01*
X150614302Y-67276816D01*
X150628077Y-67279960D01*
X150716678Y-67305485D01*
X150915349Y-67362722D01*
X150928670Y-67367383D01*
X151204870Y-67481789D01*
X151217596Y-67487918D01*
X151479236Y-67632521D01*
X151491201Y-67640039D01*
X151735014Y-67813035D01*
X151746060Y-67821844D01*
X151968965Y-68021043D01*
X151978957Y-68031035D01*
X152178156Y-68253940D01*
X152186965Y-68264986D01*
X152359961Y-68508799D01*
X152367479Y-68520764D01*
X152512082Y-68782404D01*
X152518211Y-68795130D01*
X152632617Y-69071330D01*
X152637278Y-69084651D01*
X152648080Y-69122145D01*
X152720040Y-69371923D01*
X152723184Y-69385698D01*
X152736301Y-69462900D01*
X152757492Y-69587618D01*
X152773259Y-69680419D01*
X152774841Y-69694456D01*
X152780398Y-69793408D01*
X152789930Y-69963144D01*
X152789209Y-69971611D01*
X152789856Y-69971612D01*
X152789831Y-69985797D01*
X152786651Y-69999628D01*
X152789783Y-70013469D01*
X152789776Y-70017438D01*
X152792000Y-70037344D01*
X152792000Y-89962067D01*
X152789839Y-89981102D01*
X152789831Y-89985800D01*
X152786651Y-89999628D01*
X152789783Y-90013468D01*
X152789758Y-90027656D01*
X152789243Y-90027655D01*
X152789962Y-90036279D01*
X152783340Y-90154192D01*
X152775493Y-90293937D01*
X152774841Y-90305540D01*
X152773260Y-90319577D01*
X152753731Y-90434517D01*
X152723184Y-90614302D01*
X152720040Y-90628077D01*
X152702188Y-90690043D01*
X152637278Y-90915349D01*
X152632617Y-90928670D01*
X152518213Y-91204866D01*
X152512082Y-91217596D01*
X152367479Y-91479236D01*
X152359961Y-91491201D01*
X152186965Y-91735014D01*
X152178156Y-91746060D01*
X151978957Y-91968965D01*
X151968965Y-91978957D01*
X151746060Y-92178156D01*
X151735014Y-92186965D01*
X151491201Y-92359961D01*
X151479236Y-92367479D01*
X151217596Y-92512082D01*
X151204870Y-92518211D01*
X150928670Y-92632617D01*
X150915349Y-92637278D01*
X150716678Y-92694515D01*
X150628077Y-92720040D01*
X150614302Y-92723184D01*
X150466941Y-92748222D01*
X150319577Y-92773260D01*
X150305544Y-92774841D01*
X150036855Y-92789930D01*
X150028389Y-92789209D01*
X150028388Y-92789856D01*
X150014203Y-92789831D01*
X150000372Y-92786651D01*
X149986531Y-92789783D01*
X149982562Y-92789776D01*
X149962656Y-92792000D01*
X110037933Y-92792000D01*
X110018898Y-92789839D01*
X110014200Y-92789831D01*
X110000372Y-92786651D01*
X109986532Y-92789783D01*
X109972344Y-92789758D01*
X109972345Y-92789243D01*
X109963721Y-92789962D01*
X109793416Y-92780398D01*
X109694456Y-92774841D01*
X109680423Y-92773260D01*
X109533059Y-92748222D01*
X109385698Y-92723184D01*
X109371923Y-92720040D01*
X109283322Y-92694515D01*
X109084651Y-92637278D01*
X109071330Y-92632617D01*
X108795130Y-92518211D01*
X108782404Y-92512082D01*
X108520764Y-92367479D01*
X108508799Y-92359961D01*
X108264986Y-92186965D01*
X108253940Y-92178156D01*
X108031035Y-91978957D01*
X108021043Y-91968965D01*
X107821844Y-91746060D01*
X107813035Y-91735014D01*
X107640039Y-91491201D01*
X107632521Y-91479236D01*
X107487918Y-91217596D01*
X107481787Y-91204866D01*
X107367383Y-90928670D01*
X107362722Y-90915349D01*
X107297812Y-90690043D01*
X107279960Y-90628077D01*
X107276816Y-90614302D01*
X107246269Y-90434517D01*
X107226740Y-90319577D01*
X107225159Y-90305540D01*
X107224508Y-90293937D01*
X107210070Y-90036855D01*
X107210791Y-90028389D01*
X107210144Y-90028388D01*
X107210169Y-90014203D01*
X107213349Y-90000372D01*
X107213265Y-90000000D01*
X107586738Y-90000000D01*
X107605767Y-90302462D01*
X107662555Y-90600154D01*
X107693535Y-90695501D01*
X107754655Y-90883606D01*
X107756206Y-90888381D01*
X107757893Y-90891967D01*
X107757895Y-90891971D01*
X107766654Y-90910584D01*
X107885242Y-91162598D01*
X108047630Y-91418480D01*
X108240808Y-91651992D01*
X108461729Y-91859450D01*
X108706910Y-92037584D01*
X108972483Y-92183585D01*
X108976152Y-92185038D01*
X108976157Y-92185040D01*
X109250591Y-92293696D01*
X109254261Y-92295149D01*
X109547800Y-92370516D01*
X109848470Y-92408500D01*
X110151530Y-92408500D01*
X110452200Y-92370516D01*
X110745739Y-92295149D01*
X110749409Y-92293696D01*
X111023843Y-92185040D01*
X111023848Y-92185038D01*
X111027517Y-92183585D01*
X111293090Y-92037584D01*
X111538271Y-91859450D01*
X111759192Y-91651992D01*
X111952370Y-91418480D01*
X112114758Y-91162598D01*
X112233346Y-90910584D01*
X112242105Y-90891971D01*
X112242107Y-90891967D01*
X112243794Y-90888381D01*
X112245346Y-90883606D01*
X112306465Y-90695501D01*
X112337445Y-90600154D01*
X112394233Y-90302462D01*
X112413262Y-90000000D01*
X112412419Y-89986602D01*
X113590715Y-89986602D01*
X113591065Y-89993723D01*
X113591070Y-89993827D01*
X113591070Y-90006129D01*
X113591071Y-90006147D01*
X113590724Y-90013214D01*
X113591957Y-90020181D01*
X113592338Y-90026220D01*
X113592911Y-90031309D01*
X113594202Y-90057586D01*
X113594130Y-90062451D01*
X113594348Y-90068813D01*
X113593787Y-90075916D01*
X113594832Y-90082962D01*
X113594846Y-90083056D01*
X113596054Y-90095328D01*
X113596057Y-90095347D01*
X113596404Y-90102404D01*
X113598313Y-90109211D01*
X113599288Y-90115204D01*
X113600357Y-90120211D01*
X113604214Y-90146223D01*
X113604621Y-90151088D01*
X113605459Y-90157379D01*
X113605597Y-90164507D01*
X113607329Y-90171421D01*
X113607329Y-90171422D01*
X113607355Y-90171526D01*
X113609752Y-90183576D01*
X113609758Y-90183598D01*
X113610797Y-90190603D01*
X113613367Y-90197198D01*
X113614921Y-90203055D01*
X113616475Y-90207931D01*
X113622865Y-90233441D01*
X113623747Y-90238245D01*
X113625199Y-90244429D01*
X113626035Y-90251507D01*
X113628436Y-90258217D01*
X113628436Y-90258218D01*
X113628471Y-90258315D01*
X113632043Y-90270090D01*
X113632051Y-90270111D01*
X113633770Y-90276973D01*
X113636971Y-90283280D01*
X113639086Y-90288940D01*
X113641113Y-90293647D01*
X113649979Y-90318425D01*
X113651330Y-90323129D01*
X113653377Y-90329130D01*
X113654902Y-90336086D01*
X113657946Y-90342522D01*
X113657949Y-90342531D01*
X113657993Y-90342623D01*
X113662701Y-90353990D01*
X113662715Y-90354018D01*
X113665095Y-90360670D01*
X113668896Y-90366628D01*
X113671566Y-90372074D01*
X113674044Y-90376558D01*
X113685286Y-90400328D01*
X113687091Y-90404875D01*
X113689719Y-90410651D01*
X113691919Y-90417427D01*
X113695627Y-90423614D01*
X113695629Y-90423617D01*
X113701443Y-90434494D01*
X113701452Y-90434508D01*
X113704473Y-90440896D01*
X113708841Y-90446454D01*
X113712016Y-90451588D01*
X113714927Y-90455816D01*
X113728464Y-90478401D01*
X113730702Y-90482743D01*
X113733878Y-90488224D01*
X113736733Y-90494755D01*
X113740977Y-90500477D01*
X113741038Y-90500559D01*
X113747876Y-90510793D01*
X113747887Y-90510807D01*
X113751523Y-90516874D01*
X113756416Y-90521978D01*
X113760093Y-90526794D01*
X113763396Y-90530705D01*
X113765668Y-90533768D01*
X113779072Y-90551842D01*
X113781724Y-90555941D01*
X113785428Y-90561094D01*
X113788909Y-90567312D01*
X113793694Y-90572592D01*
X113793695Y-90572593D01*
X113793764Y-90572669D01*
X113801579Y-90582191D01*
X113801585Y-90582197D01*
X113805799Y-90587879D01*
X113811168Y-90592478D01*
X113815295Y-90596906D01*
X113818976Y-90600486D01*
X113836633Y-90619967D01*
X113839663Y-90623773D01*
X113843868Y-90628554D01*
X113847944Y-90634405D01*
X113853304Y-90639263D01*
X113862000Y-90647959D01*
X113862017Y-90647974D01*
X113866770Y-90653218D01*
X113872571Y-90657274D01*
X113877124Y-90661286D01*
X113881112Y-90664467D01*
X113884896Y-90667896D01*
X113900611Y-90682140D01*
X113903999Y-90685630D01*
X113908642Y-90689965D01*
X113913274Y-90695391D01*
X113919079Y-90699696D01*
X113928584Y-90707498D01*
X113928610Y-90707517D01*
X113933851Y-90712267D01*
X113940018Y-90715733D01*
X113944928Y-90719269D01*
X113949229Y-90722057D01*
X113970353Y-90737723D01*
X113974081Y-90740877D01*
X113979127Y-90744737D01*
X113984265Y-90749679D01*
X113990380Y-90753344D01*
X113990466Y-90753396D01*
X114000697Y-90760232D01*
X114000723Y-90760247D01*
X114006399Y-90764457D01*
X114012873Y-90767301D01*
X114018099Y-90770335D01*
X114022659Y-90772692D01*
X114045217Y-90786212D01*
X114049212Y-90788967D01*
X114054630Y-90792325D01*
X114060236Y-90796747D01*
X114066763Y-90799834D01*
X114066773Y-90799839D01*
X114077632Y-90805643D01*
X114077646Y-90805649D01*
X114083712Y-90809285D01*
X114090436Y-90811481D01*
X114095937Y-90813990D01*
X114100696Y-90815884D01*
X114124479Y-90827132D01*
X114128753Y-90829499D01*
X114134455Y-90832300D01*
X114140454Y-90836142D01*
X114147164Y-90838543D01*
X114147166Y-90838544D01*
X114147264Y-90838579D01*
X114158637Y-90843290D01*
X114158654Y-90843296D01*
X114165044Y-90846318D01*
X114171949Y-90847844D01*
X114177688Y-90849807D01*
X114182603Y-90851224D01*
X114207362Y-90860083D01*
X114211841Y-90862017D01*
X114217799Y-90864249D01*
X114224147Y-90867485D01*
X114231165Y-90869243D01*
X114242932Y-90872813D01*
X114242960Y-90872820D01*
X114249618Y-90875202D01*
X114256642Y-90876045D01*
X114262528Y-90877432D01*
X114267568Y-90878362D01*
X114293083Y-90884753D01*
X114297750Y-90886245D01*
X114303882Y-90887878D01*
X114310514Y-90890475D01*
X114317640Y-90891532D01*
X114317661Y-90891535D01*
X114329718Y-90893933D01*
X114329748Y-90893937D01*
X114336614Y-90895657D01*
X114343684Y-90895806D01*
X114349674Y-90896610D01*
X114354786Y-90897041D01*
X114380817Y-90900902D01*
X114385576Y-90901923D01*
X114391851Y-90902949D01*
X114398712Y-90904886D01*
X114405935Y-90905241D01*
X114418184Y-90906447D01*
X114418205Y-90906448D01*
X114425200Y-90907485D01*
X114432249Y-90906941D01*
X114438316Y-90907154D01*
X114443413Y-90907082D01*
X114472079Y-90908491D01*
X114472752Y-90908545D01*
X114477666Y-90909675D01*
X114493104Y-90909675D01*
X114499286Y-90909827D01*
X114507447Y-90910228D01*
X114507448Y-90910228D01*
X114514513Y-90910575D01*
X114519471Y-90909697D01*
X114520183Y-90909675D01*
X115403921Y-90909675D01*
X115457337Y-90909722D01*
X115457658Y-90909722D01*
X115457756Y-90909675D01*
X116470125Y-90909675D01*
X116523541Y-90909722D01*
X116523862Y-90909722D01*
X116523960Y-90909675D01*
X117095799Y-90909675D01*
X117149215Y-90909722D01*
X117149536Y-90909722D01*
X117149634Y-90909675D01*
X117901852Y-90909675D01*
X117955268Y-90909722D01*
X117955589Y-90909722D01*
X117955687Y-90909675D01*
X118848399Y-90909675D01*
X118901815Y-90909722D01*
X118902136Y-90909722D01*
X118902234Y-90909675D01*
X119304408Y-90909675D01*
X119357824Y-90909722D01*
X119358145Y-90909722D01*
X119358243Y-90909675D01*
X120058074Y-90909675D01*
X120111490Y-90909722D01*
X120111811Y-90909722D01*
X120111909Y-90909675D01*
X120335489Y-90909675D01*
X120388905Y-90909722D01*
X120389226Y-90909722D01*
X120389324Y-90909675D01*
X121479658Y-90909675D01*
X121480341Y-90909697D01*
X121485303Y-90910584D01*
X121500712Y-90909827D01*
X121506895Y-90909675D01*
X121522150Y-90909675D01*
X121527057Y-90908555D01*
X121527777Y-90908497D01*
X121556289Y-90907097D01*
X121561158Y-90907169D01*
X121567515Y-90906951D01*
X121574617Y-90907512D01*
X121581762Y-90906453D01*
X121594029Y-90905245D01*
X121594048Y-90905242D01*
X121601105Y-90904895D01*
X121607909Y-90902987D01*
X121613908Y-90902011D01*
X121618913Y-90900942D01*
X121644926Y-90897085D01*
X121649787Y-90896679D01*
X121656084Y-90895840D01*
X121663208Y-90895702D01*
X121670225Y-90893944D01*
X121682277Y-90891547D01*
X121682299Y-90891541D01*
X121689304Y-90890502D01*
X121695898Y-90887932D01*
X121701760Y-90886377D01*
X121706633Y-90884824D01*
X121732144Y-90878434D01*
X121736946Y-90877552D01*
X121743128Y-90876101D01*
X121750209Y-90875264D01*
X121757017Y-90872828D01*
X121768779Y-90869260D01*
X121768810Y-90869249D01*
X121775675Y-90867529D01*
X121781987Y-90864325D01*
X121787665Y-90862203D01*
X121792361Y-90860181D01*
X121817111Y-90851325D01*
X121821809Y-90849976D01*
X121827831Y-90847922D01*
X121834789Y-90846397D01*
X121841331Y-90843303D01*
X121852691Y-90838598D01*
X121852715Y-90838586D01*
X121859372Y-90836204D01*
X121865333Y-90832401D01*
X121870778Y-90829732D01*
X121875247Y-90827262D01*
X121899044Y-90816007D01*
X121903580Y-90814207D01*
X121909353Y-90811580D01*
X121916131Y-90809379D01*
X121922323Y-90805667D01*
X121933196Y-90799855D01*
X121933205Y-90799849D01*
X121939598Y-90796826D01*
X121945154Y-90792459D01*
X121950294Y-90789281D01*
X121954531Y-90786363D01*
X121956139Y-90785399D01*
X121977088Y-90772843D01*
X121981435Y-90770602D01*
X121986924Y-90767422D01*
X121993454Y-90764567D01*
X121999268Y-90760256D01*
X122009491Y-90753425D01*
X122009515Y-90753407D01*
X122015577Y-90749773D01*
X122020679Y-90744882D01*
X122025500Y-90741201D01*
X122029405Y-90737903D01*
X122050544Y-90722227D01*
X122054642Y-90719575D01*
X122059796Y-90715870D01*
X122066013Y-90712390D01*
X122071292Y-90707606D01*
X122071300Y-90707600D01*
X122071370Y-90707536D01*
X122080893Y-90699720D01*
X122080902Y-90699712D01*
X122086579Y-90695501D01*
X122091176Y-90690136D01*
X122095597Y-90686015D01*
X122099190Y-90682320D01*
X122118666Y-90664668D01*
X122122473Y-90661637D01*
X122127255Y-90657430D01*
X122133106Y-90653355D01*
X122137964Y-90647995D01*
X122146660Y-90639299D01*
X122146675Y-90639282D01*
X122151919Y-90634529D01*
X122155976Y-90628727D01*
X122159991Y-90624170D01*
X122163168Y-90620187D01*
X122180834Y-90600696D01*
X122184341Y-90597293D01*
X122188676Y-90592651D01*
X122194091Y-90588027D01*
X122198405Y-90582211D01*
X122206202Y-90572711D01*
X122206218Y-90572689D01*
X122210968Y-90567448D01*
X122214436Y-90561278D01*
X122217979Y-90556358D01*
X122220750Y-90552081D01*
X122236433Y-90530936D01*
X122239585Y-90527211D01*
X122243445Y-90522165D01*
X122248382Y-90517032D01*
X122252045Y-90510921D01*
X122252047Y-90510918D01*
X122252093Y-90510841D01*
X122258927Y-90500614D01*
X122258944Y-90500585D01*
X122263158Y-90494903D01*
X122266004Y-90488424D01*
X122269043Y-90483188D01*
X122271393Y-90478640D01*
X122284917Y-90456076D01*
X122287694Y-90452051D01*
X122291040Y-90446652D01*
X122295449Y-90441062D01*
X122298492Y-90434628D01*
X122298496Y-90434622D01*
X122298545Y-90434517D01*
X122304336Y-90423684D01*
X122304350Y-90423654D01*
X122307987Y-90417585D01*
X122310183Y-90410861D01*
X122312703Y-90405334D01*
X122314588Y-90400595D01*
X122325838Y-90376810D01*
X122328201Y-90372543D01*
X122331000Y-90366847D01*
X122334843Y-90360845D01*
X122337243Y-90354137D01*
X122337246Y-90354132D01*
X122337277Y-90354045D01*
X122341991Y-90342662D01*
X122341996Y-90342647D01*
X122345020Y-90336253D01*
X122346547Y-90329343D01*
X122348510Y-90323604D01*
X122349927Y-90318690D01*
X122358784Y-90293937D01*
X122360715Y-90289462D01*
X122362948Y-90283504D01*
X122366186Y-90277152D01*
X122367917Y-90270243D01*
X122367919Y-90270236D01*
X122367943Y-90270138D01*
X122371514Y-90258367D01*
X122371520Y-90258341D01*
X122373903Y-90251682D01*
X122374746Y-90244657D01*
X122376136Y-90238758D01*
X122377063Y-90233731D01*
X122383456Y-90208211D01*
X122384944Y-90203553D01*
X122386577Y-90197423D01*
X122389176Y-90190785D01*
X122390236Y-90183638D01*
X122392634Y-90171581D01*
X122392638Y-90171551D01*
X122394358Y-90164685D01*
X122394507Y-90157615D01*
X122395311Y-90151625D01*
X122395742Y-90146513D01*
X122399603Y-90120482D01*
X122400624Y-90115723D01*
X122401650Y-90109448D01*
X122403587Y-90102587D01*
X122403942Y-90095364D01*
X122405148Y-90083115D01*
X122405149Y-90083094D01*
X122406186Y-90076099D01*
X122405642Y-90069051D01*
X122405855Y-90062989D01*
X122405783Y-90057878D01*
X122405798Y-90057586D01*
X122407074Y-90031602D01*
X122407624Y-90026756D01*
X122408030Y-90020419D01*
X122409285Y-90013398D01*
X122408930Y-90006170D01*
X122408930Y-89993871D01*
X122408929Y-89993853D01*
X122409276Y-89986786D01*
X122408043Y-89979819D01*
X122407662Y-89973780D01*
X122407089Y-89968691D01*
X122405798Y-89942413D01*
X122405870Y-89937547D01*
X122405652Y-89931187D01*
X122406213Y-89924083D01*
X122405154Y-89916938D01*
X122403946Y-89904680D01*
X122403943Y-89904665D01*
X122403596Y-89897596D01*
X122401686Y-89890783D01*
X122400715Y-89884813D01*
X122399645Y-89879796D01*
X122395787Y-89853787D01*
X122395379Y-89848914D01*
X122394541Y-89842623D01*
X122394403Y-89835494D01*
X122392648Y-89828488D01*
X122390250Y-89816427D01*
X122390240Y-89816390D01*
X122389203Y-89809397D01*
X122386635Y-89802805D01*
X122385088Y-89796976D01*
X122383527Y-89792076D01*
X122377135Y-89766562D01*
X122376254Y-89761760D01*
X122374801Y-89755570D01*
X122373965Y-89748491D01*
X122371524Y-89741668D01*
X122367960Y-89729920D01*
X122367950Y-89729894D01*
X122366230Y-89723027D01*
X122363027Y-89716717D01*
X122360904Y-89711035D01*
X122358885Y-89706347D01*
X122350024Y-89681583D01*
X122348678Y-89676896D01*
X122346623Y-89670872D01*
X122345098Y-89663914D01*
X122342052Y-89657473D01*
X122342050Y-89657467D01*
X122342007Y-89657377D01*
X122337297Y-89646007D01*
X122337289Y-89645991D01*
X122334905Y-89639329D01*
X122331098Y-89633362D01*
X122328428Y-89627915D01*
X122325956Y-89623442D01*
X122325838Y-89623191D01*
X122320734Y-89612400D01*
X122314713Y-89599669D01*
X122312914Y-89595137D01*
X122310281Y-89589350D01*
X122308081Y-89582572D01*
X122304364Y-89576370D01*
X122298557Y-89565506D01*
X122298549Y-89565493D01*
X122295527Y-89559104D01*
X122291158Y-89553545D01*
X122287979Y-89548405D01*
X122285064Y-89544170D01*
X122284916Y-89543923D01*
X122271538Y-89521602D01*
X122269297Y-89517254D01*
X122266120Y-89511771D01*
X122263267Y-89505245D01*
X122258963Y-89499441D01*
X122252135Y-89489221D01*
X122252113Y-89489193D01*
X122248477Y-89483126D01*
X122243581Y-89478019D01*
X122239913Y-89473214D01*
X122236609Y-89469301D01*
X122220925Y-89448155D01*
X122218280Y-89444065D01*
X122214572Y-89438907D01*
X122211091Y-89432688D01*
X122206234Y-89427329D01*
X122198434Y-89417825D01*
X122198417Y-89417807D01*
X122194200Y-89412121D01*
X122188831Y-89407521D01*
X122184698Y-89403087D01*
X122181025Y-89399516D01*
X122163370Y-89380037D01*
X122160336Y-89376227D01*
X122156134Y-89371450D01*
X122152056Y-89365595D01*
X122146696Y-89360737D01*
X122138000Y-89352041D01*
X122137983Y-89352026D01*
X122133230Y-89346782D01*
X122127429Y-89342726D01*
X122122876Y-89338714D01*
X122118886Y-89335532D01*
X122099389Y-89317860D01*
X122095989Y-89314358D01*
X122091354Y-89310029D01*
X122086726Y-89304609D01*
X122081004Y-89300365D01*
X122081002Y-89300363D01*
X122080921Y-89300303D01*
X122071396Y-89292486D01*
X122071384Y-89292477D01*
X122066149Y-89287733D01*
X122059988Y-89284270D01*
X122055094Y-89280745D01*
X122050777Y-89277947D01*
X122050536Y-89277768D01*
X122029638Y-89262269D01*
X122025918Y-89259123D01*
X122020876Y-89255266D01*
X122015735Y-89250321D01*
X122009620Y-89246656D01*
X122009539Y-89246607D01*
X121999310Y-89239773D01*
X121999288Y-89239760D01*
X121993602Y-89235543D01*
X121987122Y-89232697D01*
X121981879Y-89229653D01*
X121977338Y-89227307D01*
X121954781Y-89213787D01*
X121950785Y-89211030D01*
X121945365Y-89207671D01*
X121939764Y-89203253D01*
X121933228Y-89200161D01*
X121922363Y-89194354D01*
X121922349Y-89194348D01*
X121916288Y-89190715D01*
X121909572Y-89188521D01*
X121904066Y-89186011D01*
X121899299Y-89184114D01*
X121875518Y-89172867D01*
X121871251Y-89170504D01*
X121865545Y-89167701D01*
X121859545Y-89163858D01*
X121852743Y-89161424D01*
X121841379Y-89156717D01*
X121841355Y-89156709D01*
X121834956Y-89153682D01*
X121828048Y-89152155D01*
X121822317Y-89150194D01*
X121817395Y-89148775D01*
X121792636Y-89139916D01*
X121788174Y-89137990D01*
X121782204Y-89135753D01*
X121775853Y-89132515D01*
X121768944Y-89130784D01*
X121768937Y-89130782D01*
X121768839Y-89130758D01*
X121757059Y-89127184D01*
X121757032Y-89127178D01*
X121750382Y-89124798D01*
X121743364Y-89123956D01*
X121737487Y-89122571D01*
X121732432Y-89121638D01*
X121706917Y-89115247D01*
X121702250Y-89113755D01*
X121696118Y-89112122D01*
X121689486Y-89109525D01*
X121682340Y-89108465D01*
X121670282Y-89106067D01*
X121670252Y-89106063D01*
X121663386Y-89104343D01*
X121656315Y-89104194D01*
X121650325Y-89103390D01*
X121645213Y-89102959D01*
X121619181Y-89099098D01*
X121614411Y-89098075D01*
X121608150Y-89097051D01*
X121601288Y-89095114D01*
X121594169Y-89094764D01*
X121594122Y-89094762D01*
X121594064Y-89094759D01*
X121581815Y-89093553D01*
X121581794Y-89093552D01*
X121574799Y-89092515D01*
X121567750Y-89093059D01*
X121561683Y-89092846D01*
X121556586Y-89092918D01*
X121527921Y-89091509D01*
X121527248Y-89091455D01*
X121522334Y-89090325D01*
X121506896Y-89090325D01*
X121500714Y-89090173D01*
X121492553Y-89089772D01*
X121492552Y-89089772D01*
X121485487Y-89089425D01*
X121480529Y-89090303D01*
X121479817Y-89090325D01*
X114520342Y-89090325D01*
X114519659Y-89090303D01*
X114514697Y-89089416D01*
X114501283Y-89090075D01*
X114499288Y-89090173D01*
X114493105Y-89090325D01*
X114477850Y-89090325D01*
X114472943Y-89091445D01*
X114472223Y-89091503D01*
X114443710Y-89092903D01*
X114438841Y-89092831D01*
X114432485Y-89093049D01*
X114425382Y-89092488D01*
X114418237Y-89093547D01*
X114405979Y-89094755D01*
X114405964Y-89094758D01*
X114398895Y-89095105D01*
X114392082Y-89097015D01*
X114386112Y-89097986D01*
X114381095Y-89099056D01*
X114355086Y-89102914D01*
X114350213Y-89103322D01*
X114343922Y-89104160D01*
X114336793Y-89104298D01*
X114329787Y-89106053D01*
X114317726Y-89108451D01*
X114317689Y-89108461D01*
X114310696Y-89109498D01*
X114304107Y-89112065D01*
X114298273Y-89113613D01*
X114293382Y-89115172D01*
X114267856Y-89121567D01*
X114263046Y-89122450D01*
X114256870Y-89123900D01*
X114249791Y-89124736D01*
X114243081Y-89127137D01*
X114243080Y-89127137D01*
X114242977Y-89127174D01*
X114231213Y-89130743D01*
X114231192Y-89130751D01*
X114224326Y-89132471D01*
X114218020Y-89135672D01*
X114212323Y-89137801D01*
X114207646Y-89139816D01*
X114192863Y-89145106D01*
X114182875Y-89148679D01*
X114178155Y-89150035D01*
X114172167Y-89152078D01*
X114165210Y-89153603D01*
X114158771Y-89156649D01*
X114158770Y-89156649D01*
X114158675Y-89156694D01*
X114147319Y-89161397D01*
X114147281Y-89161416D01*
X114140628Y-89163796D01*
X114134664Y-89167601D01*
X114129218Y-89170271D01*
X114124751Y-89172739D01*
X114100955Y-89183993D01*
X114096451Y-89185781D01*
X114090651Y-89188420D01*
X114083870Y-89190621D01*
X114077676Y-89194333D01*
X114066810Y-89200141D01*
X114066797Y-89200149D01*
X114060402Y-89203174D01*
X114054841Y-89207544D01*
X114049704Y-89210721D01*
X114045470Y-89213637D01*
X114022917Y-89227155D01*
X114018573Y-89229394D01*
X114013078Y-89232578D01*
X114006546Y-89235433D01*
X114000732Y-89239744D01*
X113990510Y-89246574D01*
X113990484Y-89246594D01*
X113984423Y-89250227D01*
X113979320Y-89255118D01*
X113974498Y-89258800D01*
X113970590Y-89262100D01*
X113949463Y-89277768D01*
X113945351Y-89280429D01*
X113940201Y-89284131D01*
X113933987Y-89287610D01*
X113928709Y-89292393D01*
X113928707Y-89292395D01*
X113928629Y-89292466D01*
X113919126Y-89300265D01*
X113919108Y-89300282D01*
X113913422Y-89304499D01*
X113908821Y-89309870D01*
X113904399Y-89313991D01*
X113900826Y-89317666D01*
X113881327Y-89335339D01*
X113877519Y-89338371D01*
X113872748Y-89342567D01*
X113866894Y-89346645D01*
X113862036Y-89352005D01*
X113853340Y-89360701D01*
X113853325Y-89360718D01*
X113848081Y-89365471D01*
X113844025Y-89371272D01*
X113840015Y-89375823D01*
X113836832Y-89379814D01*
X113819166Y-89399305D01*
X113815663Y-89402704D01*
X113811325Y-89407349D01*
X113805909Y-89411973D01*
X113801666Y-89417694D01*
X113801664Y-89417696D01*
X113801595Y-89417789D01*
X113793798Y-89427289D01*
X113793782Y-89427311D01*
X113789032Y-89432552D01*
X113785565Y-89438720D01*
X113782022Y-89443640D01*
X113779246Y-89447923D01*
X113779070Y-89448161D01*
X113763569Y-89469061D01*
X113760411Y-89472795D01*
X113756557Y-89477834D01*
X113751618Y-89482968D01*
X113747957Y-89489076D01*
X113747954Y-89489080D01*
X113747907Y-89489159D01*
X113741073Y-89499386D01*
X113741056Y-89499415D01*
X113736842Y-89505097D01*
X113733996Y-89511576D01*
X113730957Y-89516812D01*
X113728607Y-89521360D01*
X113728455Y-89521615D01*
X113715084Y-89543923D01*
X113712312Y-89547941D01*
X113708967Y-89553339D01*
X113704551Y-89558938D01*
X113701455Y-89565485D01*
X113695660Y-89576327D01*
X113695654Y-89576341D01*
X113692013Y-89582415D01*
X113689815Y-89589145D01*
X113687296Y-89594670D01*
X113685412Y-89599405D01*
X113685287Y-89599669D01*
X113674161Y-89623191D01*
X113671807Y-89627443D01*
X113669002Y-89633153D01*
X113665157Y-89639157D01*
X113662727Y-89645948D01*
X113658007Y-89657343D01*
X113658003Y-89657356D01*
X113654980Y-89663747D01*
X113653454Y-89670653D01*
X113651490Y-89676395D01*
X113650071Y-89681318D01*
X113641210Y-89706079D01*
X113639283Y-89710543D01*
X113637052Y-89716498D01*
X113633815Y-89722848D01*
X113632084Y-89729760D01*
X113632058Y-89729863D01*
X113628484Y-89741644D01*
X113628480Y-89741660D01*
X113626097Y-89748320D01*
X113625255Y-89755342D01*
X113623868Y-89761225D01*
X113622937Y-89766272D01*
X113616543Y-89791797D01*
X113615050Y-89796465D01*
X113613421Y-89802584D01*
X113610824Y-89809215D01*
X113609779Y-89816260D01*
X113609778Y-89816264D01*
X113609762Y-89816371D01*
X113607367Y-89828412D01*
X113607362Y-89828446D01*
X113605642Y-89835314D01*
X113605493Y-89842384D01*
X113604689Y-89848374D01*
X113604258Y-89853488D01*
X113600397Y-89879520D01*
X113599374Y-89884290D01*
X113598350Y-89890551D01*
X113596413Y-89897413D01*
X113596063Y-89904532D01*
X113596058Y-89904636D01*
X113594852Y-89916886D01*
X113594851Y-89916907D01*
X113593814Y-89923902D01*
X113594358Y-89930950D01*
X113594145Y-89937012D01*
X113594217Y-89942117D01*
X113594041Y-89945698D01*
X113592926Y-89968395D01*
X113592376Y-89973244D01*
X113591970Y-89979581D01*
X113590715Y-89986602D01*
X112412419Y-89986602D01*
X112394233Y-89697538D01*
X112337445Y-89399846D01*
X112257461Y-89153682D01*
X112245020Y-89115392D01*
X112245020Y-89115391D01*
X112243794Y-89111619D01*
X112241182Y-89106067D01*
X112174165Y-88963649D01*
X112114758Y-88837402D01*
X111952370Y-88581520D01*
X111947900Y-88576116D01*
X111893930Y-88510879D01*
X111759192Y-88348008D01*
X111538271Y-88140550D01*
X111293090Y-87962416D01*
X111027517Y-87816415D01*
X111023848Y-87814962D01*
X111023843Y-87814960D01*
X110749409Y-87706304D01*
X110749408Y-87706304D01*
X110745739Y-87704851D01*
X110452200Y-87629484D01*
X110151530Y-87591500D01*
X109848470Y-87591500D01*
X109547800Y-87629484D01*
X109254261Y-87704851D01*
X109250592Y-87706304D01*
X109250591Y-87706304D01*
X108976157Y-87814960D01*
X108976152Y-87814962D01*
X108972483Y-87816415D01*
X108706910Y-87962416D01*
X108461729Y-88140550D01*
X108240808Y-88348008D01*
X108106070Y-88510879D01*
X108052101Y-88576116D01*
X108047630Y-88581520D01*
X107885242Y-88837402D01*
X107825835Y-88963649D01*
X107758819Y-89106067D01*
X107756206Y-89111619D01*
X107754980Y-89115391D01*
X107754980Y-89115392D01*
X107742539Y-89153682D01*
X107662555Y-89399846D01*
X107605767Y-89697538D01*
X107586738Y-90000000D01*
X107213265Y-90000000D01*
X107210217Y-89986531D01*
X107210224Y-89982562D01*
X107208000Y-89962656D01*
X107208000Y-78745150D01*
X108936482Y-78745150D01*
X108953852Y-78952004D01*
X109011069Y-79151545D01*
X109013887Y-79157027D01*
X109013888Y-79157031D01*
X109099956Y-79324501D01*
X109105955Y-79336173D01*
X109234894Y-79498854D01*
X109239581Y-79502843D01*
X109239584Y-79502846D01*
X109388284Y-79629399D01*
X109392976Y-79633392D01*
X109574180Y-79734664D01*
X109771603Y-79798810D01*
X109977725Y-79823389D01*
X109983860Y-79822917D01*
X109983862Y-79822917D01*
X110178555Y-79807936D01*
X110178560Y-79807935D01*
X110184696Y-79807463D01*
X110190626Y-79805807D01*
X110190628Y-79805807D01*
X110284664Y-79779551D01*
X110384632Y-79751640D01*
X110416648Y-79735468D01*
X110486468Y-79722606D01*
X110552159Y-79749535D01*
X110562553Y-79758838D01*
X110733734Y-79930019D01*
X110735659Y-79932249D01*
X110738041Y-79937122D01*
X110746566Y-79945030D01*
X110753505Y-79954373D01*
X110750501Y-79956604D01*
X110776287Y-79999884D01*
X110773882Y-80070840D01*
X110743353Y-80120362D01*
X110659120Y-80204595D01*
X110596808Y-80238621D01*
X110570025Y-80241500D01*
X109287717Y-80241501D01*
X109129464Y-80241501D01*
X109068647Y-80253597D01*
X109058330Y-80260490D01*
X109058329Y-80260491D01*
X109014065Y-80290068D01*
X108999680Y-80299680D01*
X108992789Y-80309993D01*
X108971082Y-80342480D01*
X108953597Y-80368647D01*
X108941500Y-80429463D01*
X108941501Y-82170536D01*
X108953597Y-82231353D01*
X108999680Y-82300320D01*
X109068647Y-82346403D01*
X109080816Y-82348824D01*
X109080817Y-82348824D01*
X109122519Y-82357119D01*
X109129463Y-82358500D01*
X109999859Y-82358500D01*
X110870536Y-82358499D01*
X110931353Y-82346403D01*
X110941670Y-82339510D01*
X110941671Y-82339509D01*
X110990007Y-82307211D01*
X111000320Y-82300320D01*
X111046403Y-82231353D01*
X111048825Y-82219180D01*
X111057293Y-82176605D01*
X111058500Y-82170537D01*
X111058499Y-80729976D01*
X111078501Y-80661855D01*
X111095404Y-80640881D01*
X111140880Y-80595405D01*
X111203192Y-80561379D01*
X111229975Y-80558500D01*
X128546500Y-80558500D01*
X128614621Y-80578502D01*
X128661114Y-80632158D01*
X128672500Y-80684500D01*
X128672500Y-80842480D01*
X128682799Y-80894257D01*
X128689694Y-80904576D01*
X128695266Y-80912915D01*
X128716500Y-80982916D01*
X128716500Y-83847846D01*
X128696498Y-83915967D01*
X128642842Y-83962460D01*
X128632262Y-83966723D01*
X128605231Y-83976216D01*
X128597656Y-83981811D01*
X128597654Y-83981812D01*
X128501900Y-84052537D01*
X128494329Y-84058129D01*
X128412416Y-84169031D01*
X128366734Y-84299115D01*
X128363700Y-84331212D01*
X128363700Y-85340788D01*
X128366734Y-85372885D01*
X128412416Y-85502969D01*
X128494329Y-85613871D01*
X128605231Y-85695784D01*
X128665048Y-85716790D01*
X128722694Y-85758233D01*
X128748782Y-85824263D01*
X128749300Y-85835673D01*
X128749300Y-86677670D01*
X128729298Y-86745791D01*
X128712395Y-86766765D01*
X128510575Y-86968585D01*
X128502471Y-86976012D01*
X128472783Y-87000923D01*
X128453409Y-87034480D01*
X128447512Y-87043737D01*
X128425284Y-87075482D01*
X128422431Y-87086130D01*
X128420804Y-87089619D01*
X128419490Y-87093231D01*
X128413978Y-87102777D01*
X128407483Y-87139615D01*
X128407251Y-87140928D01*
X128404872Y-87151659D01*
X128397697Y-87178435D01*
X128397697Y-87178439D01*
X128394844Y-87189085D01*
X128395805Y-87200066D01*
X128398221Y-87227686D01*
X128398700Y-87238667D01*
X128398700Y-88819569D01*
X128378698Y-88887690D01*
X128331076Y-88931230D01*
X128149800Y-89025999D01*
X127988023Y-89156071D01*
X127984065Y-89160788D01*
X127984063Y-89160790D01*
X127917816Y-89239740D01*
X127854591Y-89315089D01*
X127851627Y-89320481D01*
X127851624Y-89320485D01*
X127781560Y-89447931D01*
X127754587Y-89496995D01*
X127691821Y-89694861D01*
X127691135Y-89700978D01*
X127691134Y-89700982D01*
X127671110Y-89879504D01*
X127668682Y-89901150D01*
X127669198Y-89907294D01*
X127684991Y-90095365D01*
X127686052Y-90108004D01*
X127743269Y-90307545D01*
X127746087Y-90313027D01*
X127746088Y-90313031D01*
X127831196Y-90478633D01*
X127838155Y-90492173D01*
X127841986Y-90497007D01*
X127841987Y-90497008D01*
X127868882Y-90530941D01*
X127967094Y-90654854D01*
X127971781Y-90658843D01*
X127971784Y-90658846D01*
X128105734Y-90772846D01*
X128125176Y-90789392D01*
X128306380Y-90890664D01*
X128503803Y-90954810D01*
X128709925Y-90979389D01*
X128716060Y-90978917D01*
X128716062Y-90978917D01*
X128910755Y-90963936D01*
X128910760Y-90963935D01*
X128916896Y-90963463D01*
X128922826Y-90961807D01*
X128922828Y-90961807D01*
X129064902Y-90922139D01*
X129116832Y-90907640D01*
X129127780Y-90902110D01*
X129296616Y-90816825D01*
X129296618Y-90816824D01*
X129302117Y-90814046D01*
X129422058Y-90720338D01*
X129460834Y-90690043D01*
X129460835Y-90690042D01*
X129465695Y-90686245D01*
X129601333Y-90529106D01*
X129614725Y-90505533D01*
X129678645Y-90393013D01*
X129729684Y-90343662D01*
X129799302Y-90329740D01*
X129865396Y-90355666D01*
X129906981Y-90413209D01*
X129914201Y-90455250D01*
X129914201Y-90810669D01*
X129914571Y-90817490D01*
X129920095Y-90868352D01*
X129923721Y-90883604D01*
X129968876Y-91004054D01*
X129977414Y-91019649D01*
X130053915Y-91121724D01*
X130066476Y-91134285D01*
X130168551Y-91210786D01*
X130184146Y-91219324D01*
X130304594Y-91264478D01*
X130319849Y-91268105D01*
X130370714Y-91273631D01*
X130377528Y-91274000D01*
X131000085Y-91274000D01*
X131015324Y-91269525D01*
X131016529Y-91268135D01*
X131018200Y-91260452D01*
X131018200Y-91255884D01*
X131526200Y-91255884D01*
X131530675Y-91271123D01*
X131532065Y-91272328D01*
X131539748Y-91273999D01*
X132166869Y-91273999D01*
X132173690Y-91273629D01*
X132224552Y-91268105D01*
X132239804Y-91264479D01*
X132360254Y-91219324D01*
X132375849Y-91210786D01*
X132477924Y-91134285D01*
X132490485Y-91121724D01*
X132566986Y-91019649D01*
X132575524Y-91004054D01*
X132620678Y-90883606D01*
X132624305Y-90868351D01*
X132629831Y-90817486D01*
X132630200Y-90810672D01*
X132630200Y-90188115D01*
X132625725Y-90172876D01*
X132624335Y-90171671D01*
X132616652Y-90170000D01*
X131544315Y-90170000D01*
X131529076Y-90174475D01*
X131527871Y-90175865D01*
X131526200Y-90183548D01*
X131526200Y-91255884D01*
X131018200Y-91255884D01*
X131018200Y-90000000D01*
X147586738Y-90000000D01*
X147605767Y-90302462D01*
X147662555Y-90600154D01*
X147693535Y-90695501D01*
X147754655Y-90883606D01*
X147756206Y-90888381D01*
X147757893Y-90891967D01*
X147757895Y-90891971D01*
X147766654Y-90910584D01*
X147885242Y-91162598D01*
X148047630Y-91418480D01*
X148240808Y-91651992D01*
X148461729Y-91859450D01*
X148706910Y-92037584D01*
X148972483Y-92183585D01*
X148976152Y-92185038D01*
X148976157Y-92185040D01*
X149250591Y-92293696D01*
X149254261Y-92295149D01*
X149547800Y-92370516D01*
X149848470Y-92408500D01*
X150151530Y-92408500D01*
X150452200Y-92370516D01*
X150745739Y-92295149D01*
X150749409Y-92293696D01*
X151023843Y-92185040D01*
X151023848Y-92185038D01*
X151027517Y-92183585D01*
X151293090Y-92037584D01*
X151538271Y-91859450D01*
X151759192Y-91651992D01*
X151952370Y-91418480D01*
X152114758Y-91162598D01*
X152233346Y-90910584D01*
X152242105Y-90891971D01*
X152242107Y-90891967D01*
X152243794Y-90888381D01*
X152245346Y-90883606D01*
X152306465Y-90695501D01*
X152337445Y-90600154D01*
X152394233Y-90302462D01*
X152413262Y-90000000D01*
X152394233Y-89697538D01*
X152337445Y-89399846D01*
X152257461Y-89153682D01*
X152245020Y-89115392D01*
X152245020Y-89115391D01*
X152243794Y-89111619D01*
X152241182Y-89106067D01*
X152174165Y-88963649D01*
X152114758Y-88837402D01*
X151952370Y-88581520D01*
X151947900Y-88576116D01*
X151893930Y-88510879D01*
X151759192Y-88348008D01*
X151538271Y-88140550D01*
X151293090Y-87962416D01*
X151027517Y-87816415D01*
X151023848Y-87814962D01*
X151023843Y-87814960D01*
X150749409Y-87706304D01*
X150749408Y-87706304D01*
X150745739Y-87704851D01*
X150452200Y-87629484D01*
X150151530Y-87591500D01*
X149848470Y-87591500D01*
X149547800Y-87629484D01*
X149254261Y-87704851D01*
X149250592Y-87706304D01*
X149250591Y-87706304D01*
X148976157Y-87814960D01*
X148976152Y-87814962D01*
X148972483Y-87816415D01*
X148706910Y-87962416D01*
X148461729Y-88140550D01*
X148240808Y-88348008D01*
X148106070Y-88510879D01*
X148052101Y-88576116D01*
X148047630Y-88581520D01*
X147885242Y-88837402D01*
X147825835Y-88963649D01*
X147758819Y-89106067D01*
X147756206Y-89111619D01*
X147754980Y-89115391D01*
X147754980Y-89115392D01*
X147742539Y-89153682D01*
X147662555Y-89399846D01*
X147605767Y-89697538D01*
X147586738Y-90000000D01*
X131018200Y-90000000D01*
X131018200Y-89643885D01*
X131526200Y-89643885D01*
X131530675Y-89659124D01*
X131532065Y-89660329D01*
X131539748Y-89662000D01*
X132612084Y-89662000D01*
X132627323Y-89657525D01*
X132628528Y-89656135D01*
X132630199Y-89648452D01*
X132630199Y-89021331D01*
X132629829Y-89014510D01*
X132624305Y-88963648D01*
X132620679Y-88948396D01*
X132575524Y-88827946D01*
X132566986Y-88812351D01*
X132490485Y-88710276D01*
X132477924Y-88697715D01*
X132375849Y-88621214D01*
X132360254Y-88612676D01*
X132239806Y-88567522D01*
X132224551Y-88563895D01*
X132173686Y-88558369D01*
X132166872Y-88558000D01*
X131544315Y-88558000D01*
X131529076Y-88562475D01*
X131527871Y-88563865D01*
X131526200Y-88571548D01*
X131526200Y-89643885D01*
X131018200Y-89643885D01*
X131018200Y-88576116D01*
X131013725Y-88560877D01*
X131012335Y-88559672D01*
X131004652Y-88558001D01*
X130377531Y-88558001D01*
X130370710Y-88558371D01*
X130319848Y-88563895D01*
X130304596Y-88567521D01*
X130184146Y-88612676D01*
X130168551Y-88621214D01*
X130066476Y-88697715D01*
X130053915Y-88710276D01*
X129977414Y-88812351D01*
X129968876Y-88827946D01*
X129923722Y-88948394D01*
X129920095Y-88963649D01*
X129914569Y-89014514D01*
X129914200Y-89021328D01*
X129914200Y-89378900D01*
X129894198Y-89447021D01*
X129840542Y-89493514D01*
X129770268Y-89503618D01*
X129705688Y-89474124D01*
X129676949Y-89438054D01*
X129621009Y-89332847D01*
X129621008Y-89332845D01*
X129618113Y-89327401D01*
X129543106Y-89235433D01*
X129490810Y-89171311D01*
X129490807Y-89171308D01*
X129486915Y-89166536D01*
X129480780Y-89161460D01*
X129331718Y-89038145D01*
X129331719Y-89038145D01*
X129326970Y-89034217D01*
X129321553Y-89031288D01*
X129321550Y-89031286D01*
X129149791Y-88938417D01*
X129149790Y-88938417D01*
X129144370Y-88935486D01*
X129141909Y-88934724D01*
X129087825Y-88890670D01*
X129065700Y-88819354D01*
X129065700Y-87408930D01*
X129085702Y-87340809D01*
X129102605Y-87319835D01*
X129304425Y-87118015D01*
X129312529Y-87110588D01*
X129333772Y-87092763D01*
X129342217Y-87085677D01*
X129361593Y-87052116D01*
X129367488Y-87042863D01*
X129389716Y-87011118D01*
X129392569Y-87000470D01*
X129394196Y-86996981D01*
X129395510Y-86993369D01*
X129401022Y-86983823D01*
X129407749Y-86945672D01*
X129410128Y-86934941D01*
X129417303Y-86908165D01*
X129417303Y-86908161D01*
X129420156Y-86897515D01*
X129416779Y-86858914D01*
X129416300Y-86847933D01*
X129416300Y-85837008D01*
X129436302Y-85768887D01*
X129489958Y-85722394D01*
X129500551Y-85718126D01*
X129555280Y-85698906D01*
X129555284Y-85698904D01*
X129564169Y-85695784D01*
X129675071Y-85613871D01*
X129756984Y-85502969D01*
X129802666Y-85372885D01*
X129805700Y-85340788D01*
X129805700Y-84331212D01*
X129802666Y-84299115D01*
X129756984Y-84169031D01*
X129675071Y-84058129D01*
X129667500Y-84052537D01*
X129571743Y-83981810D01*
X129571742Y-83981809D01*
X129564169Y-83976216D01*
X129467752Y-83942357D01*
X129410106Y-83900914D01*
X129384018Y-83834884D01*
X129383500Y-83823474D01*
X129383500Y-80982916D01*
X129404734Y-80912915D01*
X129410306Y-80904576D01*
X129417201Y-80894257D01*
X129427500Y-80842480D01*
X129427500Y-80657520D01*
X129417201Y-80605743D01*
X129410307Y-80595426D01*
X129410306Y-80595423D01*
X129393320Y-80570003D01*
X129372104Y-80502251D01*
X129393320Y-80429997D01*
X129410306Y-80404577D01*
X129410307Y-80404574D01*
X129417201Y-80394257D01*
X129427500Y-80342480D01*
X129427500Y-80157520D01*
X129417201Y-80105743D01*
X129410307Y-80095426D01*
X129410306Y-80095423D01*
X129393320Y-80070003D01*
X129372104Y-80002251D01*
X129393320Y-79929997D01*
X129410306Y-79904577D01*
X129410307Y-79904574D01*
X129417201Y-79894257D01*
X129427500Y-79842480D01*
X129427500Y-79657520D01*
X129417201Y-79605743D01*
X129410307Y-79595426D01*
X129410306Y-79595423D01*
X129393320Y-79570003D01*
X129372104Y-79502251D01*
X129393320Y-79429997D01*
X129410306Y-79404577D01*
X129410307Y-79404574D01*
X129417201Y-79394257D01*
X129427500Y-79342480D01*
X129427500Y-79157520D01*
X129417201Y-79105743D01*
X129404734Y-79087085D01*
X129383500Y-79017084D01*
X129383500Y-78290330D01*
X129403502Y-78222209D01*
X129420405Y-78201235D01*
X129571625Y-78050015D01*
X129579729Y-78042588D01*
X129600972Y-78024763D01*
X129609417Y-78017677D01*
X129628793Y-77984116D01*
X129634688Y-77974863D01*
X129656916Y-77943118D01*
X129659769Y-77932470D01*
X129661396Y-77928981D01*
X129662710Y-77925369D01*
X129668222Y-77915823D01*
X129674949Y-77877672D01*
X129677328Y-77866941D01*
X129684503Y-77840165D01*
X129684503Y-77840161D01*
X129687356Y-77829515D01*
X129683979Y-77790914D01*
X129683500Y-77779933D01*
X129683500Y-76188585D01*
X129703502Y-76120464D01*
X129757158Y-76073971D01*
X129809500Y-76062585D01*
X129850000Y-76062585D01*
X129858079Y-76060978D01*
X129919178Y-76048825D01*
X129919179Y-76048825D01*
X129931353Y-76046403D01*
X129941674Y-76039506D01*
X129951781Y-76035320D01*
X130022371Y-76027731D01*
X130048219Y-76035320D01*
X130058326Y-76039506D01*
X130068647Y-76046403D01*
X130080821Y-76048825D01*
X130080822Y-76048825D01*
X130141921Y-76060978D01*
X130150000Y-76062585D01*
X130190500Y-76062585D01*
X130258621Y-76082587D01*
X130305114Y-76136243D01*
X130316500Y-76188585D01*
X130316500Y-77779947D01*
X130316021Y-77790914D01*
X130312644Y-77829515D01*
X130315497Y-77840161D01*
X130315497Y-77840165D01*
X130322672Y-77866941D01*
X130325051Y-77877672D01*
X130331778Y-77915823D01*
X130337290Y-77925369D01*
X130338604Y-77928981D01*
X130340231Y-77932470D01*
X130343084Y-77943118D01*
X130365312Y-77974863D01*
X130371207Y-77984116D01*
X130390583Y-78017677D01*
X130399028Y-78024763D01*
X130420272Y-78042589D01*
X130428376Y-78050016D01*
X130579595Y-78201235D01*
X130613621Y-78263547D01*
X130616500Y-78290330D01*
X130616500Y-79017084D01*
X130595266Y-79087085D01*
X130582799Y-79105743D01*
X130572500Y-79157520D01*
X130572500Y-79342480D01*
X130582799Y-79394257D01*
X130589693Y-79404574D01*
X130589694Y-79404577D01*
X130606680Y-79429997D01*
X130627896Y-79497749D01*
X130606680Y-79570003D01*
X130589694Y-79595423D01*
X130589693Y-79595426D01*
X130582799Y-79605743D01*
X130572500Y-79657520D01*
X130572500Y-79842480D01*
X130582799Y-79894257D01*
X130589693Y-79904574D01*
X130589694Y-79904577D01*
X130606680Y-79929997D01*
X130627896Y-79997749D01*
X130606680Y-80070003D01*
X130589694Y-80095423D01*
X130589693Y-80095426D01*
X130582799Y-80105743D01*
X130572500Y-80157520D01*
X130572500Y-80342480D01*
X130582799Y-80394257D01*
X130589693Y-80404574D01*
X130589694Y-80404577D01*
X130606680Y-80429997D01*
X130627896Y-80497749D01*
X130606680Y-80570003D01*
X130589694Y-80595423D01*
X130589693Y-80595426D01*
X130582799Y-80605743D01*
X130572500Y-80657520D01*
X130572500Y-80842480D01*
X130582799Y-80894257D01*
X130622030Y-80952970D01*
X130680743Y-80992201D01*
X130692915Y-80994622D01*
X130693689Y-80994776D01*
X130696252Y-80996004D01*
X130704380Y-80999371D01*
X130704197Y-80999812D01*
X130730571Y-81012451D01*
X130732323Y-81009417D01*
X130834177Y-81068222D01*
X130920822Y-81083500D01*
X133979947Y-81083500D01*
X133990929Y-81083980D01*
X134018530Y-81086395D01*
X134018531Y-81086395D01*
X134029515Y-81087356D01*
X134040161Y-81084503D01*
X134040165Y-81084503D01*
X134066941Y-81077328D01*
X134077672Y-81074949D01*
X134078985Y-81074717D01*
X134115823Y-81068222D01*
X134125369Y-81062710D01*
X134128981Y-81061396D01*
X134132470Y-81059769D01*
X134143118Y-81056916D01*
X134174863Y-81034688D01*
X134184120Y-81028791D01*
X134217677Y-81009417D01*
X134242590Y-80979727D01*
X134250016Y-80971624D01*
X135721625Y-79500015D01*
X135729729Y-79492588D01*
X135750972Y-79474763D01*
X135759417Y-79467677D01*
X135778793Y-79434116D01*
X135784688Y-79424863D01*
X135806916Y-79393118D01*
X135809769Y-79382470D01*
X135811396Y-79378981D01*
X135812710Y-79375369D01*
X135818222Y-79365823D01*
X135824949Y-79327672D01*
X135827328Y-79316941D01*
X135834503Y-79290165D01*
X135834503Y-79290161D01*
X135837356Y-79279515D01*
X135833979Y-79240914D01*
X135833500Y-79229933D01*
X135833500Y-73520067D01*
X135833979Y-73509086D01*
X135836395Y-73481466D01*
X135837356Y-73470485D01*
X135834503Y-73459839D01*
X135834503Y-73459835D01*
X135827328Y-73433059D01*
X135824949Y-73422328D01*
X135823739Y-73415468D01*
X135818222Y-73384177D01*
X135812710Y-73374631D01*
X135811396Y-73371019D01*
X135809769Y-73367530D01*
X135806916Y-73356882D01*
X135784688Y-73325137D01*
X135778791Y-73315880D01*
X135759417Y-73282323D01*
X135729727Y-73257410D01*
X135721624Y-73249984D01*
X134180405Y-71708765D01*
X134146379Y-71646453D01*
X134143500Y-71619670D01*
X134143500Y-71094984D01*
X134163502Y-71026863D01*
X134212689Y-70982519D01*
X134296000Y-70940436D01*
X134374416Y-70900825D01*
X134374418Y-70900824D01*
X134379917Y-70898046D01*
X134543495Y-70770245D01*
X134679133Y-70613106D01*
X134756445Y-70477013D01*
X134807484Y-70427662D01*
X134877102Y-70413740D01*
X134943196Y-70439666D01*
X134984781Y-70497209D01*
X134992001Y-70539250D01*
X134992001Y-70894669D01*
X134992371Y-70901490D01*
X134997895Y-70952352D01*
X135001521Y-70967604D01*
X135046676Y-71088054D01*
X135055214Y-71103649D01*
X135131715Y-71205724D01*
X135144276Y-71218285D01*
X135246351Y-71294786D01*
X135261946Y-71303324D01*
X135382394Y-71348478D01*
X135397649Y-71352105D01*
X135448514Y-71357631D01*
X135455328Y-71358000D01*
X136077885Y-71358000D01*
X136093124Y-71353525D01*
X136094329Y-71352135D01*
X136096000Y-71344452D01*
X136096000Y-71339884D01*
X136604000Y-71339884D01*
X136608475Y-71355123D01*
X136609865Y-71356328D01*
X136617548Y-71357999D01*
X137244669Y-71357999D01*
X137251490Y-71357629D01*
X137302352Y-71352105D01*
X137317604Y-71348479D01*
X137438054Y-71303324D01*
X137453649Y-71294786D01*
X137555724Y-71218285D01*
X137568285Y-71205724D01*
X137644786Y-71103649D01*
X137653324Y-71088054D01*
X137698478Y-70967606D01*
X137702105Y-70952351D01*
X137707631Y-70901486D01*
X137708000Y-70894672D01*
X137708000Y-70272115D01*
X137703525Y-70256876D01*
X137702135Y-70255671D01*
X137694452Y-70254000D01*
X136622115Y-70254000D01*
X136606876Y-70258475D01*
X136605671Y-70259865D01*
X136604000Y-70267548D01*
X136604000Y-71339884D01*
X136096000Y-71339884D01*
X136096000Y-70000000D01*
X147586738Y-70000000D01*
X147605767Y-70302462D01*
X147662555Y-70600154D01*
X147756206Y-70888381D01*
X147757893Y-70891967D01*
X147757895Y-70891971D01*
X147786308Y-70952351D01*
X147885242Y-71162598D01*
X148047630Y-71418480D01*
X148240808Y-71651992D01*
X148461729Y-71859450D01*
X148464931Y-71861777D01*
X148464933Y-71861778D01*
X148499567Y-71886941D01*
X148706910Y-72037584D01*
X148710379Y-72039491D01*
X148710382Y-72039493D01*
X148969014Y-72181678D01*
X148972483Y-72183585D01*
X148976152Y-72185038D01*
X148976157Y-72185040D01*
X149250591Y-72293696D01*
X149254261Y-72295149D01*
X149547800Y-72370516D01*
X149848470Y-72408500D01*
X150151530Y-72408500D01*
X150452200Y-72370516D01*
X150745739Y-72295149D01*
X150749409Y-72293696D01*
X151023843Y-72185040D01*
X151023848Y-72185038D01*
X151027517Y-72183585D01*
X151030986Y-72181678D01*
X151289618Y-72039493D01*
X151289621Y-72039491D01*
X151293090Y-72037584D01*
X151500433Y-71886941D01*
X151535067Y-71861778D01*
X151535069Y-71861777D01*
X151538271Y-71859450D01*
X151759192Y-71651992D01*
X151952370Y-71418480D01*
X152114758Y-71162598D01*
X152213692Y-70952351D01*
X152242105Y-70891971D01*
X152242107Y-70891967D01*
X152243794Y-70888381D01*
X152337445Y-70600154D01*
X152394233Y-70302462D01*
X152413262Y-70000000D01*
X152394233Y-69697538D01*
X152337445Y-69399846D01*
X152243794Y-69111619D01*
X152237628Y-69098514D01*
X152169935Y-68954659D01*
X152114758Y-68837402D01*
X151952370Y-68581520D01*
X151759192Y-68348008D01*
X151538271Y-68140550D01*
X151293090Y-67962416D01*
X151027517Y-67816415D01*
X151023848Y-67814962D01*
X151023843Y-67814960D01*
X150749409Y-67706304D01*
X150749408Y-67706304D01*
X150745739Y-67704851D01*
X150452200Y-67629484D01*
X150151530Y-67591500D01*
X149848470Y-67591500D01*
X149547800Y-67629484D01*
X149254261Y-67704851D01*
X149250592Y-67706304D01*
X149250591Y-67706304D01*
X148976157Y-67814960D01*
X148976152Y-67814962D01*
X148972483Y-67816415D01*
X148706910Y-67962416D01*
X148461729Y-68140550D01*
X148240808Y-68348008D01*
X148047630Y-68581520D01*
X147885242Y-68837402D01*
X147830065Y-68954659D01*
X147762373Y-69098514D01*
X147756206Y-69111619D01*
X147662555Y-69399846D01*
X147605767Y-69697538D01*
X147586738Y-70000000D01*
X136096000Y-70000000D01*
X136096000Y-69727885D01*
X136604000Y-69727885D01*
X136608475Y-69743124D01*
X136609865Y-69744329D01*
X136617548Y-69746000D01*
X137689884Y-69746000D01*
X137705123Y-69741525D01*
X137706328Y-69740135D01*
X137707999Y-69732452D01*
X137707999Y-69105331D01*
X137707629Y-69098510D01*
X137702105Y-69047648D01*
X137698479Y-69032396D01*
X137653324Y-68911946D01*
X137644786Y-68896351D01*
X137568285Y-68794276D01*
X137555724Y-68781715D01*
X137453649Y-68705214D01*
X137438054Y-68696676D01*
X137317606Y-68651522D01*
X137302351Y-68647895D01*
X137251486Y-68642369D01*
X137244672Y-68642000D01*
X136622115Y-68642000D01*
X136606876Y-68646475D01*
X136605671Y-68647865D01*
X136604000Y-68655548D01*
X136604000Y-69727885D01*
X136096000Y-69727885D01*
X136096000Y-68660116D01*
X136091525Y-68644877D01*
X136090135Y-68643672D01*
X136082452Y-68642001D01*
X135455331Y-68642001D01*
X135448510Y-68642371D01*
X135397648Y-68647895D01*
X135382396Y-68651521D01*
X135261946Y-68696676D01*
X135246351Y-68705214D01*
X135144276Y-68781715D01*
X135131715Y-68794276D01*
X135055214Y-68896351D01*
X135046676Y-68911946D01*
X135001522Y-69032394D01*
X134997895Y-69047649D01*
X134992369Y-69098514D01*
X134992000Y-69105328D01*
X134992000Y-69462900D01*
X134971998Y-69531021D01*
X134918342Y-69577514D01*
X134848068Y-69587618D01*
X134783488Y-69558124D01*
X134754749Y-69522054D01*
X134698809Y-69416847D01*
X134698808Y-69416845D01*
X134695913Y-69411401D01*
X134631240Y-69332104D01*
X134568610Y-69255311D01*
X134568607Y-69255308D01*
X134564715Y-69250536D01*
X134557770Y-69244790D01*
X134409518Y-69122145D01*
X134409519Y-69122145D01*
X134404770Y-69118217D01*
X134399353Y-69115288D01*
X134399350Y-69115286D01*
X134227590Y-69022416D01*
X134227585Y-69022414D01*
X134222170Y-69019486D01*
X134023871Y-68958102D01*
X134017746Y-68957458D01*
X134017745Y-68957458D01*
X133823554Y-68937048D01*
X133823552Y-68937048D01*
X133817425Y-68936404D01*
X133731515Y-68944223D01*
X133616836Y-68954659D01*
X133616833Y-68954660D01*
X133610697Y-68955218D01*
X133604791Y-68956956D01*
X133604787Y-68956957D01*
X133456932Y-69000473D01*
X133411560Y-69013827D01*
X133227600Y-69109999D01*
X133065823Y-69240071D01*
X133061865Y-69244788D01*
X133061863Y-69244790D01*
X133057042Y-69250536D01*
X132932391Y-69399089D01*
X132929427Y-69404481D01*
X132929424Y-69404485D01*
X132844960Y-69558124D01*
X132832387Y-69580995D01*
X132769621Y-69778861D01*
X132768935Y-69784978D01*
X132768934Y-69784982D01*
X132747918Y-69972344D01*
X132746482Y-69985150D01*
X132763852Y-70192004D01*
X132821069Y-70391545D01*
X132823887Y-70397027D01*
X132823888Y-70397031D01*
X132875373Y-70497209D01*
X132915955Y-70576173D01*
X133044894Y-70738854D01*
X133049581Y-70742843D01*
X133049584Y-70742846D01*
X133081778Y-70770245D01*
X133202976Y-70873392D01*
X133384180Y-70974664D01*
X133390045Y-70976570D01*
X133395686Y-70979034D01*
X133395143Y-70980276D01*
X133448036Y-71016437D01*
X133475678Y-71081831D01*
X133476500Y-71096204D01*
X133476500Y-71789947D01*
X133476020Y-71800929D01*
X133472644Y-71839515D01*
X133475497Y-71850161D01*
X133475497Y-71850165D01*
X133482672Y-71876941D01*
X133485051Y-71887672D01*
X133491778Y-71925823D01*
X133497290Y-71935369D01*
X133498604Y-71938981D01*
X133500231Y-71942470D01*
X133503084Y-71953118D01*
X133509406Y-71962146D01*
X133509406Y-71962147D01*
X133513667Y-71968232D01*
X133536353Y-72035506D01*
X133519066Y-72104366D01*
X133467296Y-72152949D01*
X133410452Y-72166500D01*
X132140330Y-72166500D01*
X132072209Y-72146498D01*
X132051235Y-72129595D01*
X131640405Y-71718765D01*
X131606379Y-71656453D01*
X131603500Y-71629670D01*
X131603500Y-71094984D01*
X131623502Y-71026863D01*
X131672689Y-70982519D01*
X131756000Y-70940436D01*
X131834416Y-70900825D01*
X131834418Y-70900824D01*
X131839917Y-70898046D01*
X132003495Y-70770245D01*
X132139133Y-70613106D01*
X132241667Y-70432614D01*
X132307190Y-70235644D01*
X132333207Y-70029698D01*
X132333622Y-70000000D01*
X132313365Y-69793408D01*
X132253368Y-69594685D01*
X132250472Y-69589238D01*
X132158809Y-69416847D01*
X132158808Y-69416845D01*
X132155913Y-69411401D01*
X132091240Y-69332104D01*
X132028610Y-69255311D01*
X132028607Y-69255308D01*
X132024715Y-69250536D01*
X132017770Y-69244790D01*
X131869518Y-69122145D01*
X131869519Y-69122145D01*
X131864770Y-69118217D01*
X131859353Y-69115288D01*
X131859350Y-69115286D01*
X131687590Y-69022416D01*
X131687585Y-69022414D01*
X131682170Y-69019486D01*
X131483871Y-68958102D01*
X131477746Y-68957458D01*
X131477745Y-68957458D01*
X131283554Y-68937048D01*
X131283552Y-68937048D01*
X131277425Y-68936404D01*
X131191515Y-68944223D01*
X131076836Y-68954659D01*
X131076833Y-68954660D01*
X131070697Y-68955218D01*
X131064791Y-68956956D01*
X131064787Y-68956957D01*
X130916932Y-69000473D01*
X130871560Y-69013827D01*
X130687600Y-69109999D01*
X130525823Y-69240071D01*
X130521865Y-69244788D01*
X130521863Y-69244790D01*
X130517042Y-69250536D01*
X130392391Y-69399089D01*
X130389427Y-69404481D01*
X130389424Y-69404485D01*
X130304960Y-69558124D01*
X130292387Y-69580995D01*
X130229621Y-69778861D01*
X130228935Y-69784978D01*
X130228934Y-69784982D01*
X130207918Y-69972344D01*
X130206482Y-69985150D01*
X130223852Y-70192004D01*
X130281069Y-70391545D01*
X130283887Y-70397027D01*
X130283888Y-70397031D01*
X130335373Y-70497209D01*
X130375955Y-70576173D01*
X130504894Y-70738854D01*
X130509581Y-70742843D01*
X130509584Y-70742846D01*
X130541778Y-70770245D01*
X130662976Y-70873392D01*
X130844180Y-70974664D01*
X130850045Y-70976570D01*
X130855686Y-70979034D01*
X130855143Y-70980276D01*
X130908036Y-71016437D01*
X130935678Y-71081831D01*
X130936500Y-71096204D01*
X130936500Y-71799947D01*
X130936020Y-71810929D01*
X130932644Y-71849515D01*
X130935497Y-71860161D01*
X130935497Y-71860165D01*
X130942672Y-71886941D01*
X130945051Y-71897672D01*
X130951778Y-71935823D01*
X130957290Y-71945369D01*
X130958604Y-71948981D01*
X130960231Y-71952470D01*
X130963084Y-71963118D01*
X130985312Y-71994863D01*
X130991207Y-72004116D01*
X131010583Y-72037677D01*
X131040272Y-72062589D01*
X131048376Y-72070016D01*
X131429765Y-72451405D01*
X131463791Y-72513717D01*
X131458726Y-72584532D01*
X131416179Y-72641368D01*
X131349659Y-72666179D01*
X131340670Y-72666500D01*
X130090330Y-72666500D01*
X130022209Y-72646498D01*
X130001235Y-72629595D01*
X129100405Y-71728765D01*
X129066379Y-71666453D01*
X129063500Y-71639670D01*
X129063500Y-71094984D01*
X129083502Y-71026863D01*
X129132689Y-70982519D01*
X129216000Y-70940436D01*
X129294416Y-70900825D01*
X129294418Y-70900824D01*
X129299917Y-70898046D01*
X129463495Y-70770245D01*
X129599133Y-70613106D01*
X129701667Y-70432614D01*
X129767190Y-70235644D01*
X129793207Y-70029698D01*
X129793622Y-70000000D01*
X129773365Y-69793408D01*
X129713368Y-69594685D01*
X129710472Y-69589238D01*
X129618809Y-69416847D01*
X129618808Y-69416845D01*
X129615913Y-69411401D01*
X129551240Y-69332104D01*
X129488610Y-69255311D01*
X129488607Y-69255308D01*
X129484715Y-69250536D01*
X129477770Y-69244790D01*
X129329518Y-69122145D01*
X129329519Y-69122145D01*
X129324770Y-69118217D01*
X129319353Y-69115288D01*
X129319350Y-69115286D01*
X129147590Y-69022416D01*
X129147585Y-69022414D01*
X129142170Y-69019486D01*
X128943871Y-68958102D01*
X128937746Y-68957458D01*
X128937745Y-68957458D01*
X128743554Y-68937048D01*
X128743552Y-68937048D01*
X128737425Y-68936404D01*
X128651515Y-68944223D01*
X128536836Y-68954659D01*
X128536833Y-68954660D01*
X128530697Y-68955218D01*
X128524791Y-68956956D01*
X128524787Y-68956957D01*
X128376932Y-69000473D01*
X128331560Y-69013827D01*
X128147600Y-69109999D01*
X127985823Y-69240071D01*
X127981865Y-69244788D01*
X127981863Y-69244790D01*
X127977042Y-69250536D01*
X127852391Y-69399089D01*
X127849427Y-69404481D01*
X127849424Y-69404485D01*
X127764960Y-69558124D01*
X127752387Y-69580995D01*
X127689621Y-69778861D01*
X127688935Y-69784978D01*
X127688934Y-69784982D01*
X127667918Y-69972344D01*
X127666482Y-69985150D01*
X127683852Y-70192004D01*
X127741069Y-70391545D01*
X127743887Y-70397027D01*
X127743888Y-70397031D01*
X127795373Y-70497209D01*
X127835955Y-70576173D01*
X127964894Y-70738854D01*
X127969581Y-70742843D01*
X127969584Y-70742846D01*
X128001778Y-70770245D01*
X128122976Y-70873392D01*
X128304180Y-70974664D01*
X128310045Y-70976570D01*
X128315686Y-70979034D01*
X128315143Y-70980276D01*
X128368036Y-71016437D01*
X128395678Y-71081831D01*
X128396500Y-71096204D01*
X128396500Y-71809947D01*
X128396020Y-71820929D01*
X128392644Y-71859515D01*
X128395497Y-71870161D01*
X128395497Y-71870165D01*
X128402672Y-71896941D01*
X128405051Y-71907672D01*
X128411778Y-71945823D01*
X128417290Y-71955369D01*
X128418604Y-71958981D01*
X128420231Y-71962470D01*
X128423084Y-71973118D01*
X128445312Y-72004863D01*
X128451207Y-72014116D01*
X128470583Y-72047677D01*
X128497206Y-72070016D01*
X128500272Y-72072589D01*
X128508376Y-72080016D01*
X129379765Y-72951405D01*
X129413791Y-73013717D01*
X129408726Y-73084532D01*
X129366179Y-73141368D01*
X129299659Y-73166179D01*
X129290670Y-73166500D01*
X128080330Y-73166500D01*
X128012209Y-73146498D01*
X127991235Y-73129595D01*
X126560405Y-71698765D01*
X126526379Y-71636453D01*
X126523500Y-71609670D01*
X126523500Y-71094984D01*
X126543502Y-71026863D01*
X126592689Y-70982519D01*
X126676000Y-70940436D01*
X126754416Y-70900825D01*
X126754418Y-70900824D01*
X126759917Y-70898046D01*
X126923495Y-70770245D01*
X127059133Y-70613106D01*
X127161667Y-70432614D01*
X127227190Y-70235644D01*
X127253207Y-70029698D01*
X127253622Y-70000000D01*
X127233365Y-69793408D01*
X127173368Y-69594685D01*
X127170472Y-69589238D01*
X127078809Y-69416847D01*
X127078808Y-69416845D01*
X127075913Y-69411401D01*
X127011240Y-69332104D01*
X126948610Y-69255311D01*
X126948607Y-69255308D01*
X126944715Y-69250536D01*
X126937770Y-69244790D01*
X126789518Y-69122145D01*
X126789519Y-69122145D01*
X126784770Y-69118217D01*
X126779353Y-69115288D01*
X126779350Y-69115286D01*
X126607590Y-69022416D01*
X126607585Y-69022414D01*
X126602170Y-69019486D01*
X126403871Y-68958102D01*
X126397746Y-68957458D01*
X126397745Y-68957458D01*
X126203554Y-68937048D01*
X126203552Y-68937048D01*
X126197425Y-68936404D01*
X126111515Y-68944223D01*
X125996836Y-68954659D01*
X125996833Y-68954660D01*
X125990697Y-68955218D01*
X125984791Y-68956956D01*
X125984787Y-68956957D01*
X125836932Y-69000473D01*
X125791560Y-69013827D01*
X125607600Y-69109999D01*
X125445823Y-69240071D01*
X125441865Y-69244788D01*
X125441863Y-69244790D01*
X125437042Y-69250536D01*
X125312391Y-69399089D01*
X125309427Y-69404481D01*
X125309424Y-69404485D01*
X125224960Y-69558124D01*
X125212387Y-69580995D01*
X125149621Y-69778861D01*
X125148935Y-69784978D01*
X125148934Y-69784982D01*
X125127918Y-69972344D01*
X125126482Y-69985150D01*
X125143852Y-70192004D01*
X125201069Y-70391545D01*
X125203887Y-70397027D01*
X125203888Y-70397031D01*
X125255373Y-70497209D01*
X125295955Y-70576173D01*
X125424894Y-70738854D01*
X125429581Y-70742843D01*
X125429584Y-70742846D01*
X125461778Y-70770245D01*
X125582976Y-70873392D01*
X125764180Y-70974664D01*
X125770045Y-70976570D01*
X125775686Y-70979034D01*
X125775143Y-70980276D01*
X125828036Y-71016437D01*
X125855678Y-71081831D01*
X125856500Y-71096204D01*
X125856500Y-71779947D01*
X125856020Y-71790929D01*
X125852644Y-71829515D01*
X125855497Y-71840161D01*
X125855497Y-71840165D01*
X125862672Y-71866941D01*
X125865051Y-71877672D01*
X125871778Y-71915823D01*
X125877290Y-71925369D01*
X125878604Y-71928981D01*
X125880231Y-71932470D01*
X125883084Y-71943118D01*
X125905312Y-71974863D01*
X125911207Y-71984116D01*
X125930583Y-72017677D01*
X125939028Y-72024763D01*
X125960272Y-72042589D01*
X125968376Y-72050016D01*
X127639985Y-73721625D01*
X127647412Y-73729729D01*
X127672323Y-73759417D01*
X127705880Y-73778791D01*
X127715137Y-73784688D01*
X127746882Y-73806916D01*
X127757530Y-73809769D01*
X127761019Y-73811396D01*
X127764631Y-73812710D01*
X127774177Y-73818222D01*
X127811015Y-73824717D01*
X127812328Y-73824949D01*
X127823059Y-73827328D01*
X127849835Y-73834503D01*
X127849839Y-73834503D01*
X127860485Y-73837356D01*
X127899086Y-73833979D01*
X127910067Y-73833500D01*
X131959670Y-73833500D01*
X132027791Y-73853502D01*
X132048765Y-73870405D01*
X132396246Y-74217886D01*
X132430272Y-74280198D01*
X132425207Y-74351013D01*
X132382660Y-74407849D01*
X132348900Y-74425863D01*
X132316920Y-74437094D01*
X132316918Y-74437095D01*
X132308031Y-74440216D01*
X132197129Y-74522129D01*
X132191537Y-74529700D01*
X132139843Y-74599689D01*
X132115216Y-74633031D01*
X132112096Y-74641916D01*
X132112094Y-74641920D01*
X132097931Y-74682249D01*
X132056488Y-74739894D01*
X131990458Y-74765982D01*
X131979049Y-74766500D01*
X131465274Y-74766500D01*
X131397153Y-74746498D01*
X131350660Y-74692842D01*
X131343916Y-74674385D01*
X131332320Y-74632853D01*
X131332319Y-74632851D01*
X131331115Y-74628538D01*
X131273432Y-74497445D01*
X131271062Y-74493637D01*
X131243957Y-74450091D01*
X131243954Y-74450087D01*
X131241582Y-74446276D01*
X131238697Y-74442844D01*
X131238692Y-74442837D01*
X131152309Y-74340072D01*
X131149425Y-74336641D01*
X131133054Y-74322003D01*
X131107824Y-74299445D01*
X131107823Y-74299445D01*
X131104491Y-74296465D01*
X131100770Y-74293988D01*
X131100766Y-74293985D01*
X130988995Y-74219584D01*
X130988993Y-74219583D01*
X130985266Y-74217102D01*
X130960401Y-74205242D01*
X130934908Y-74193082D01*
X130934904Y-74193080D01*
X130930863Y-74191153D01*
X130926584Y-74189816D01*
X130926581Y-74189815D01*
X130798444Y-74149782D01*
X130798439Y-74149781D01*
X130794157Y-74148443D01*
X130734659Y-74138807D01*
X130607596Y-74136478D01*
X130595934Y-74136264D01*
X130591460Y-74136182D01*
X130587018Y-74136735D01*
X130582538Y-74136972D01*
X130582533Y-74136870D01*
X130573744Y-74137415D01*
X130150000Y-74137415D01*
X130143932Y-74138622D01*
X130080822Y-74151175D01*
X130080821Y-74151175D01*
X130068647Y-74153597D01*
X130058326Y-74160494D01*
X130048219Y-74164680D01*
X129977629Y-74172269D01*
X129951781Y-74164680D01*
X129941674Y-74160494D01*
X129931353Y-74153597D01*
X129919179Y-74151175D01*
X129919178Y-74151175D01*
X129856068Y-74138622D01*
X129850000Y-74137415D01*
X129359885Y-74137415D01*
X129357576Y-74137394D01*
X129334556Y-74136972D01*
X129291460Y-74136182D01*
X129231646Y-74143632D01*
X129227323Y-74144811D01*
X129227321Y-74144811D01*
X129203979Y-74151175D01*
X129093466Y-74181305D01*
X129089366Y-74183079D01*
X129089361Y-74183081D01*
X129042266Y-74203461D01*
X129042263Y-74203463D01*
X129038151Y-74205242D01*
X128916099Y-74280182D01*
X128912651Y-74283045D01*
X128912649Y-74283046D01*
X128884182Y-74306680D01*
X128869724Y-74318683D01*
X128773610Y-74424867D01*
X128739904Y-74474838D01*
X128677457Y-74603730D01*
X128659132Y-74661150D01*
X128658389Y-74665567D01*
X128657331Y-74669931D01*
X128655224Y-74669420D01*
X128627975Y-74725358D01*
X128567312Y-74762243D01*
X128534835Y-74766500D01*
X128020951Y-74766500D01*
X127952830Y-74746498D01*
X127906337Y-74692842D01*
X127902069Y-74682249D01*
X127887906Y-74641920D01*
X127887904Y-74641916D01*
X127884784Y-74633031D01*
X127860158Y-74599689D01*
X127808463Y-74529700D01*
X127802871Y-74522129D01*
X127691969Y-74440216D01*
X127599801Y-74407849D01*
X127569130Y-74397078D01*
X127569128Y-74397078D01*
X127561885Y-74394534D01*
X127554241Y-74393811D01*
X127554239Y-74393811D01*
X127540658Y-74392528D01*
X127529788Y-74391500D01*
X126470212Y-74391500D01*
X126459342Y-74392528D01*
X126445761Y-74393811D01*
X126445759Y-74393811D01*
X126438115Y-74394534D01*
X126430872Y-74397078D01*
X126430870Y-74397078D01*
X126400199Y-74407849D01*
X126308031Y-74440216D01*
X126197129Y-74522129D01*
X126191537Y-74529700D01*
X126139843Y-74599689D01*
X126115216Y-74633031D01*
X126112096Y-74641916D01*
X126112094Y-74641920D01*
X126097931Y-74682249D01*
X126056488Y-74739894D01*
X125990458Y-74765982D01*
X125979049Y-74766500D01*
X124820951Y-74766500D01*
X124752830Y-74746498D01*
X124706337Y-74692842D01*
X124702069Y-74682249D01*
X124687906Y-74641920D01*
X124687904Y-74641916D01*
X124684784Y-74633031D01*
X124660158Y-74599689D01*
X124608463Y-74529700D01*
X124602871Y-74522129D01*
X124491969Y-74440216D01*
X124417752Y-74414153D01*
X124360106Y-74372710D01*
X124334018Y-74306680D01*
X124333500Y-74295270D01*
X124333500Y-71770065D01*
X124333980Y-71759083D01*
X124336396Y-71731473D01*
X124336396Y-71731471D01*
X124337357Y-71720486D01*
X124334217Y-71708765D01*
X124327329Y-71683063D01*
X124324949Y-71672329D01*
X124320825Y-71648940D01*
X124318222Y-71634177D01*
X124312712Y-71624633D01*
X124311398Y-71621024D01*
X124309769Y-71617531D01*
X124306916Y-71606882D01*
X124284688Y-71575137D01*
X124278791Y-71565880D01*
X124270861Y-71552145D01*
X124259417Y-71532323D01*
X124229727Y-71507410D01*
X124221624Y-71499984D01*
X124020405Y-71298765D01*
X123986379Y-71236453D01*
X123983500Y-71209670D01*
X123983500Y-71094984D01*
X124003502Y-71026863D01*
X124052689Y-70982519D01*
X124136000Y-70940436D01*
X124214416Y-70900825D01*
X124214418Y-70900824D01*
X124219917Y-70898046D01*
X124383495Y-70770245D01*
X124519133Y-70613106D01*
X124621667Y-70432614D01*
X124687190Y-70235644D01*
X124713207Y-70029698D01*
X124713622Y-70000000D01*
X124693365Y-69793408D01*
X124633368Y-69594685D01*
X124630472Y-69589238D01*
X124538809Y-69416847D01*
X124538808Y-69416845D01*
X124535913Y-69411401D01*
X124471240Y-69332104D01*
X124408610Y-69255311D01*
X124408607Y-69255308D01*
X124404715Y-69250536D01*
X124397770Y-69244790D01*
X124249518Y-69122145D01*
X124249519Y-69122145D01*
X124244770Y-69118217D01*
X124239353Y-69115288D01*
X124239350Y-69115286D01*
X124067590Y-69022416D01*
X124067585Y-69022414D01*
X124062170Y-69019486D01*
X123863871Y-68958102D01*
X123857746Y-68957458D01*
X123857745Y-68957458D01*
X123663554Y-68937048D01*
X123663552Y-68937048D01*
X123657425Y-68936404D01*
X123571515Y-68944223D01*
X123456836Y-68954659D01*
X123456833Y-68954660D01*
X123450697Y-68955218D01*
X123444791Y-68956956D01*
X123444787Y-68956957D01*
X123296932Y-69000473D01*
X123251560Y-69013827D01*
X123067600Y-69109999D01*
X122905823Y-69240071D01*
X122901865Y-69244788D01*
X122901863Y-69244790D01*
X122897042Y-69250536D01*
X122772391Y-69399089D01*
X122769427Y-69404481D01*
X122769424Y-69404485D01*
X122684960Y-69558124D01*
X122672387Y-69580995D01*
X122609621Y-69778861D01*
X122608935Y-69784978D01*
X122608934Y-69784982D01*
X122587918Y-69972344D01*
X122586482Y-69985150D01*
X122603852Y-70192004D01*
X122661069Y-70391545D01*
X122663887Y-70397027D01*
X122663888Y-70397031D01*
X122715373Y-70497209D01*
X122755955Y-70576173D01*
X122884894Y-70738854D01*
X122889581Y-70742843D01*
X122889584Y-70742846D01*
X122921778Y-70770245D01*
X123042976Y-70873392D01*
X123224180Y-70974664D01*
X123230045Y-70976570D01*
X123235686Y-70979034D01*
X123235143Y-70980276D01*
X123288036Y-71016437D01*
X123315678Y-71081831D01*
X123316500Y-71096204D01*
X123316500Y-71379947D01*
X123316020Y-71390929D01*
X123312644Y-71429515D01*
X123315497Y-71440161D01*
X123315497Y-71440165D01*
X123322672Y-71466941D01*
X123325051Y-71477672D01*
X123331778Y-71515823D01*
X123337290Y-71525369D01*
X123338604Y-71528981D01*
X123340231Y-71532470D01*
X123343084Y-71543118D01*
X123365312Y-71574863D01*
X123371207Y-71584116D01*
X123390583Y-71617677D01*
X123399028Y-71624763D01*
X123420272Y-71642589D01*
X123428376Y-71650016D01*
X123629595Y-71851235D01*
X123663621Y-71913547D01*
X123666500Y-71940330D01*
X123666500Y-74295270D01*
X123646498Y-74363391D01*
X123592842Y-74409884D01*
X123582248Y-74414153D01*
X123508031Y-74440216D01*
X123397129Y-74522129D01*
X123391537Y-74529700D01*
X123339843Y-74599689D01*
X123315216Y-74633031D01*
X123306841Y-74656879D01*
X123277689Y-74739894D01*
X123269534Y-74763115D01*
X123266500Y-74795212D01*
X123266500Y-75529788D01*
X123269534Y-75561885D01*
X123272078Y-75569128D01*
X123272078Y-75569130D01*
X123295698Y-75636389D01*
X123315216Y-75691969D01*
X123320809Y-75699542D01*
X123320810Y-75699543D01*
X123368653Y-75764318D01*
X123397129Y-75802871D01*
X123404700Y-75808463D01*
X123499273Y-75878315D01*
X123508031Y-75884784D01*
X123516916Y-75887904D01*
X123630870Y-75927922D01*
X123630872Y-75927922D01*
X123638115Y-75930466D01*
X123645759Y-75931189D01*
X123645761Y-75931189D01*
X123659342Y-75932472D01*
X123670212Y-75933500D01*
X124329788Y-75933500D01*
X124340658Y-75932472D01*
X124354239Y-75931189D01*
X124354241Y-75931189D01*
X124361885Y-75930466D01*
X124369128Y-75927922D01*
X124369130Y-75927922D01*
X124483084Y-75887904D01*
X124491969Y-75884784D01*
X124500728Y-75878315D01*
X124595300Y-75808463D01*
X124602871Y-75802871D01*
X124631347Y-75764318D01*
X124679190Y-75699543D01*
X124679191Y-75699542D01*
X124684784Y-75691969D01*
X124704302Y-75636389D01*
X124727922Y-75569130D01*
X124727922Y-75569128D01*
X124730466Y-75561885D01*
X124731812Y-75547645D01*
X124758135Y-75481708D01*
X124815927Y-75440470D01*
X124857253Y-75433500D01*
X125979049Y-75433500D01*
X126047170Y-75453502D01*
X126093663Y-75507158D01*
X126097931Y-75517751D01*
X126112094Y-75558080D01*
X126115216Y-75566969D01*
X126197129Y-75677871D01*
X126308031Y-75759784D01*
X126363611Y-75779302D01*
X126430870Y-75802922D01*
X126430872Y-75802922D01*
X126438115Y-75805466D01*
X126445759Y-75806189D01*
X126445761Y-75806189D01*
X126459342Y-75807472D01*
X126470212Y-75808500D01*
X127529788Y-75808500D01*
X127540658Y-75807472D01*
X127554239Y-75806189D01*
X127554241Y-75806189D01*
X127561885Y-75805466D01*
X127569128Y-75802922D01*
X127569130Y-75802922D01*
X127636389Y-75779302D01*
X127691969Y-75759784D01*
X127802871Y-75677871D01*
X127884784Y-75566969D01*
X127887906Y-75558080D01*
X127902069Y-75517751D01*
X127943512Y-75460106D01*
X128009542Y-75434018D01*
X128020951Y-75433500D01*
X128534438Y-75433500D01*
X128602559Y-75453502D01*
X128649052Y-75507158D01*
X128655374Y-75524137D01*
X128665300Y-75558080D01*
X128671641Y-75579766D01*
X128730921Y-75710145D01*
X128763395Y-75760923D01*
X128856885Y-75869424D01*
X128860261Y-75872369D01*
X128860263Y-75872371D01*
X128867077Y-75878315D01*
X128902306Y-75909047D01*
X128906067Y-75911485D01*
X128906070Y-75911487D01*
X128959032Y-75945815D01*
X129005316Y-75999651D01*
X129016500Y-76051547D01*
X129016500Y-77609670D01*
X128996498Y-77677791D01*
X128979595Y-77698765D01*
X128828375Y-77849985D01*
X128820272Y-77857411D01*
X128790583Y-77882323D01*
X128777508Y-77904970D01*
X128771209Y-77915880D01*
X128765312Y-77925137D01*
X128743084Y-77956882D01*
X128740231Y-77967530D01*
X128738604Y-77971019D01*
X128737290Y-77974631D01*
X128731778Y-77984177D01*
X128726288Y-78015311D01*
X128725051Y-78022328D01*
X128722672Y-78033059D01*
X128715497Y-78059835D01*
X128715497Y-78059839D01*
X128712644Y-78070485D01*
X128713605Y-78081466D01*
X128716021Y-78109086D01*
X128716500Y-78120067D01*
X128716500Y-79017084D01*
X128695266Y-79087085D01*
X128682799Y-79105743D01*
X128672500Y-79157520D01*
X128672500Y-79315500D01*
X128652498Y-79383621D01*
X128598842Y-79430114D01*
X128546500Y-79441500D01*
X111169975Y-79441500D01*
X111101854Y-79421498D01*
X111080880Y-79404595D01*
X111000786Y-79324501D01*
X110966760Y-79262189D01*
X110971735Y-79192637D01*
X110971667Y-79192614D01*
X110971755Y-79192349D01*
X111037190Y-78995644D01*
X111063207Y-78789698D01*
X111063622Y-78760000D01*
X111043365Y-78553408D01*
X110983368Y-78354685D01*
X110973219Y-78335598D01*
X110888809Y-78176847D01*
X110888808Y-78176845D01*
X110885913Y-78171401D01*
X110803608Y-78070485D01*
X110758610Y-78015311D01*
X110758607Y-78015308D01*
X110754715Y-78010536D01*
X110747770Y-78004790D01*
X110599518Y-77882145D01*
X110599519Y-77882145D01*
X110594770Y-77878217D01*
X110589353Y-77875288D01*
X110589350Y-77875286D01*
X110417590Y-77782416D01*
X110417585Y-77782414D01*
X110412170Y-77779486D01*
X110213871Y-77718102D01*
X110207746Y-77717458D01*
X110207745Y-77717458D01*
X110013554Y-77697048D01*
X110013552Y-77697048D01*
X110007425Y-77696404D01*
X109921515Y-77704223D01*
X109806836Y-77714659D01*
X109806833Y-77714660D01*
X109800697Y-77715218D01*
X109794791Y-77716956D01*
X109794787Y-77716957D01*
X109646932Y-77760473D01*
X109601560Y-77773827D01*
X109417600Y-77869999D01*
X109255823Y-78000071D01*
X109251865Y-78004788D01*
X109251863Y-78004790D01*
X109228143Y-78033059D01*
X109122391Y-78159089D01*
X109119427Y-78164481D01*
X109119424Y-78164485D01*
X109050240Y-78290330D01*
X109022387Y-78340995D01*
X108959621Y-78538861D01*
X108958935Y-78544978D01*
X108958934Y-78544982D01*
X108957989Y-78553408D01*
X108936482Y-78745150D01*
X107208000Y-78745150D01*
X107208000Y-70037933D01*
X107210161Y-70018898D01*
X107210169Y-70014200D01*
X107213349Y-70000372D01*
X107213265Y-70000000D01*
X107586738Y-70000000D01*
X107605767Y-70302462D01*
X107662555Y-70600154D01*
X107756206Y-70888381D01*
X107757893Y-70891967D01*
X107757895Y-70891971D01*
X107786308Y-70952351D01*
X107885242Y-71162598D01*
X108047630Y-71418480D01*
X108240808Y-71651992D01*
X108461729Y-71859450D01*
X108464931Y-71861777D01*
X108464933Y-71861778D01*
X108499567Y-71886941D01*
X108706910Y-72037584D01*
X108710379Y-72039491D01*
X108710382Y-72039493D01*
X108969014Y-72181678D01*
X108972483Y-72183585D01*
X108976152Y-72185038D01*
X108976157Y-72185040D01*
X109250591Y-72293696D01*
X109254261Y-72295149D01*
X109547800Y-72370516D01*
X109848470Y-72408500D01*
X110151530Y-72408500D01*
X110452200Y-72370516D01*
X110745739Y-72295149D01*
X110749409Y-72293696D01*
X111023843Y-72185040D01*
X111023848Y-72185038D01*
X111027517Y-72183585D01*
X111030986Y-72181678D01*
X111289618Y-72039493D01*
X111289621Y-72039491D01*
X111293090Y-72037584D01*
X111500433Y-71886941D01*
X111535067Y-71861778D01*
X111535069Y-71861777D01*
X111538271Y-71859450D01*
X111759192Y-71651992D01*
X111952370Y-71418480D01*
X112114758Y-71162598D01*
X112213692Y-70952351D01*
X112242105Y-70891971D01*
X112242107Y-70891967D01*
X112243794Y-70888381D01*
X112337445Y-70600154D01*
X112394233Y-70302462D01*
X112413262Y-70000000D01*
X112394233Y-69697538D01*
X112337445Y-69399846D01*
X112243794Y-69111619D01*
X112237628Y-69098514D01*
X112169935Y-68954659D01*
X112114758Y-68837402D01*
X111952370Y-68581520D01*
X111759192Y-68348008D01*
X111538271Y-68140550D01*
X111293090Y-67962416D01*
X111027517Y-67816415D01*
X111023848Y-67814962D01*
X111023843Y-67814960D01*
X110749409Y-67706304D01*
X110749408Y-67706304D01*
X110745739Y-67704851D01*
X110452200Y-67629484D01*
X110151530Y-67591500D01*
X109848470Y-67591500D01*
X109547800Y-67629484D01*
X109254261Y-67704851D01*
X109250592Y-67706304D01*
X109250591Y-67706304D01*
X108976157Y-67814960D01*
X108976152Y-67814962D01*
X108972483Y-67816415D01*
X108706910Y-67962416D01*
X108461729Y-68140550D01*
X108240808Y-68348008D01*
X108047630Y-68581520D01*
X107885242Y-68837402D01*
X107830065Y-68954659D01*
X107762373Y-69098514D01*
X107756206Y-69111619D01*
X107662555Y-69399846D01*
X107605767Y-69697538D01*
X107586738Y-70000000D01*
X107213265Y-70000000D01*
X107210217Y-69986532D01*
X107210242Y-69972344D01*
X107210757Y-69972345D01*
X107210038Y-69963721D01*
X107219602Y-69793408D01*
X107225159Y-69694456D01*
X107226741Y-69680419D01*
X107242509Y-69587618D01*
X107263699Y-69462900D01*
X107276816Y-69385698D01*
X107279960Y-69371923D01*
X107351920Y-69122145D01*
X107362722Y-69084651D01*
X107367383Y-69071330D01*
X107481789Y-68795130D01*
X107487918Y-68782404D01*
X107632521Y-68520764D01*
X107640039Y-68508799D01*
X107813035Y-68264986D01*
X107821844Y-68253940D01*
X108021043Y-68031035D01*
X108031035Y-68021043D01*
X108253940Y-67821844D01*
X108264986Y-67813035D01*
X108508799Y-67640039D01*
X108520764Y-67632521D01*
X108782404Y-67487918D01*
X108795130Y-67481789D01*
X109071330Y-67367383D01*
X109084651Y-67362722D01*
X109283322Y-67305485D01*
X109371923Y-67279960D01*
X109385698Y-67276816D01*
X109533058Y-67251779D01*
X109680423Y-67226740D01*
X109694456Y-67225159D01*
X109963145Y-67210070D01*
X109971611Y-67210791D01*
X109971612Y-67210144D01*
X109985797Y-67210169D01*
X109999628Y-67213349D01*
X110013469Y-67210217D01*
X110017438Y-67210224D01*
X110037344Y-67208000D01*
X149962067Y-67208000D01*
X149981102Y-67210161D01*
G37*
%TD.AperFunction*%
%TA.AperFunction,Conductor*%
G36*
X134098742Y-75392100D02*
G01*
X134149903Y-75441325D01*
X134166500Y-75503831D01*
X134166500Y-78773952D01*
X134146498Y-78842073D01*
X134129595Y-78863047D01*
X133613047Y-79379595D01*
X133550735Y-79413621D01*
X133523952Y-79416500D01*
X131453500Y-79416500D01*
X131385379Y-79396498D01*
X131338886Y-79342842D01*
X131327500Y-79290500D01*
X131327500Y-79157520D01*
X131317201Y-79105743D01*
X131304734Y-79087085D01*
X131283500Y-79017084D01*
X131283500Y-78120053D01*
X131283980Y-78109071D01*
X131286395Y-78081466D01*
X131287356Y-78070485D01*
X131284503Y-78059839D01*
X131284503Y-78059835D01*
X131277328Y-78033059D01*
X131274949Y-78022328D01*
X131273712Y-78015311D01*
X131268222Y-77984177D01*
X131262710Y-77974631D01*
X131261396Y-77971019D01*
X131259769Y-77967530D01*
X131256916Y-77956882D01*
X131234688Y-77925137D01*
X131228791Y-77915880D01*
X131222492Y-77904970D01*
X131209417Y-77882323D01*
X131179727Y-77857410D01*
X131171624Y-77849984D01*
X131020405Y-77698765D01*
X130986379Y-77636453D01*
X130983500Y-77609670D01*
X130983500Y-76051680D01*
X131003502Y-75983559D01*
X131042264Y-75945119D01*
X131087033Y-75916871D01*
X131087039Y-75916867D01*
X131090831Y-75914474D01*
X131136734Y-75875408D01*
X131231542Y-75768057D01*
X131264632Y-75717681D01*
X131325501Y-75588036D01*
X131328030Y-75579766D01*
X131341815Y-75534676D01*
X131341815Y-75534674D01*
X131343124Y-75530394D01*
X131343132Y-75530340D01*
X131377322Y-75469392D01*
X131440019Y-75436081D01*
X131465393Y-75433500D01*
X131979049Y-75433500D01*
X132047170Y-75453502D01*
X132093663Y-75507158D01*
X132097931Y-75517751D01*
X132112094Y-75558080D01*
X132115216Y-75566969D01*
X132197129Y-75677871D01*
X132308031Y-75759784D01*
X132363611Y-75779302D01*
X132430870Y-75802922D01*
X132430872Y-75802922D01*
X132438115Y-75805466D01*
X132445759Y-75806189D01*
X132445761Y-75806189D01*
X132459342Y-75807472D01*
X132470212Y-75808500D01*
X133529788Y-75808500D01*
X133540658Y-75807472D01*
X133554239Y-75806189D01*
X133554241Y-75806189D01*
X133561885Y-75805466D01*
X133569128Y-75802922D01*
X133569130Y-75802922D01*
X133636389Y-75779302D01*
X133691969Y-75759784D01*
X133802871Y-75677871D01*
X133884784Y-75566969D01*
X133921617Y-75462083D01*
X133963060Y-75404437D01*
X134029090Y-75378349D01*
X134098742Y-75392100D01*
G37*
%TD.AperFunction*%
M02*
