%FSLAX45Y45*%
G04 Gerber Fmt 4.5, Leading zero omitted, Abs format (unit mm)*
G04 Created by KiCad (PCBNEW (6.0.0)) date 2023-02-05 21:47:36*
%MOMM*%
%LPD*%
G01*
G04 APERTURE LIST*
%TA.AperFunction,Profile*%
%ADD10C,0.100000*%
%TD*%
%ADD11C,0.200000*%
%ADD12C,0.030000*%
%ADD13C,0.100000*%
%ADD14C,0.220000*%
G04 APERTURE END LIST*
D10*
X15000000Y-9300000D02*
G75*
G03*
X15300000Y-9000000I0J300000D01*
G01*
X10700000Y-9000000D02*
G75*
G03*
X11000000Y-9300000I300000J0D01*
G01*
X15300000Y-7000000D02*
G75*
G03*
X15000000Y-6700000I-300000J0D01*
G01*
X11000000Y-6700000D02*
G75*
G03*
X10700000Y-7000000I0J-300000D01*
G01*
X15300000Y-7000000D02*
X15300000Y-9000000D01*
X15000000Y-9300000D02*
X11000000Y-9300000D01*
X10700000Y-9000000D02*
X10700000Y-7000000D01*
X11000000Y-6700000D02*
X15000000Y-6700000D01*
D11*
D12*
X12985000Y-7825000D02*
X13015000Y-7855000D01*
X13015000Y-7825000D02*
X12985000Y-7855000D01*
X12985000Y-7935000D02*
X13015000Y-7965000D01*
X13015000Y-7935000D02*
X12985000Y-7965000D01*
X12985000Y-8035000D02*
X13015000Y-8065000D01*
X13015000Y-8035000D02*
X12985000Y-8065000D01*
X13285000Y-7685000D02*
X13315000Y-7715000D01*
X13315000Y-7685000D02*
X13285000Y-7715000D01*
D13*
X11050000Y-7876000D02*
G75*
G03*
X11050000Y-7876000I-50000J0D01*
G01*
X11050000Y-8130000D02*
G75*
G03*
X11050000Y-8130000I-50000J0D01*
G01*
X12415000Y-7000000D02*
G75*
G03*
X12415000Y-7000000I-50000J0D01*
G01*
X12669000Y-7000000D02*
G75*
G03*
X12669000Y-7000000I-50000J0D01*
G01*
X12923000Y-7000000D02*
G75*
G03*
X12923000Y-7000000I-50000J0D01*
G01*
X12923220Y-8991600D02*
G75*
G03*
X12923220Y-8991600I-50000J0D01*
G01*
X13177000Y-7000000D02*
G75*
G03*
X13177000Y-7000000I-50000J0D01*
G01*
X13177220Y-8991600D02*
G75*
G03*
X13177220Y-8991600I-50000J0D01*
G01*
X13431000Y-7000000D02*
G75*
G03*
X13431000Y-7000000I-50000J0D01*
G01*
X13685000Y-7000000D02*
G75*
G03*
X13685000Y-7000000I-50000J0D01*
G01*
D14*
X11000000Y-6890000D02*
X11000000Y-7110000D01*
X10890000Y-7000000D02*
X11110000Y-7000000D01*
X11000000Y-8890000D02*
X11000000Y-9110000D01*
X10890000Y-9000000D02*
X11110000Y-9000000D01*
X15000000Y-6890000D02*
X15000000Y-7110000D01*
X14890000Y-7000000D02*
X15110000Y-7000000D01*
X15000000Y-8890000D02*
X15000000Y-9110000D01*
X14890000Y-9000000D02*
X15110000Y-9000000D01*
D11*
X10952619Y-9615476D02*
X10952619Y-9415476D01*
X11000238Y-9415476D01*
X11028810Y-9425000D01*
X11047857Y-9444048D01*
X11057381Y-9463095D01*
X11066905Y-9501190D01*
X11066905Y-9529762D01*
X11057381Y-9567857D01*
X11047857Y-9586905D01*
X11028810Y-9605952D01*
X11000238Y-9615476D01*
X10952619Y-9615476D01*
X11152619Y-9615476D02*
X11152619Y-9482143D01*
X11152619Y-9520238D02*
X11162143Y-9501190D01*
X11171667Y-9491667D01*
X11190714Y-9482143D01*
X11209762Y-9482143D01*
X11276428Y-9615476D02*
X11276428Y-9482143D01*
X11276428Y-9415476D02*
X11266905Y-9425000D01*
X11276428Y-9434524D01*
X11285952Y-9425000D01*
X11276428Y-9415476D01*
X11276428Y-9434524D01*
X11400238Y-9615476D02*
X11381190Y-9605952D01*
X11371667Y-9586905D01*
X11371667Y-9415476D01*
X11505000Y-9615476D02*
X11485952Y-9605952D01*
X11476428Y-9586905D01*
X11476428Y-9415476D01*
X11733571Y-9615476D02*
X11733571Y-9415476D01*
X11800238Y-9558333D01*
X11866905Y-9415476D01*
X11866905Y-9615476D01*
X12047857Y-9615476D02*
X12047857Y-9510714D01*
X12038333Y-9491667D01*
X12019286Y-9482143D01*
X11981190Y-9482143D01*
X11962143Y-9491667D01*
X12047857Y-9605952D02*
X12028809Y-9615476D01*
X11981190Y-9615476D01*
X11962143Y-9605952D01*
X11952619Y-9586905D01*
X11952619Y-9567857D01*
X11962143Y-9548810D01*
X11981190Y-9539286D01*
X12028809Y-9539286D01*
X12047857Y-9529762D01*
X12143095Y-9482143D02*
X12143095Y-9682143D01*
X12143095Y-9491667D02*
X12162143Y-9482143D01*
X12200238Y-9482143D01*
X12219286Y-9491667D01*
X12228809Y-9501190D01*
X12238333Y-9520238D01*
X12238333Y-9577381D01*
X12228809Y-9596429D01*
X12219286Y-9605952D01*
X12200238Y-9615476D01*
X12162143Y-9615476D01*
X12143095Y-9605952D01*
X12324048Y-9596429D02*
X12333571Y-9605952D01*
X12324048Y-9615476D01*
X12314524Y-9605952D01*
X12324048Y-9596429D01*
X12324048Y-9615476D01*
X12324048Y-9491667D02*
X12333571Y-9501190D01*
X12324048Y-9510714D01*
X12314524Y-9501190D01*
X12324048Y-9491667D01*
X12324048Y-9510714D01*
D12*
X10665000Y-9930000D02*
X10695000Y-9960000D01*
X10695000Y-9930000D02*
X10665000Y-9960000D01*
D11*
X10990714Y-9835476D02*
X11009762Y-9835476D01*
X11028810Y-9845000D01*
X11038333Y-9854524D01*
X11047857Y-9873571D01*
X11057381Y-9911667D01*
X11057381Y-9959286D01*
X11047857Y-9997381D01*
X11038333Y-10016429D01*
X11028810Y-10025952D01*
X11009762Y-10035476D01*
X10990714Y-10035476D01*
X10971667Y-10025952D01*
X10962143Y-10016429D01*
X10952619Y-9997381D01*
X10943095Y-9959286D01*
X10943095Y-9911667D01*
X10952619Y-9873571D01*
X10962143Y-9854524D01*
X10971667Y-9845000D01*
X10990714Y-9835476D01*
X11143095Y-10016429D02*
X11152619Y-10025952D01*
X11143095Y-10035476D01*
X11133571Y-10025952D01*
X11143095Y-10016429D01*
X11143095Y-10035476D01*
X11219286Y-9835476D02*
X11343095Y-9835476D01*
X11276428Y-9911667D01*
X11305000Y-9911667D01*
X11324048Y-9921190D01*
X11333571Y-9930714D01*
X11343095Y-9949762D01*
X11343095Y-9997381D01*
X11333571Y-10016429D01*
X11324048Y-10025952D01*
X11305000Y-10035476D01*
X11247857Y-10035476D01*
X11228809Y-10025952D01*
X11219286Y-10016429D01*
X11466905Y-9835476D02*
X11485952Y-9835476D01*
X11505000Y-9845000D01*
X11514524Y-9854524D01*
X11524048Y-9873571D01*
X11533571Y-9911667D01*
X11533571Y-9959286D01*
X11524048Y-9997381D01*
X11514524Y-10016429D01*
X11505000Y-10025952D01*
X11485952Y-10035476D01*
X11466905Y-10035476D01*
X11447857Y-10025952D01*
X11438333Y-10016429D01*
X11428809Y-9997381D01*
X11419286Y-9959286D01*
X11419286Y-9911667D01*
X11428809Y-9873571D01*
X11438333Y-9854524D01*
X11447857Y-9845000D01*
X11466905Y-9835476D01*
X11657381Y-9835476D02*
X11676428Y-9835476D01*
X11695476Y-9845000D01*
X11705000Y-9854524D01*
X11714524Y-9873571D01*
X11724048Y-9911667D01*
X11724048Y-9959286D01*
X11714524Y-9997381D01*
X11705000Y-10016429D01*
X11695476Y-10025952D01*
X11676428Y-10035476D01*
X11657381Y-10035476D01*
X11638333Y-10025952D01*
X11628809Y-10016429D01*
X11619286Y-9997381D01*
X11609762Y-9959286D01*
X11609762Y-9911667D01*
X11619286Y-9873571D01*
X11628809Y-9854524D01*
X11638333Y-9845000D01*
X11657381Y-9835476D01*
X11809762Y-10035476D02*
X11809762Y-9902143D01*
X11809762Y-9921190D02*
X11819286Y-9911667D01*
X11838333Y-9902143D01*
X11866905Y-9902143D01*
X11885952Y-9911667D01*
X11895476Y-9930714D01*
X11895476Y-10035476D01*
X11895476Y-9930714D02*
X11905000Y-9911667D01*
X11924048Y-9902143D01*
X11952619Y-9902143D01*
X11971667Y-9911667D01*
X11981190Y-9930714D01*
X11981190Y-10035476D01*
X12076428Y-10035476D02*
X12076428Y-9902143D01*
X12076428Y-9921190D02*
X12085952Y-9911667D01*
X12105000Y-9902143D01*
X12133571Y-9902143D01*
X12152619Y-9911667D01*
X12162143Y-9930714D01*
X12162143Y-10035476D01*
X12162143Y-9930714D02*
X12171667Y-9911667D01*
X12190714Y-9902143D01*
X12219286Y-9902143D01*
X12238333Y-9911667D01*
X12247857Y-9930714D01*
X12247857Y-10035476D01*
X12638333Y-9825952D02*
X12466905Y-10083095D01*
X12895476Y-9835476D02*
X12914524Y-9835476D01*
X12933571Y-9845000D01*
X12943095Y-9854524D01*
X12952619Y-9873571D01*
X12962143Y-9911667D01*
X12962143Y-9959286D01*
X12952619Y-9997381D01*
X12943095Y-10016429D01*
X12933571Y-10025952D01*
X12914524Y-10035476D01*
X12895476Y-10035476D01*
X12876428Y-10025952D01*
X12866905Y-10016429D01*
X12857381Y-9997381D01*
X12847857Y-9959286D01*
X12847857Y-9911667D01*
X12857381Y-9873571D01*
X12866905Y-9854524D01*
X12876428Y-9845000D01*
X12895476Y-9835476D01*
X13047857Y-10016429D02*
X13057381Y-10025952D01*
X13047857Y-10035476D01*
X13038333Y-10025952D01*
X13047857Y-10016429D01*
X13047857Y-10035476D01*
X13181190Y-9835476D02*
X13200238Y-9835476D01*
X13219286Y-9845000D01*
X13228809Y-9854524D01*
X13238333Y-9873571D01*
X13247857Y-9911667D01*
X13247857Y-9959286D01*
X13238333Y-9997381D01*
X13228809Y-10016429D01*
X13219286Y-10025952D01*
X13200238Y-10035476D01*
X13181190Y-10035476D01*
X13162143Y-10025952D01*
X13152619Y-10016429D01*
X13143095Y-9997381D01*
X13133571Y-9959286D01*
X13133571Y-9911667D01*
X13143095Y-9873571D01*
X13152619Y-9854524D01*
X13162143Y-9845000D01*
X13181190Y-9835476D01*
X13438333Y-10035476D02*
X13324048Y-10035476D01*
X13381190Y-10035476D02*
X13381190Y-9835476D01*
X13362143Y-9864048D01*
X13343095Y-9883095D01*
X13324048Y-9892619D01*
X13628809Y-10035476D02*
X13514524Y-10035476D01*
X13571667Y-10035476D02*
X13571667Y-9835476D01*
X13552619Y-9864048D01*
X13533571Y-9883095D01*
X13514524Y-9892619D01*
X13743095Y-9921190D02*
X13724048Y-9911667D01*
X13714524Y-9902143D01*
X13705000Y-9883095D01*
X13705000Y-9873571D01*
X13714524Y-9854524D01*
X13724048Y-9845000D01*
X13743095Y-9835476D01*
X13781190Y-9835476D01*
X13800238Y-9845000D01*
X13809762Y-9854524D01*
X13819286Y-9873571D01*
X13819286Y-9883095D01*
X13809762Y-9902143D01*
X13800238Y-9911667D01*
X13781190Y-9921190D01*
X13743095Y-9921190D01*
X13724048Y-9930714D01*
X13714524Y-9940238D01*
X13705000Y-9959286D01*
X13705000Y-9997381D01*
X13714524Y-10016429D01*
X13724048Y-10025952D01*
X13743095Y-10035476D01*
X13781190Y-10035476D01*
X13800238Y-10025952D01*
X13809762Y-10016429D01*
X13819286Y-9997381D01*
X13819286Y-9959286D01*
X13809762Y-9940238D01*
X13800238Y-9930714D01*
X13781190Y-9921190D01*
X13895476Y-9835476D02*
X13895476Y-9873571D01*
X13971667Y-9835476D02*
X13971667Y-9873571D01*
X14266905Y-10111667D02*
X14257381Y-10102143D01*
X14238333Y-10073571D01*
X14228809Y-10054524D01*
X14219286Y-10025952D01*
X14209762Y-9978333D01*
X14209762Y-9940238D01*
X14219286Y-9892619D01*
X14228809Y-9864048D01*
X14238333Y-9845000D01*
X14257381Y-9816429D01*
X14266905Y-9806905D01*
X14428809Y-9902143D02*
X14428809Y-10035476D01*
X14381190Y-9825952D02*
X14333571Y-9968810D01*
X14457381Y-9968810D01*
X14685952Y-10035476D02*
X14685952Y-9835476D01*
X14771667Y-10035476D02*
X14771667Y-9930714D01*
X14762143Y-9911667D01*
X14743095Y-9902143D01*
X14714524Y-9902143D01*
X14695476Y-9911667D01*
X14685952Y-9921190D01*
X14895476Y-10035476D02*
X14876428Y-10025952D01*
X14866905Y-10016429D01*
X14857381Y-9997381D01*
X14857381Y-9940238D01*
X14866905Y-9921190D01*
X14876428Y-9911667D01*
X14895476Y-9902143D01*
X14924048Y-9902143D01*
X14943095Y-9911667D01*
X14952619Y-9921190D01*
X14962143Y-9940238D01*
X14962143Y-9997381D01*
X14952619Y-10016429D01*
X14943095Y-10025952D01*
X14924048Y-10035476D01*
X14895476Y-10035476D01*
X15076428Y-10035476D02*
X15057381Y-10025952D01*
X15047857Y-10006905D01*
X15047857Y-9835476D01*
X15228809Y-10025952D02*
X15209762Y-10035476D01*
X15171667Y-10035476D01*
X15152619Y-10025952D01*
X15143095Y-10006905D01*
X15143095Y-9930714D01*
X15152619Y-9911667D01*
X15171667Y-9902143D01*
X15209762Y-9902143D01*
X15228809Y-9911667D01*
X15238333Y-9930714D01*
X15238333Y-9949762D01*
X15143095Y-9968810D01*
X15314524Y-10025952D02*
X15333571Y-10035476D01*
X15371667Y-10035476D01*
X15390714Y-10025952D01*
X15400238Y-10006905D01*
X15400238Y-9997381D01*
X15390714Y-9978333D01*
X15371667Y-9968810D01*
X15343095Y-9968810D01*
X15324048Y-9959286D01*
X15314524Y-9940238D01*
X15314524Y-9930714D01*
X15324048Y-9911667D01*
X15343095Y-9902143D01*
X15371667Y-9902143D01*
X15390714Y-9911667D01*
X15466905Y-10111667D02*
X15476428Y-10102143D01*
X15495476Y-10073571D01*
X15505000Y-10054524D01*
X15514524Y-10025952D01*
X15524048Y-9978333D01*
X15524048Y-9940238D01*
X15514524Y-9892619D01*
X15505000Y-9864048D01*
X15495476Y-9845000D01*
X15476428Y-9816429D01*
X15466905Y-9806905D01*
D13*
X10695000Y-10209000D02*
G75*
G03*
X10695000Y-10209000I-50000J0D01*
G01*
D11*
X11057381Y-10299476D02*
X10943095Y-10299476D01*
X11000238Y-10299476D02*
X11000238Y-10099476D01*
X10981190Y-10128048D01*
X10962143Y-10147095D01*
X10943095Y-10156619D01*
X11143095Y-10280429D02*
X11152619Y-10289952D01*
X11143095Y-10299476D01*
X11133571Y-10289952D01*
X11143095Y-10280429D01*
X11143095Y-10299476D01*
X11276428Y-10099476D02*
X11295476Y-10099476D01*
X11314524Y-10109000D01*
X11324048Y-10118524D01*
X11333571Y-10137571D01*
X11343095Y-10175667D01*
X11343095Y-10223286D01*
X11333571Y-10261381D01*
X11324048Y-10280429D01*
X11314524Y-10289952D01*
X11295476Y-10299476D01*
X11276428Y-10299476D01*
X11257381Y-10289952D01*
X11247857Y-10280429D01*
X11238333Y-10261381D01*
X11228809Y-10223286D01*
X11228809Y-10175667D01*
X11238333Y-10137571D01*
X11247857Y-10118524D01*
X11257381Y-10109000D01*
X11276428Y-10099476D01*
X11466905Y-10099476D02*
X11485952Y-10099476D01*
X11505000Y-10109000D01*
X11514524Y-10118524D01*
X11524048Y-10137571D01*
X11533571Y-10175667D01*
X11533571Y-10223286D01*
X11524048Y-10261381D01*
X11514524Y-10280429D01*
X11505000Y-10289952D01*
X11485952Y-10299476D01*
X11466905Y-10299476D01*
X11447857Y-10289952D01*
X11438333Y-10280429D01*
X11428809Y-10261381D01*
X11419286Y-10223286D01*
X11419286Y-10175667D01*
X11428809Y-10137571D01*
X11438333Y-10118524D01*
X11447857Y-10109000D01*
X11466905Y-10099476D01*
X11657381Y-10099476D02*
X11676428Y-10099476D01*
X11695476Y-10109000D01*
X11705000Y-10118524D01*
X11714524Y-10137571D01*
X11724048Y-10175667D01*
X11724048Y-10223286D01*
X11714524Y-10261381D01*
X11705000Y-10280429D01*
X11695476Y-10289952D01*
X11676428Y-10299476D01*
X11657381Y-10299476D01*
X11638333Y-10289952D01*
X11628809Y-10280429D01*
X11619286Y-10261381D01*
X11609762Y-10223286D01*
X11609762Y-10175667D01*
X11619286Y-10137571D01*
X11628809Y-10118524D01*
X11638333Y-10109000D01*
X11657381Y-10099476D01*
X11809762Y-10299476D02*
X11809762Y-10166143D01*
X11809762Y-10185190D02*
X11819286Y-10175667D01*
X11838333Y-10166143D01*
X11866905Y-10166143D01*
X11885952Y-10175667D01*
X11895476Y-10194714D01*
X11895476Y-10299476D01*
X11895476Y-10194714D02*
X11905000Y-10175667D01*
X11924048Y-10166143D01*
X11952619Y-10166143D01*
X11971667Y-10175667D01*
X11981190Y-10194714D01*
X11981190Y-10299476D01*
X12076428Y-10299476D02*
X12076428Y-10166143D01*
X12076428Y-10185190D02*
X12085952Y-10175667D01*
X12105000Y-10166143D01*
X12133571Y-10166143D01*
X12152619Y-10175667D01*
X12162143Y-10194714D01*
X12162143Y-10299476D01*
X12162143Y-10194714D02*
X12171667Y-10175667D01*
X12190714Y-10166143D01*
X12219286Y-10166143D01*
X12238333Y-10175667D01*
X12247857Y-10194714D01*
X12247857Y-10299476D01*
X12638333Y-10089952D02*
X12466905Y-10347095D01*
X12895476Y-10099476D02*
X12914524Y-10099476D01*
X12933571Y-10109000D01*
X12943095Y-10118524D01*
X12952619Y-10137571D01*
X12962143Y-10175667D01*
X12962143Y-10223286D01*
X12952619Y-10261381D01*
X12943095Y-10280429D01*
X12933571Y-10289952D01*
X12914524Y-10299476D01*
X12895476Y-10299476D01*
X12876428Y-10289952D01*
X12866905Y-10280429D01*
X12857381Y-10261381D01*
X12847857Y-10223286D01*
X12847857Y-10175667D01*
X12857381Y-10137571D01*
X12866905Y-10118524D01*
X12876428Y-10109000D01*
X12895476Y-10099476D01*
X13047857Y-10280429D02*
X13057381Y-10289952D01*
X13047857Y-10299476D01*
X13038333Y-10289952D01*
X13047857Y-10280429D01*
X13047857Y-10299476D01*
X13181190Y-10099476D02*
X13200238Y-10099476D01*
X13219286Y-10109000D01*
X13228809Y-10118524D01*
X13238333Y-10137571D01*
X13247857Y-10175667D01*
X13247857Y-10223286D01*
X13238333Y-10261381D01*
X13228809Y-10280429D01*
X13219286Y-10289952D01*
X13200238Y-10299476D01*
X13181190Y-10299476D01*
X13162143Y-10289952D01*
X13152619Y-10280429D01*
X13143095Y-10261381D01*
X13133571Y-10223286D01*
X13133571Y-10175667D01*
X13143095Y-10137571D01*
X13152619Y-10118524D01*
X13162143Y-10109000D01*
X13181190Y-10099476D01*
X13314524Y-10099476D02*
X13438333Y-10099476D01*
X13371667Y-10175667D01*
X13400238Y-10175667D01*
X13419286Y-10185190D01*
X13428809Y-10194714D01*
X13438333Y-10213762D01*
X13438333Y-10261381D01*
X13428809Y-10280429D01*
X13419286Y-10289952D01*
X13400238Y-10299476D01*
X13343095Y-10299476D01*
X13324048Y-10289952D01*
X13314524Y-10280429D01*
X13533571Y-10299476D02*
X13571667Y-10299476D01*
X13590714Y-10289952D01*
X13600238Y-10280429D01*
X13619286Y-10251857D01*
X13628809Y-10213762D01*
X13628809Y-10137571D01*
X13619286Y-10118524D01*
X13609762Y-10109000D01*
X13590714Y-10099476D01*
X13552619Y-10099476D01*
X13533571Y-10109000D01*
X13524048Y-10118524D01*
X13514524Y-10137571D01*
X13514524Y-10185190D01*
X13524048Y-10204238D01*
X13533571Y-10213762D01*
X13552619Y-10223286D01*
X13590714Y-10223286D01*
X13609762Y-10213762D01*
X13619286Y-10204238D01*
X13628809Y-10185190D01*
X13800238Y-10166143D02*
X13800238Y-10299476D01*
X13752619Y-10089952D02*
X13705000Y-10232810D01*
X13828809Y-10232810D01*
X13895476Y-10099476D02*
X13895476Y-10137571D01*
X13971667Y-10099476D02*
X13971667Y-10137571D01*
X14266905Y-10375667D02*
X14257381Y-10366143D01*
X14238333Y-10337571D01*
X14228809Y-10318524D01*
X14219286Y-10289952D01*
X14209762Y-10242333D01*
X14209762Y-10204238D01*
X14219286Y-10156619D01*
X14228809Y-10128048D01*
X14238333Y-10109000D01*
X14257381Y-10080429D01*
X14266905Y-10070905D01*
X14447857Y-10299476D02*
X14333571Y-10299476D01*
X14390714Y-10299476D02*
X14390714Y-10099476D01*
X14371667Y-10128048D01*
X14352619Y-10147095D01*
X14333571Y-10156619D01*
X14571667Y-10099476D02*
X14590714Y-10099476D01*
X14609762Y-10109000D01*
X14619286Y-10118524D01*
X14628809Y-10137571D01*
X14638333Y-10175667D01*
X14638333Y-10223286D01*
X14628809Y-10261381D01*
X14619286Y-10280429D01*
X14609762Y-10289952D01*
X14590714Y-10299476D01*
X14571667Y-10299476D01*
X14552619Y-10289952D01*
X14543095Y-10280429D01*
X14533571Y-10261381D01*
X14524048Y-10223286D01*
X14524048Y-10175667D01*
X14533571Y-10137571D01*
X14543095Y-10118524D01*
X14552619Y-10109000D01*
X14571667Y-10099476D01*
X14876428Y-10299476D02*
X14876428Y-10099476D01*
X14962143Y-10299476D02*
X14962143Y-10194714D01*
X14952619Y-10175667D01*
X14933571Y-10166143D01*
X14905000Y-10166143D01*
X14885952Y-10175667D01*
X14876428Y-10185190D01*
X15085952Y-10299476D02*
X15066905Y-10289952D01*
X15057381Y-10280429D01*
X15047857Y-10261381D01*
X15047857Y-10204238D01*
X15057381Y-10185190D01*
X15066905Y-10175667D01*
X15085952Y-10166143D01*
X15114524Y-10166143D01*
X15133571Y-10175667D01*
X15143095Y-10185190D01*
X15152619Y-10204238D01*
X15152619Y-10261381D01*
X15143095Y-10280429D01*
X15133571Y-10289952D01*
X15114524Y-10299476D01*
X15085952Y-10299476D01*
X15266905Y-10299476D02*
X15247857Y-10289952D01*
X15238333Y-10270905D01*
X15238333Y-10099476D01*
X15419286Y-10289952D02*
X15400238Y-10299476D01*
X15362143Y-10299476D01*
X15343095Y-10289952D01*
X15333571Y-10270905D01*
X15333571Y-10194714D01*
X15343095Y-10175667D01*
X15362143Y-10166143D01*
X15400238Y-10166143D01*
X15419286Y-10175667D01*
X15428809Y-10194714D01*
X15428809Y-10213762D01*
X15333571Y-10232810D01*
X15505000Y-10289952D02*
X15524048Y-10299476D01*
X15562143Y-10299476D01*
X15581190Y-10289952D01*
X15590714Y-10270905D01*
X15590714Y-10261381D01*
X15581190Y-10242333D01*
X15562143Y-10232810D01*
X15533571Y-10232810D01*
X15514524Y-10223286D01*
X15505000Y-10204238D01*
X15505000Y-10194714D01*
X15514524Y-10175667D01*
X15533571Y-10166143D01*
X15562143Y-10166143D01*
X15581190Y-10175667D01*
X15657381Y-10375667D02*
X15666905Y-10366143D01*
X15685952Y-10337571D01*
X15695476Y-10318524D01*
X15705000Y-10289952D01*
X15714524Y-10242333D01*
X15714524Y-10204238D01*
X15705000Y-10156619D01*
X15695476Y-10128048D01*
X15685952Y-10109000D01*
X15666905Y-10080429D01*
X15657381Y-10070905D01*
X10595000Y-10373000D02*
X10595000Y-10573000D01*
X10495000Y-10473000D02*
X10695000Y-10473000D01*
X10943095Y-10382524D02*
X10952619Y-10373000D01*
X10971667Y-10363476D01*
X11019286Y-10363476D01*
X11038333Y-10373000D01*
X11047857Y-10382524D01*
X11057381Y-10401571D01*
X11057381Y-10420619D01*
X11047857Y-10449190D01*
X10933571Y-10563476D01*
X11057381Y-10563476D01*
X11143095Y-10544429D02*
X11152619Y-10553952D01*
X11143095Y-10563476D01*
X11133571Y-10553952D01*
X11143095Y-10544429D01*
X11143095Y-10563476D01*
X11228809Y-10382524D02*
X11238333Y-10373000D01*
X11257381Y-10363476D01*
X11305000Y-10363476D01*
X11324048Y-10373000D01*
X11333571Y-10382524D01*
X11343095Y-10401571D01*
X11343095Y-10420619D01*
X11333571Y-10449190D01*
X11219286Y-10563476D01*
X11343095Y-10563476D01*
X11466905Y-10363476D02*
X11485952Y-10363476D01*
X11505000Y-10373000D01*
X11514524Y-10382524D01*
X11524048Y-10401571D01*
X11533571Y-10439667D01*
X11533571Y-10487286D01*
X11524048Y-10525381D01*
X11514524Y-10544429D01*
X11505000Y-10553952D01*
X11485952Y-10563476D01*
X11466905Y-10563476D01*
X11447857Y-10553952D01*
X11438333Y-10544429D01*
X11428809Y-10525381D01*
X11419286Y-10487286D01*
X11419286Y-10439667D01*
X11428809Y-10401571D01*
X11438333Y-10382524D01*
X11447857Y-10373000D01*
X11466905Y-10363476D01*
X11657381Y-10363476D02*
X11676428Y-10363476D01*
X11695476Y-10373000D01*
X11705000Y-10382524D01*
X11714524Y-10401571D01*
X11724048Y-10439667D01*
X11724048Y-10487286D01*
X11714524Y-10525381D01*
X11705000Y-10544429D01*
X11695476Y-10553952D01*
X11676428Y-10563476D01*
X11657381Y-10563476D01*
X11638333Y-10553952D01*
X11628809Y-10544429D01*
X11619286Y-10525381D01*
X11609762Y-10487286D01*
X11609762Y-10439667D01*
X11619286Y-10401571D01*
X11628809Y-10382524D01*
X11638333Y-10373000D01*
X11657381Y-10363476D01*
X11809762Y-10563476D02*
X11809762Y-10430143D01*
X11809762Y-10449190D02*
X11819286Y-10439667D01*
X11838333Y-10430143D01*
X11866905Y-10430143D01*
X11885952Y-10439667D01*
X11895476Y-10458714D01*
X11895476Y-10563476D01*
X11895476Y-10458714D02*
X11905000Y-10439667D01*
X11924048Y-10430143D01*
X11952619Y-10430143D01*
X11971667Y-10439667D01*
X11981190Y-10458714D01*
X11981190Y-10563476D01*
X12076428Y-10563476D02*
X12076428Y-10430143D01*
X12076428Y-10449190D02*
X12085952Y-10439667D01*
X12105000Y-10430143D01*
X12133571Y-10430143D01*
X12152619Y-10439667D01*
X12162143Y-10458714D01*
X12162143Y-10563476D01*
X12162143Y-10458714D02*
X12171667Y-10439667D01*
X12190714Y-10430143D01*
X12219286Y-10430143D01*
X12238333Y-10439667D01*
X12247857Y-10458714D01*
X12247857Y-10563476D01*
X12638333Y-10353952D02*
X12466905Y-10611095D01*
X12895476Y-10363476D02*
X12914524Y-10363476D01*
X12933571Y-10373000D01*
X12943095Y-10382524D01*
X12952619Y-10401571D01*
X12962143Y-10439667D01*
X12962143Y-10487286D01*
X12952619Y-10525381D01*
X12943095Y-10544429D01*
X12933571Y-10553952D01*
X12914524Y-10563476D01*
X12895476Y-10563476D01*
X12876428Y-10553952D01*
X12866905Y-10544429D01*
X12857381Y-10525381D01*
X12847857Y-10487286D01*
X12847857Y-10439667D01*
X12857381Y-10401571D01*
X12866905Y-10382524D01*
X12876428Y-10373000D01*
X12895476Y-10363476D01*
X13047857Y-10544429D02*
X13057381Y-10553952D01*
X13047857Y-10563476D01*
X13038333Y-10553952D01*
X13047857Y-10544429D01*
X13047857Y-10563476D01*
X13181190Y-10363476D02*
X13200238Y-10363476D01*
X13219286Y-10373000D01*
X13228809Y-10382524D01*
X13238333Y-10401571D01*
X13247857Y-10439667D01*
X13247857Y-10487286D01*
X13238333Y-10525381D01*
X13228809Y-10544429D01*
X13219286Y-10553952D01*
X13200238Y-10563476D01*
X13181190Y-10563476D01*
X13162143Y-10553952D01*
X13152619Y-10544429D01*
X13143095Y-10525381D01*
X13133571Y-10487286D01*
X13133571Y-10439667D01*
X13143095Y-10401571D01*
X13152619Y-10382524D01*
X13162143Y-10373000D01*
X13181190Y-10363476D01*
X13362143Y-10449190D02*
X13343095Y-10439667D01*
X13333571Y-10430143D01*
X13324048Y-10411095D01*
X13324048Y-10401571D01*
X13333571Y-10382524D01*
X13343095Y-10373000D01*
X13362143Y-10363476D01*
X13400238Y-10363476D01*
X13419286Y-10373000D01*
X13428809Y-10382524D01*
X13438333Y-10401571D01*
X13438333Y-10411095D01*
X13428809Y-10430143D01*
X13419286Y-10439667D01*
X13400238Y-10449190D01*
X13362143Y-10449190D01*
X13343095Y-10458714D01*
X13333571Y-10468238D01*
X13324048Y-10487286D01*
X13324048Y-10525381D01*
X13333571Y-10544429D01*
X13343095Y-10553952D01*
X13362143Y-10563476D01*
X13400238Y-10563476D01*
X13419286Y-10553952D01*
X13428809Y-10544429D01*
X13438333Y-10525381D01*
X13438333Y-10487286D01*
X13428809Y-10468238D01*
X13419286Y-10458714D01*
X13400238Y-10449190D01*
X13609762Y-10363476D02*
X13571667Y-10363476D01*
X13552619Y-10373000D01*
X13543095Y-10382524D01*
X13524048Y-10411095D01*
X13514524Y-10449190D01*
X13514524Y-10525381D01*
X13524048Y-10544429D01*
X13533571Y-10553952D01*
X13552619Y-10563476D01*
X13590714Y-10563476D01*
X13609762Y-10553952D01*
X13619286Y-10544429D01*
X13628809Y-10525381D01*
X13628809Y-10477762D01*
X13619286Y-10458714D01*
X13609762Y-10449190D01*
X13590714Y-10439667D01*
X13552619Y-10439667D01*
X13533571Y-10449190D01*
X13524048Y-10458714D01*
X13514524Y-10477762D01*
X13800238Y-10363476D02*
X13762143Y-10363476D01*
X13743095Y-10373000D01*
X13733571Y-10382524D01*
X13714524Y-10411095D01*
X13705000Y-10449190D01*
X13705000Y-10525381D01*
X13714524Y-10544429D01*
X13724048Y-10553952D01*
X13743095Y-10563476D01*
X13781190Y-10563476D01*
X13800238Y-10553952D01*
X13809762Y-10544429D01*
X13819286Y-10525381D01*
X13819286Y-10477762D01*
X13809762Y-10458714D01*
X13800238Y-10449190D01*
X13781190Y-10439667D01*
X13743095Y-10439667D01*
X13724048Y-10449190D01*
X13714524Y-10458714D01*
X13705000Y-10477762D01*
X13895476Y-10363476D02*
X13895476Y-10401571D01*
X13971667Y-10363476D02*
X13971667Y-10401571D01*
X14266905Y-10639667D02*
X14257381Y-10630143D01*
X14238333Y-10601571D01*
X14228809Y-10582524D01*
X14219286Y-10553952D01*
X14209762Y-10506333D01*
X14209762Y-10468238D01*
X14219286Y-10420619D01*
X14228809Y-10392048D01*
X14238333Y-10373000D01*
X14257381Y-10344429D01*
X14266905Y-10334905D01*
X14428809Y-10430143D02*
X14428809Y-10563476D01*
X14381190Y-10353952D02*
X14333571Y-10496810D01*
X14457381Y-10496810D01*
X14685952Y-10563476D02*
X14685952Y-10363476D01*
X14771667Y-10563476D02*
X14771667Y-10458714D01*
X14762143Y-10439667D01*
X14743095Y-10430143D01*
X14714524Y-10430143D01*
X14695476Y-10439667D01*
X14685952Y-10449190D01*
X14895476Y-10563476D02*
X14876428Y-10553952D01*
X14866905Y-10544429D01*
X14857381Y-10525381D01*
X14857381Y-10468238D01*
X14866905Y-10449190D01*
X14876428Y-10439667D01*
X14895476Y-10430143D01*
X14924048Y-10430143D01*
X14943095Y-10439667D01*
X14952619Y-10449190D01*
X14962143Y-10468238D01*
X14962143Y-10525381D01*
X14952619Y-10544429D01*
X14943095Y-10553952D01*
X14924048Y-10563476D01*
X14895476Y-10563476D01*
X15076428Y-10563476D02*
X15057381Y-10553952D01*
X15047857Y-10534905D01*
X15047857Y-10363476D01*
X15228809Y-10553952D02*
X15209762Y-10563476D01*
X15171667Y-10563476D01*
X15152619Y-10553952D01*
X15143095Y-10534905D01*
X15143095Y-10458714D01*
X15152619Y-10439667D01*
X15171667Y-10430143D01*
X15209762Y-10430143D01*
X15228809Y-10439667D01*
X15238333Y-10458714D01*
X15238333Y-10477762D01*
X15143095Y-10496810D01*
X15314524Y-10553952D02*
X15333571Y-10563476D01*
X15371667Y-10563476D01*
X15390714Y-10553952D01*
X15400238Y-10534905D01*
X15400238Y-10525381D01*
X15390714Y-10506333D01*
X15371667Y-10496810D01*
X15343095Y-10496810D01*
X15324048Y-10487286D01*
X15314524Y-10468238D01*
X15314524Y-10458714D01*
X15324048Y-10439667D01*
X15343095Y-10430143D01*
X15371667Y-10430143D01*
X15390714Y-10439667D01*
X15466905Y-10639667D02*
X15476428Y-10630143D01*
X15495476Y-10601571D01*
X15505000Y-10582524D01*
X15514524Y-10553952D01*
X15524048Y-10506333D01*
X15524048Y-10468238D01*
X15514524Y-10420619D01*
X15505000Y-10392048D01*
X15495476Y-10373000D01*
X15476428Y-10344429D01*
X15466905Y-10334905D01*
M02*
