%TF.GenerationSoftware,KiCad,Pcbnew,(6.0.0)*%
%TF.CreationDate,2023-02-05T21:46:31-06:00*%
%TF.ProjectId,drv8212p_eval,64727638-3231-4327-905f-6576616c2e6b,rev?*%
%TF.SameCoordinates,Original*%
%TF.FileFunction,Soldermask,Bot*%
%TF.FilePolarity,Negative*%
%FSLAX46Y46*%
G04 Gerber Fmt 4.6, Leading zero omitted, Abs format (unit mm)*
G04 Created by KiCad (PCBNEW (6.0.0)) date 2023-02-05 21:46:31*
%MOMM*%
%LPD*%
G01*
G04 APERTURE LIST*
%ADD10O,1.700000X1.700000*%
%ADD11R,1.700000X1.700000*%
%ADD12C,4.400000*%
G04 APERTURE END LIST*
G36*
X143678275Y-90620713D02*
G01*
X143575286Y-90608608D01*
X143475869Y-90572294D01*
X143385580Y-90510381D01*
X143309975Y-90421481D01*
X143258778Y-90311745D01*
X143241713Y-90187325D01*
X143242102Y-90184150D01*
X143522700Y-90184150D01*
X143535797Y-90252412D01*
X143575087Y-90301625D01*
X143679862Y-90341313D01*
X143783050Y-90302419D01*
X143821150Y-90254000D01*
X143833850Y-90186531D01*
X143821547Y-90118864D01*
X143784638Y-90069850D01*
X143678275Y-90030162D01*
X143571912Y-90068262D01*
X143535003Y-90116284D01*
X143522700Y-90184150D01*
X143242102Y-90184150D01*
X143256353Y-90067822D01*
X143300274Y-89963311D01*
X143373475Y-89873794D01*
X143465726Y-89805443D01*
X143566797Y-89764433D01*
X143676687Y-89750762D01*
X143786754Y-89764521D01*
X143888354Y-89805796D01*
X143981487Y-89874587D01*
X144055571Y-89964546D01*
X144100021Y-90069321D01*
X144114837Y-90188912D01*
X144097970Y-90309364D01*
X144047369Y-90416719D01*
X143972161Y-90505222D01*
X143881475Y-90569119D01*
X143781462Y-90607814D01*
X143679862Y-90620514D01*
X143678275Y-90620713D01*
G37*
G36*
X144993916Y-89779734D02*
G01*
X145035587Y-89809500D01*
X145050669Y-89849981D01*
X145053050Y-89903162D01*
X145053050Y-90465138D01*
X145050669Y-90519906D01*
X145037175Y-90561975D01*
X144995503Y-90594122D01*
X144914937Y-90604837D01*
X144833578Y-90594122D01*
X144792700Y-90561975D01*
X144777619Y-90521494D01*
X144775237Y-90466725D01*
X144775237Y-90185738D01*
X144736344Y-90085725D01*
X144634744Y-90047625D01*
X144534731Y-90084137D01*
X144497425Y-90185738D01*
X144497425Y-90465138D01*
X144487900Y-90546100D01*
X144446625Y-90590153D01*
X144357725Y-90604837D01*
X144275969Y-90594122D01*
X144233900Y-90561975D01*
X144220406Y-90521494D01*
X144218025Y-90466725D01*
X144218025Y-90187325D01*
X144229755Y-90076817D01*
X144264944Y-89978128D01*
X144323594Y-89891256D01*
X144399882Y-89823787D01*
X144487988Y-89783306D01*
X144587912Y-89769812D01*
X144706975Y-89806325D01*
X144749837Y-89839662D01*
X144778412Y-89871412D01*
X144794287Y-89806325D01*
X144835166Y-89778941D01*
X144913350Y-89769812D01*
X144993916Y-89779734D01*
G37*
G36*
X146360753Y-89779734D02*
G01*
X146402425Y-89809500D01*
X146417506Y-89849981D01*
X146419887Y-89903162D01*
X146419887Y-90465138D01*
X146417506Y-90519906D01*
X146404013Y-90561975D01*
X146362341Y-90594122D01*
X146281775Y-90604837D01*
X146200416Y-90594122D01*
X146159538Y-90561975D01*
X146144456Y-90521494D01*
X146142075Y-90466725D01*
X146142075Y-90185738D01*
X146103181Y-90085725D01*
X146001581Y-90047625D01*
X145901569Y-90084137D01*
X145864263Y-90185738D01*
X145864263Y-90465138D01*
X145854738Y-90546100D01*
X145813462Y-90590153D01*
X145724562Y-90604837D01*
X145642806Y-90594122D01*
X145600737Y-90561975D01*
X145587244Y-90521494D01*
X145584863Y-90466725D01*
X145584863Y-90187325D01*
X145596592Y-90076817D01*
X145631782Y-89978128D01*
X145690431Y-89891256D01*
X145766719Y-89823787D01*
X145854826Y-89783306D01*
X145954750Y-89769812D01*
X146073812Y-89806325D01*
X146116675Y-89839662D01*
X146145250Y-89871412D01*
X146161125Y-89806325D01*
X146202003Y-89778941D01*
X146280188Y-89769812D01*
X146360753Y-89779734D01*
G37*
G36*
X145399919Y-89781719D02*
G01*
X145441987Y-89812675D01*
X145455481Y-89854744D01*
X145457862Y-89909512D01*
X145457862Y-90466725D01*
X145455481Y-90522288D01*
X145441987Y-90563563D01*
X145400316Y-90595709D01*
X145319750Y-90606425D01*
X145238391Y-90596106D01*
X145197512Y-90565150D01*
X145182431Y-90523081D01*
X145180050Y-90468312D01*
X145180050Y-89912687D01*
X145181637Y-89866650D01*
X145210212Y-89798387D01*
X145318162Y-89771400D01*
X145399919Y-89781719D01*
G37*
G36*
X145399919Y-89390003D02*
G01*
X145441987Y-89422150D01*
X145455481Y-89462631D01*
X145457862Y-89517400D01*
X145455481Y-89572169D01*
X145441194Y-89614237D01*
X145399125Y-89647575D01*
X145318956Y-89657100D01*
X145238787Y-89647575D01*
X145196719Y-89615031D01*
X145182431Y-89573756D01*
X145180050Y-89518987D01*
X145182431Y-89464219D01*
X145197512Y-89422150D01*
X145237994Y-89390003D01*
X145318162Y-89379287D01*
X145399919Y-89390003D01*
G37*
D10*
X128732200Y-89916000D03*
D11*
X131272200Y-89916000D03*
D12*
X110000000Y-70000000D03*
D11*
X136350000Y-70000000D03*
D10*
X133810000Y-70000000D03*
X131270000Y-70000000D03*
X128730000Y-70000000D03*
X126190000Y-70000000D03*
X123650000Y-70000000D03*
D11*
X110000000Y-81300000D03*
D10*
X110000000Y-78760000D03*
D12*
X150000000Y-90000000D03*
X150000000Y-70000000D03*
X110000000Y-90000000D03*
M02*
