%TF.GenerationSoftware,KiCad,Pcbnew,(6.0.0)*%
%TF.CreationDate,2023-02-05T21:46:31-06:00*%
%TF.ProjectId,drv8212p_eval,64727638-3231-4327-905f-6576616c2e6b,rev?*%
%TF.SameCoordinates,Original*%
%TF.FileFunction,Copper,L2,Bot*%
%TF.FilePolarity,Positive*%
%FSLAX46Y46*%
G04 Gerber Fmt 4.6, Leading zero omitted, Abs format (unit mm)*
G04 Created by KiCad (PCBNEW (6.0.0)) date 2023-02-05 21:46:31*
%MOMM*%
%LPD*%
G01*
G04 APERTURE LIST*
%TA.AperFunction,ComponentPad*%
%ADD10O,1.700000X1.700000*%
%TD*%
%TA.AperFunction,ComponentPad*%
%ADD11R,1.700000X1.700000*%
%TD*%
%TA.AperFunction,ComponentPad*%
%ADD12C,4.400000*%
%TD*%
%TA.AperFunction,ViaPad*%
%ADD13C,0.560000*%
%TD*%
G04 APERTURE END LIST*
G36*
X143678275Y-90620713D02*
G01*
X143575286Y-90608608D01*
X143475869Y-90572294D01*
X143385580Y-90510381D01*
X143309975Y-90421481D01*
X143258778Y-90311745D01*
X143241713Y-90187325D01*
X143242102Y-90184150D01*
X143522700Y-90184150D01*
X143535797Y-90252412D01*
X143575087Y-90301625D01*
X143679862Y-90341313D01*
X143783050Y-90302419D01*
X143821150Y-90254000D01*
X143833850Y-90186531D01*
X143821547Y-90118864D01*
X143784638Y-90069850D01*
X143678275Y-90030162D01*
X143571912Y-90068262D01*
X143535003Y-90116284D01*
X143522700Y-90184150D01*
X143242102Y-90184150D01*
X143256353Y-90067822D01*
X143300274Y-89963311D01*
X143373475Y-89873794D01*
X143465726Y-89805443D01*
X143566797Y-89764433D01*
X143676687Y-89750762D01*
X143786754Y-89764521D01*
X143888354Y-89805796D01*
X143981487Y-89874587D01*
X144055571Y-89964546D01*
X144100021Y-90069321D01*
X144114837Y-90188912D01*
X144097970Y-90309364D01*
X144047369Y-90416719D01*
X143972161Y-90505222D01*
X143881475Y-90569119D01*
X143781462Y-90607814D01*
X143679862Y-90620514D01*
X143678275Y-90620713D01*
G37*
G36*
X144993916Y-89779734D02*
G01*
X145035587Y-89809500D01*
X145050669Y-89849981D01*
X145053050Y-89903162D01*
X145053050Y-90465138D01*
X145050669Y-90519906D01*
X145037175Y-90561975D01*
X144995503Y-90594122D01*
X144914937Y-90604837D01*
X144833578Y-90594122D01*
X144792700Y-90561975D01*
X144777619Y-90521494D01*
X144775237Y-90466725D01*
X144775237Y-90185738D01*
X144736344Y-90085725D01*
X144634744Y-90047625D01*
X144534731Y-90084137D01*
X144497425Y-90185738D01*
X144497425Y-90465138D01*
X144487900Y-90546100D01*
X144446625Y-90590153D01*
X144357725Y-90604837D01*
X144275969Y-90594122D01*
X144233900Y-90561975D01*
X144220406Y-90521494D01*
X144218025Y-90466725D01*
X144218025Y-90187325D01*
X144229755Y-90076817D01*
X144264944Y-89978128D01*
X144323594Y-89891256D01*
X144399882Y-89823787D01*
X144487988Y-89783306D01*
X144587912Y-89769812D01*
X144706975Y-89806325D01*
X144749837Y-89839662D01*
X144778412Y-89871412D01*
X144794287Y-89806325D01*
X144835166Y-89778941D01*
X144913350Y-89769812D01*
X144993916Y-89779734D01*
G37*
G36*
X146360753Y-89779734D02*
G01*
X146402425Y-89809500D01*
X146417506Y-89849981D01*
X146419887Y-89903162D01*
X146419887Y-90465138D01*
X146417506Y-90519906D01*
X146404013Y-90561975D01*
X146362341Y-90594122D01*
X146281775Y-90604837D01*
X146200416Y-90594122D01*
X146159538Y-90561975D01*
X146144456Y-90521494D01*
X146142075Y-90466725D01*
X146142075Y-90185738D01*
X146103181Y-90085725D01*
X146001581Y-90047625D01*
X145901569Y-90084137D01*
X145864263Y-90185738D01*
X145864263Y-90465138D01*
X145854738Y-90546100D01*
X145813462Y-90590153D01*
X145724562Y-90604837D01*
X145642806Y-90594122D01*
X145600737Y-90561975D01*
X145587244Y-90521494D01*
X145584863Y-90466725D01*
X145584863Y-90187325D01*
X145596592Y-90076817D01*
X145631782Y-89978128D01*
X145690431Y-89891256D01*
X145766719Y-89823787D01*
X145854826Y-89783306D01*
X145954750Y-89769812D01*
X146073812Y-89806325D01*
X146116675Y-89839662D01*
X146145250Y-89871412D01*
X146161125Y-89806325D01*
X146202003Y-89778941D01*
X146280188Y-89769812D01*
X146360753Y-89779734D01*
G37*
G36*
X145399919Y-89781719D02*
G01*
X145441987Y-89812675D01*
X145455481Y-89854744D01*
X145457862Y-89909512D01*
X145457862Y-90466725D01*
X145455481Y-90522288D01*
X145441987Y-90563563D01*
X145400316Y-90595709D01*
X145319750Y-90606425D01*
X145238391Y-90596106D01*
X145197512Y-90565150D01*
X145182431Y-90523081D01*
X145180050Y-90468312D01*
X145180050Y-89912687D01*
X145181637Y-89866650D01*
X145210212Y-89798387D01*
X145318162Y-89771400D01*
X145399919Y-89781719D01*
G37*
G36*
X145399919Y-89390003D02*
G01*
X145441987Y-89422150D01*
X145455481Y-89462631D01*
X145457862Y-89517400D01*
X145455481Y-89572169D01*
X145441194Y-89614237D01*
X145399125Y-89647575D01*
X145318956Y-89657100D01*
X145238787Y-89647575D01*
X145196719Y-89615031D01*
X145182431Y-89573756D01*
X145180050Y-89518987D01*
X145182431Y-89464219D01*
X145197512Y-89422150D01*
X145237994Y-89390003D01*
X145318162Y-89379287D01*
X145399919Y-89390003D01*
G37*
D10*
X128732200Y-89916000D03*
D11*
X131272200Y-89916000D03*
D12*
X110000000Y-70000000D03*
D11*
X136350000Y-70000000D03*
D10*
X133810000Y-70000000D03*
X131270000Y-70000000D03*
X128730000Y-70000000D03*
X126190000Y-70000000D03*
X123650000Y-70000000D03*
D11*
X110000000Y-81300000D03*
D10*
X110000000Y-78760000D03*
D12*
X150000000Y-90000000D03*
X150000000Y-70000000D03*
X110000000Y-90000000D03*
D13*
X130000000Y-79500000D03*
X130000000Y-80500000D03*
X133000000Y-77000000D03*
X130000000Y-78400000D03*
%TA.AperFunction,Conductor*%
G36*
X149981102Y-67210161D02*
G01*
X149985800Y-67210169D01*
X149999628Y-67213349D01*
X150013468Y-67210217D01*
X150027656Y-67210242D01*
X150027655Y-67210757D01*
X150036279Y-67210038D01*
X150206584Y-67219602D01*
X150305544Y-67225159D01*
X150319577Y-67226740D01*
X150466942Y-67251779D01*
X150614302Y-67276816D01*
X150628077Y-67279960D01*
X150716678Y-67305485D01*
X150915349Y-67362722D01*
X150928670Y-67367383D01*
X151204870Y-67481789D01*
X151217596Y-67487918D01*
X151479236Y-67632521D01*
X151491201Y-67640039D01*
X151735014Y-67813035D01*
X151746060Y-67821844D01*
X151968965Y-68021043D01*
X151978957Y-68031035D01*
X152178156Y-68253940D01*
X152186965Y-68264986D01*
X152359961Y-68508799D01*
X152367479Y-68520764D01*
X152512082Y-68782404D01*
X152518211Y-68795130D01*
X152632617Y-69071330D01*
X152637278Y-69084651D01*
X152648080Y-69122145D01*
X152720040Y-69371923D01*
X152723184Y-69385698D01*
X152736301Y-69462900D01*
X152757492Y-69587618D01*
X152773259Y-69680419D01*
X152774841Y-69694456D01*
X152780398Y-69793408D01*
X152789930Y-69963144D01*
X152789209Y-69971611D01*
X152789856Y-69971612D01*
X152789831Y-69985797D01*
X152786651Y-69999628D01*
X152789783Y-70013469D01*
X152789776Y-70017438D01*
X152792000Y-70037344D01*
X152792000Y-89962067D01*
X152789839Y-89981102D01*
X152789831Y-89985800D01*
X152786651Y-89999628D01*
X152789783Y-90013468D01*
X152789758Y-90027656D01*
X152789243Y-90027655D01*
X152789962Y-90036279D01*
X152780879Y-90198028D01*
X152777458Y-90258947D01*
X152774841Y-90305540D01*
X152773260Y-90319577D01*
X152765841Y-90363241D01*
X152723184Y-90614302D01*
X152720040Y-90628077D01*
X152699215Y-90700363D01*
X152637278Y-90915349D01*
X152632617Y-90928670D01*
X152518213Y-91204866D01*
X152512082Y-91217596D01*
X152367479Y-91479236D01*
X152359961Y-91491201D01*
X152186965Y-91735014D01*
X152178156Y-91746060D01*
X151978957Y-91968965D01*
X151968965Y-91978957D01*
X151746060Y-92178156D01*
X151735014Y-92186965D01*
X151491201Y-92359961D01*
X151479236Y-92367479D01*
X151217596Y-92512082D01*
X151204870Y-92518211D01*
X150928670Y-92632617D01*
X150915349Y-92637278D01*
X150716678Y-92694515D01*
X150628077Y-92720040D01*
X150614302Y-92723184D01*
X150466941Y-92748222D01*
X150319577Y-92773260D01*
X150305544Y-92774841D01*
X150036855Y-92789930D01*
X150028389Y-92789209D01*
X150028388Y-92789856D01*
X150014203Y-92789831D01*
X150000372Y-92786651D01*
X149986531Y-92789783D01*
X149982562Y-92789776D01*
X149962656Y-92792000D01*
X110037933Y-92792000D01*
X110018898Y-92789839D01*
X110014200Y-92789831D01*
X110000372Y-92786651D01*
X109986532Y-92789783D01*
X109972344Y-92789758D01*
X109972345Y-92789243D01*
X109963721Y-92789962D01*
X109793416Y-92780398D01*
X109694456Y-92774841D01*
X109680423Y-92773260D01*
X109533059Y-92748222D01*
X109385698Y-92723184D01*
X109371923Y-92720040D01*
X109283322Y-92694515D01*
X109084651Y-92637278D01*
X109071330Y-92632617D01*
X108795130Y-92518211D01*
X108782404Y-92512082D01*
X108520764Y-92367479D01*
X108508799Y-92359961D01*
X108264986Y-92186965D01*
X108253940Y-92178156D01*
X108031035Y-91978957D01*
X108021043Y-91968965D01*
X107821844Y-91746060D01*
X107813035Y-91735014D01*
X107640039Y-91491201D01*
X107632521Y-91479236D01*
X107487918Y-91217596D01*
X107481787Y-91204866D01*
X107367383Y-90928670D01*
X107362722Y-90915349D01*
X107300785Y-90700363D01*
X107279960Y-90628077D01*
X107276816Y-90614302D01*
X107234159Y-90363241D01*
X107226740Y-90319577D01*
X107225159Y-90305540D01*
X107222543Y-90258948D01*
X107210070Y-90036855D01*
X107210791Y-90028389D01*
X107210144Y-90028388D01*
X107210169Y-90014203D01*
X107213349Y-90000372D01*
X107213265Y-90000000D01*
X107586738Y-90000000D01*
X107605767Y-90302462D01*
X107662555Y-90600154D01*
X107684566Y-90667896D01*
X107754655Y-90883606D01*
X107756206Y-90888381D01*
X107757893Y-90891967D01*
X107757895Y-90891971D01*
X107766048Y-90909296D01*
X107885242Y-91162598D01*
X108047630Y-91418480D01*
X108240808Y-91651992D01*
X108461729Y-91859450D01*
X108706910Y-92037584D01*
X108972483Y-92183585D01*
X108976152Y-92185038D01*
X108976157Y-92185040D01*
X109250591Y-92293696D01*
X109254261Y-92295149D01*
X109547800Y-92370516D01*
X109848470Y-92408500D01*
X110151530Y-92408500D01*
X110452200Y-92370516D01*
X110745739Y-92295149D01*
X110749409Y-92293696D01*
X111023843Y-92185040D01*
X111023848Y-92185038D01*
X111027517Y-92183585D01*
X111293090Y-92037584D01*
X111538271Y-91859450D01*
X111759192Y-91651992D01*
X111952370Y-91418480D01*
X112114758Y-91162598D01*
X112233952Y-90909296D01*
X112242105Y-90891971D01*
X112242107Y-90891967D01*
X112243794Y-90888381D01*
X112245346Y-90883606D01*
X112315434Y-90667896D01*
X112337445Y-90600154D01*
X112394233Y-90302462D01*
X112413262Y-90000000D01*
X112407043Y-89901150D01*
X127668682Y-89901150D01*
X127669198Y-89907294D01*
X127683998Y-90083539D01*
X127686052Y-90108004D01*
X127743269Y-90307545D01*
X127746087Y-90313027D01*
X127746088Y-90313031D01*
X127789213Y-90396943D01*
X127838155Y-90492173D01*
X127841986Y-90497007D01*
X127841987Y-90497008D01*
X127865446Y-90526606D01*
X127967094Y-90654854D01*
X127971781Y-90658843D01*
X127971784Y-90658846D01*
X128118886Y-90784039D01*
X128125176Y-90789392D01*
X128306380Y-90890664D01*
X128503803Y-90954810D01*
X128709925Y-90979389D01*
X128716060Y-90978917D01*
X128716062Y-90978917D01*
X128910755Y-90963936D01*
X128910760Y-90963935D01*
X128916896Y-90963463D01*
X128922826Y-90961807D01*
X128922828Y-90961807D01*
X129064902Y-90922139D01*
X129116832Y-90907640D01*
X129146670Y-90892568D01*
X129296616Y-90816825D01*
X129296618Y-90816824D01*
X129302117Y-90814046D01*
X129452106Y-90696862D01*
X129460834Y-90690043D01*
X129460835Y-90690042D01*
X129465695Y-90686245D01*
X129591038Y-90541033D01*
X129597309Y-90533768D01*
X129597309Y-90533767D01*
X129601333Y-90529106D01*
X129608817Y-90515933D01*
X129678645Y-90393013D01*
X129729684Y-90343662D01*
X129799302Y-90329740D01*
X129865396Y-90355666D01*
X129906981Y-90413209D01*
X129914201Y-90455250D01*
X129914201Y-90810669D01*
X129914571Y-90817490D01*
X129920095Y-90868352D01*
X129923721Y-90883604D01*
X129968876Y-91004054D01*
X129977414Y-91019649D01*
X130053915Y-91121724D01*
X130066476Y-91134285D01*
X130168551Y-91210786D01*
X130184146Y-91219324D01*
X130304594Y-91264478D01*
X130319849Y-91268105D01*
X130370714Y-91273631D01*
X130377528Y-91274000D01*
X131000085Y-91274000D01*
X131015324Y-91269525D01*
X131016529Y-91268135D01*
X131018200Y-91260452D01*
X131018200Y-91255884D01*
X131526200Y-91255884D01*
X131530675Y-91271123D01*
X131532065Y-91272328D01*
X131539748Y-91273999D01*
X132166869Y-91273999D01*
X132173690Y-91273629D01*
X132224552Y-91268105D01*
X132239804Y-91264479D01*
X132360254Y-91219324D01*
X132375849Y-91210786D01*
X132477924Y-91134285D01*
X132490485Y-91121724D01*
X132566986Y-91019649D01*
X132575524Y-91004054D01*
X132620678Y-90883606D01*
X132624305Y-90868351D01*
X132629831Y-90817486D01*
X132630200Y-90810672D01*
X132630200Y-90188115D01*
X132629376Y-90185308D01*
X143032405Y-90185308D01*
X143032748Y-90188649D01*
X143032431Y-90192175D01*
X143033082Y-90196922D01*
X143033082Y-90196926D01*
X143033191Y-90197719D01*
X143033400Y-90199239D01*
X143034847Y-90209792D01*
X143035356Y-90214035D01*
X143039645Y-90255783D01*
X143036990Y-90256056D01*
X143037134Y-90259558D01*
X143041588Y-90258947D01*
X143041589Y-90258948D01*
X143047301Y-90300589D01*
X143047330Y-90301056D01*
X143045449Y-90308808D01*
X143048413Y-90322681D01*
X143048413Y-90322684D01*
X143052791Y-90343173D01*
X143054403Y-90352370D01*
X143055894Y-90363241D01*
X143058388Y-90369857D01*
X143058468Y-90370171D01*
X143058571Y-90370614D01*
X143058802Y-90371303D01*
X143060291Y-90378270D01*
X143063305Y-90384729D01*
X143063305Y-90384730D01*
X143064886Y-90388118D01*
X143068602Y-90396943D01*
X143080889Y-90429531D01*
X143086787Y-90435156D01*
X143087049Y-90435623D01*
X143103357Y-90470578D01*
X143098965Y-90472627D01*
X143101284Y-90476332D01*
X143103495Y-90475185D01*
X143122168Y-90511164D01*
X143124517Y-90515933D01*
X143131394Y-90530672D01*
X143134100Y-90534153D01*
X143136216Y-90538230D01*
X143146700Y-90550558D01*
X143150173Y-90554829D01*
X143174876Y-90586607D01*
X143173281Y-90587847D01*
X143175835Y-90591585D01*
X143179175Y-90588744D01*
X143199133Y-90612211D01*
X143195370Y-90615411D01*
X143198342Y-90618150D01*
X143200371Y-90616283D01*
X143228194Y-90646529D01*
X143231445Y-90650204D01*
X143242323Y-90662996D01*
X143245582Y-90665431D01*
X143248459Y-90668559D01*
X143262241Y-90678010D01*
X143266385Y-90680978D01*
X143299074Y-90705406D01*
X143297737Y-90707195D01*
X143300938Y-90709908D01*
X143303439Y-90706260D01*
X143321332Y-90718530D01*
X143319206Y-90721631D01*
X143321510Y-90722760D01*
X143322746Y-90720857D01*
X143322747Y-90720858D01*
X143359270Y-90744590D01*
X143361837Y-90746305D01*
X143373281Y-90754153D01*
X143373284Y-90754155D01*
X143377578Y-90757099D01*
X143379984Y-90758051D01*
X143382306Y-90759560D01*
X143400138Y-90766074D01*
X143403233Y-90767252D01*
X143443453Y-90783167D01*
X143442295Y-90786093D01*
X143444791Y-90787262D01*
X143446363Y-90782958D01*
X143460081Y-90787969D01*
X143458849Y-90791341D01*
X143459589Y-90791486D01*
X143460642Y-90788537D01*
X143504983Y-90804373D01*
X143505751Y-90804650D01*
X143525948Y-90812028D01*
X143526674Y-90812120D01*
X143527534Y-90812427D01*
X143534152Y-90813205D01*
X143548800Y-90814927D01*
X143549913Y-90815063D01*
X143596232Y-90820927D01*
X143595693Y-90825187D01*
X143596616Y-90825361D01*
X143597174Y-90820612D01*
X143608562Y-90821951D01*
X143608107Y-90825818D01*
X143609741Y-90825783D01*
X143610039Y-90822856D01*
X143623389Y-90824213D01*
X143623259Y-90825493D01*
X143625924Y-90825436D01*
X143632232Y-90828478D01*
X143646417Y-90828490D01*
X143646420Y-90828491D01*
X143657016Y-90828500D01*
X143671343Y-90829345D01*
X143671461Y-90829344D01*
X143677283Y-90830028D01*
X143678901Y-90829854D01*
X143680705Y-90830037D01*
X143686708Y-90829284D01*
X143688461Y-90829293D01*
X143690765Y-90829150D01*
X143690894Y-90829114D01*
X143691459Y-90829107D01*
X143700638Y-90828538D01*
X143712942Y-90828549D01*
X143712944Y-90828549D01*
X143727129Y-90828561D01*
X143737151Y-90823749D01*
X143739965Y-90823279D01*
X143747716Y-90822444D01*
X143748119Y-90826184D01*
X143749901Y-90826102D01*
X143749320Y-90821450D01*
X143762201Y-90819840D01*
X143762662Y-90823530D01*
X143764539Y-90823005D01*
X143764172Y-90820461D01*
X143808403Y-90814086D01*
X143810696Y-90813778D01*
X143817808Y-90812889D01*
X143830529Y-90811299D01*
X143832359Y-90810634D01*
X143834475Y-90810329D01*
X143839917Y-90808224D01*
X143839919Y-90808223D01*
X143853058Y-90803139D01*
X143855483Y-90802229D01*
X143882535Y-90792397D01*
X143897114Y-90787098D01*
X143898323Y-90790426D01*
X143900368Y-90789821D01*
X143898690Y-90785484D01*
X143914162Y-90779498D01*
X143915541Y-90783062D01*
X143917225Y-90782117D01*
X143916206Y-90779621D01*
X143916508Y-90779498D01*
X143946488Y-90767252D01*
X143957493Y-90762757D01*
X143959670Y-90761891D01*
X143973094Y-90756697D01*
X143978398Y-90754645D01*
X143980003Y-90753562D01*
X143981960Y-90752763D01*
X143986770Y-90749374D01*
X143987723Y-90748703D01*
X143988696Y-90748372D01*
X143989419Y-90747994D01*
X143989979Y-90747457D01*
X143994043Y-90745233D01*
X143994651Y-90746344D01*
X144054931Y-90725821D01*
X144123841Y-90742907D01*
X144145233Y-90759743D01*
X144149104Y-90762283D01*
X144158939Y-90772509D01*
X144192166Y-90784877D01*
X144200518Y-90788333D01*
X144232759Y-90803050D01*
X144246945Y-90802762D01*
X144246946Y-90802762D01*
X144251606Y-90802667D01*
X144255042Y-90802597D01*
X144273971Y-90803639D01*
X144290793Y-90805844D01*
X144290994Y-90805886D01*
X144297413Y-90809484D01*
X144311576Y-90810368D01*
X144333526Y-90811738D01*
X144342047Y-90812561D01*
X144344552Y-90812889D01*
X144353946Y-90814120D01*
X144360550Y-90813497D01*
X144361067Y-90813518D01*
X144361527Y-90813485D01*
X144368305Y-90813908D01*
X144380068Y-90811965D01*
X144388766Y-90810839D01*
X144424479Y-90807474D01*
X144430929Y-90803586D01*
X144431192Y-90803521D01*
X144476890Y-90795973D01*
X144479417Y-90795582D01*
X144509264Y-90791273D01*
X144509266Y-90791272D01*
X144523307Y-90789245D01*
X144535083Y-90781328D01*
X144535796Y-90781053D01*
X144555481Y-90770555D01*
X144556105Y-90770117D01*
X144569239Y-90764749D01*
X144572069Y-90761614D01*
X144631862Y-90741358D01*
X144706211Y-90761943D01*
X144706609Y-90762205D01*
X144716436Y-90772435D01*
X144747575Y-90784048D01*
X144757423Y-90788206D01*
X144787466Y-90802428D01*
X144801658Y-90802337D01*
X144811984Y-90802271D01*
X144829236Y-90803346D01*
X144844733Y-90805387D01*
X144844082Y-90810330D01*
X144847944Y-90810371D01*
X144848216Y-90807484D01*
X144861558Y-90808739D01*
X144889435Y-90811362D01*
X144894084Y-90811887D01*
X144904011Y-90813194D01*
X144904012Y-90813194D01*
X144906385Y-90813507D01*
X144906386Y-90813507D01*
X144906686Y-90813546D01*
X144911027Y-90814118D01*
X144914888Y-90813757D01*
X144918932Y-90814137D01*
X144925998Y-90813197D01*
X144926001Y-90813197D01*
X144935758Y-90811899D01*
X144940622Y-90811348D01*
X144971361Y-90808471D01*
X144981566Y-90807516D01*
X144981785Y-90809855D01*
X144985793Y-90809727D01*
X144985207Y-90805323D01*
X144985209Y-90805322D01*
X144998055Y-90803614D01*
X145016863Y-90802533D01*
X145021068Y-90802607D01*
X145025119Y-90802678D01*
X145025120Y-90802678D01*
X145039306Y-90802926D01*
X145052200Y-90796996D01*
X145062286Y-90792358D01*
X145132532Y-90782067D01*
X145166753Y-90791982D01*
X145183160Y-90799385D01*
X145183162Y-90799385D01*
X145196093Y-90805220D01*
X145210274Y-90804870D01*
X145218337Y-90804671D01*
X145237299Y-90805634D01*
X145249994Y-90807244D01*
X145249352Y-90812309D01*
X145252723Y-90812336D01*
X145253030Y-90809073D01*
X145295066Y-90813027D01*
X145299093Y-90813471D01*
X145304210Y-90814120D01*
X145309822Y-90814832D01*
X145309824Y-90814832D01*
X145310341Y-90814898D01*
X145310342Y-90814898D01*
X145312259Y-90815141D01*
X145312260Y-90815141D01*
X145316841Y-90815722D01*
X145320201Y-90815391D01*
X145323748Y-90815725D01*
X145341378Y-90813380D01*
X145345615Y-90812890D01*
X145387347Y-90808783D01*
X145387607Y-90811428D01*
X145391127Y-90811298D01*
X145390534Y-90806843D01*
X145390537Y-90806842D01*
X145402861Y-90805202D01*
X145421680Y-90804120D01*
X145444118Y-90804513D01*
X145470714Y-90792282D01*
X145540961Y-90781993D01*
X145575679Y-90792133D01*
X145584090Y-90795972D01*
X145599596Y-90803050D01*
X145613782Y-90802762D01*
X145613783Y-90802762D01*
X145618443Y-90802667D01*
X145621879Y-90802597D01*
X145640808Y-90803639D01*
X145657630Y-90805844D01*
X145657831Y-90805886D01*
X145664250Y-90809484D01*
X145678413Y-90810368D01*
X145700363Y-90811738D01*
X145708884Y-90812561D01*
X145711389Y-90812889D01*
X145720783Y-90814120D01*
X145727387Y-90813497D01*
X145727904Y-90813518D01*
X145728364Y-90813485D01*
X145735142Y-90813908D01*
X145746905Y-90811965D01*
X145755603Y-90810839D01*
X145791316Y-90807474D01*
X145797767Y-90803585D01*
X145798030Y-90803520D01*
X145843755Y-90795968D01*
X145846158Y-90795595D01*
X145890142Y-90789246D01*
X145901915Y-90781331D01*
X145902626Y-90781057D01*
X145922312Y-90770559D01*
X145922941Y-90770117D01*
X145936076Y-90764749D01*
X145938906Y-90761614D01*
X145998695Y-90741357D01*
X146073049Y-90761942D01*
X146073445Y-90762202D01*
X146083274Y-90772435D01*
X146114413Y-90784048D01*
X146124261Y-90788206D01*
X146154304Y-90802428D01*
X146168496Y-90802337D01*
X146178822Y-90802271D01*
X146196074Y-90803346D01*
X146211571Y-90805387D01*
X146210920Y-90810330D01*
X146214782Y-90810371D01*
X146215054Y-90807484D01*
X146228396Y-90808739D01*
X146256273Y-90811362D01*
X146260922Y-90811887D01*
X146270849Y-90813194D01*
X146270850Y-90813194D01*
X146273223Y-90813507D01*
X146273224Y-90813507D01*
X146273524Y-90813546D01*
X146277865Y-90814118D01*
X146281726Y-90813757D01*
X146285770Y-90814137D01*
X146292836Y-90813197D01*
X146292839Y-90813197D01*
X146302596Y-90811899D01*
X146307460Y-90811348D01*
X146338199Y-90808471D01*
X146348404Y-90807516D01*
X146348623Y-90809855D01*
X146352631Y-90809727D01*
X146352045Y-90805323D01*
X146352047Y-90805322D01*
X146364893Y-90803614D01*
X146383701Y-90802533D01*
X146387906Y-90802607D01*
X146391957Y-90802678D01*
X146391958Y-90802678D01*
X146406144Y-90802926D01*
X146419035Y-90796997D01*
X146419037Y-90796997D01*
X146437943Y-90788302D01*
X146446614Y-90784700D01*
X146466099Y-90777443D01*
X146479399Y-90772490D01*
X146489232Y-90762263D01*
X146489235Y-90762261D01*
X146495149Y-90756109D01*
X146509021Y-90743668D01*
X146521592Y-90733971D01*
X146528882Y-90728751D01*
X146546735Y-90716904D01*
X146546736Y-90716903D01*
X146558558Y-90709058D01*
X146569714Y-90690294D01*
X146580799Y-90674532D01*
X146585666Y-90668629D01*
X146585668Y-90668625D01*
X146594693Y-90657678D01*
X146601482Y-90630043D01*
X146604626Y-90621874D01*
X146605374Y-90621017D01*
X146616222Y-90581740D01*
X146617693Y-90576809D01*
X146620569Y-90567841D01*
X146620569Y-90567840D01*
X146622730Y-90561103D01*
X146623098Y-90556843D01*
X146624283Y-90552551D01*
X146624994Y-90536198D01*
X146625341Y-90530844D01*
X146625910Y-90524261D01*
X146628822Y-90490519D01*
X146628822Y-90490518D01*
X146629903Y-90490611D01*
X146630283Y-90488053D01*
X146627887Y-90488053D01*
X146627887Y-90472388D01*
X146628006Y-90466915D01*
X146628402Y-90457815D01*
X146628402Y-90457812D01*
X146628709Y-90450745D01*
X146627897Y-90446306D01*
X146627887Y-90446002D01*
X146627887Y-90000000D01*
X147586738Y-90000000D01*
X147605767Y-90302462D01*
X147662555Y-90600154D01*
X147684566Y-90667896D01*
X147754655Y-90883606D01*
X147756206Y-90888381D01*
X147757893Y-90891967D01*
X147757895Y-90891971D01*
X147766048Y-90909296D01*
X147885242Y-91162598D01*
X148047630Y-91418480D01*
X148240808Y-91651992D01*
X148461729Y-91859450D01*
X148706910Y-92037584D01*
X148972483Y-92183585D01*
X148976152Y-92185038D01*
X148976157Y-92185040D01*
X149250591Y-92293696D01*
X149254261Y-92295149D01*
X149547800Y-92370516D01*
X149848470Y-92408500D01*
X150151530Y-92408500D01*
X150452200Y-92370516D01*
X150745739Y-92295149D01*
X150749409Y-92293696D01*
X151023843Y-92185040D01*
X151023848Y-92185038D01*
X151027517Y-92183585D01*
X151293090Y-92037584D01*
X151538271Y-91859450D01*
X151759192Y-91651992D01*
X151952370Y-91418480D01*
X152114758Y-91162598D01*
X152233952Y-90909296D01*
X152242105Y-90891971D01*
X152242107Y-90891967D01*
X152243794Y-90888381D01*
X152245346Y-90883606D01*
X152315434Y-90667896D01*
X152337445Y-90600154D01*
X152394233Y-90302462D01*
X152413262Y-90000000D01*
X152394233Y-89697538D01*
X152337445Y-89399846D01*
X152268594Y-89187945D01*
X152245020Y-89115392D01*
X152245020Y-89115391D01*
X152243794Y-89111619D01*
X152114758Y-88837402D01*
X151952370Y-88581520D01*
X151947900Y-88576116D01*
X151893930Y-88510879D01*
X151759192Y-88348008D01*
X151538271Y-88140550D01*
X151293090Y-87962416D01*
X151027517Y-87816415D01*
X151023848Y-87814962D01*
X151023843Y-87814960D01*
X150749409Y-87706304D01*
X150749408Y-87706304D01*
X150745739Y-87704851D01*
X150452200Y-87629484D01*
X150151530Y-87591500D01*
X149848470Y-87591500D01*
X149547800Y-87629484D01*
X149254261Y-87704851D01*
X149250592Y-87706304D01*
X149250591Y-87706304D01*
X148976157Y-87814960D01*
X148976152Y-87814962D01*
X148972483Y-87816415D01*
X148706910Y-87962416D01*
X148461729Y-88140550D01*
X148240808Y-88348008D01*
X148106070Y-88510879D01*
X148052101Y-88576116D01*
X148047630Y-88581520D01*
X147885242Y-88837402D01*
X147756206Y-89111619D01*
X147754980Y-89115391D01*
X147754980Y-89115392D01*
X147731406Y-89187945D01*
X147662555Y-89399846D01*
X147605767Y-89697538D01*
X147586738Y-90000000D01*
X146627887Y-90000000D01*
X146627887Y-89922404D01*
X146627900Y-89922030D01*
X146628736Y-89917468D01*
X146628013Y-89901320D01*
X146627887Y-89895684D01*
X146627887Y-89879713D01*
X146627793Y-89879301D01*
X146627767Y-89876477D01*
X146629919Y-89869938D01*
X146625599Y-89837049D01*
X146624653Y-89826279D01*
X146624565Y-89824321D01*
X146624249Y-89817252D01*
X146622369Y-89810433D01*
X146622041Y-89808361D01*
X146621597Y-89806576D01*
X146620670Y-89799513D01*
X146618183Y-89792839D01*
X146618181Y-89792829D01*
X146617551Y-89791139D01*
X146614156Y-89780644D01*
X146609190Y-89762633D01*
X146605419Y-89748954D01*
X146601374Y-89744319D01*
X146597307Y-89734273D01*
X146589631Y-89707169D01*
X146574109Y-89689632D01*
X146563127Y-89675266D01*
X146558063Y-89667552D01*
X146558062Y-89667551D01*
X146550274Y-89655687D01*
X146520828Y-89637982D01*
X146512545Y-89632545D01*
X146505775Y-89627709D01*
X146488885Y-89613231D01*
X146476392Y-89600442D01*
X146439243Y-89586942D01*
X146433681Y-89584770D01*
X146410298Y-89574995D01*
X146410297Y-89574995D01*
X146397206Y-89569522D01*
X146383039Y-89570268D01*
X146383035Y-89570267D01*
X146379068Y-89570476D01*
X146357052Y-89569706D01*
X146351342Y-89569003D01*
X146351783Y-89565422D01*
X146350450Y-89565465D01*
X146350142Y-89568257D01*
X146327226Y-89565731D01*
X146304650Y-89563242D01*
X146303151Y-89563068D01*
X146282339Y-89560505D01*
X146281027Y-89560639D01*
X146279539Y-89560475D01*
X146258842Y-89562892D01*
X146257043Y-89563088D01*
X146211859Y-89567701D01*
X146211652Y-89565674D01*
X146193146Y-89567921D01*
X146186385Y-89568873D01*
X146172245Y-89567678D01*
X146139096Y-89580315D01*
X146138154Y-89580674D01*
X146067377Y-89586249D01*
X146056296Y-89583391D01*
X146054677Y-89582894D01*
X146041565Y-89577054D01*
X146033230Y-89574328D01*
X146021065Y-89567031D01*
X145995173Y-89564648D01*
X145995405Y-89562130D01*
X145993450Y-89562279D01*
X145993318Y-89564078D01*
X145985584Y-89563510D01*
X145973032Y-89562589D01*
X145970786Y-89562403D01*
X145950334Y-89560520D01*
X145950332Y-89560520D01*
X145950521Y-89558467D01*
X145949046Y-89558067D01*
X145948600Y-89558135D01*
X145948406Y-89560780D01*
X145922660Y-89558890D01*
X145909459Y-89564090D01*
X145901242Y-89565340D01*
X145886805Y-89569099D01*
X145866689Y-89571816D01*
X145866384Y-89571834D01*
X145859009Y-89569998D01*
X145823988Y-89577268D01*
X145815264Y-89578761D01*
X145807148Y-89579857D01*
X145736966Y-89569151D01*
X145683711Y-89522199D01*
X145664866Y-89467032D01*
X145663357Y-89451318D01*
X145662900Y-89444753D01*
X145662573Y-89437235D01*
X145662266Y-89430170D01*
X145660820Y-89424899D01*
X145660280Y-89419275D01*
X145655696Y-89405524D01*
X145653720Y-89399016D01*
X145645419Y-89368752D01*
X145645418Y-89368750D01*
X145643525Y-89361848D01*
X145642149Y-89360267D01*
X145638740Y-89351421D01*
X145635820Y-89339679D01*
X145632396Y-89325909D01*
X145617723Y-89308213D01*
X145607038Y-89293218D01*
X145602476Y-89285710D01*
X145595107Y-89273583D01*
X145583210Y-89265853D01*
X145583208Y-89265851D01*
X145565948Y-89254637D01*
X145558092Y-89249095D01*
X145546498Y-89240235D01*
X145532189Y-89227463D01*
X145526784Y-89221843D01*
X145516950Y-89211618D01*
X145503658Y-89206670D01*
X145503655Y-89206668D01*
X145483729Y-89199251D01*
X145475396Y-89195804D01*
X145443132Y-89181076D01*
X145428948Y-89181364D01*
X145428947Y-89181364D01*
X145424632Y-89181452D01*
X145420853Y-89181529D01*
X145401922Y-89180486D01*
X145388234Y-89178692D01*
X145388232Y-89178691D01*
X145388878Y-89173761D01*
X145385018Y-89173722D01*
X145384750Y-89176596D01*
X145343527Y-89172745D01*
X145338897Y-89172226D01*
X145331916Y-89171311D01*
X145328949Y-89170922D01*
X145328948Y-89170922D01*
X145321943Y-89170004D01*
X145318078Y-89170368D01*
X145314029Y-89169990D01*
X145297188Y-89172241D01*
X145292348Y-89172793D01*
X145262767Y-89175579D01*
X145251409Y-89176649D01*
X145251189Y-89174313D01*
X145247179Y-89174443D01*
X145247768Y-89178845D01*
X145247765Y-89178846D01*
X145233076Y-89180810D01*
X145215954Y-89181920D01*
X145191260Y-89181835D01*
X145162010Y-89195789D01*
X145161700Y-89195937D01*
X145151502Y-89200262D01*
X145120818Y-89211712D01*
X145103510Y-89229737D01*
X145090988Y-89241135D01*
X145083790Y-89246851D01*
X145071515Y-89255459D01*
X145048032Y-89269922D01*
X145031908Y-89295064D01*
X145024188Y-89305813D01*
X145016758Y-89315089D01*
X145005505Y-89329137D01*
X145001106Y-89348199D01*
X144996190Y-89361245D01*
X144994563Y-89363108D01*
X144985232Y-89396893D01*
X144982392Y-89405856D01*
X144978719Y-89416102D01*
X144977872Y-89423132D01*
X144977739Y-89423695D01*
X144977667Y-89423976D01*
X144977553Y-89424700D01*
X144975654Y-89431574D01*
X144975345Y-89438696D01*
X144975344Y-89438699D01*
X144975187Y-89442324D01*
X144974400Y-89451943D01*
X144973942Y-89455741D01*
X144945928Y-89520977D01*
X144887092Y-89560712D01*
X144861653Y-89566003D01*
X144845021Y-89567701D01*
X144845020Y-89567702D01*
X144845018Y-89567702D01*
X144844811Y-89565673D01*
X144826343Y-89567916D01*
X144819547Y-89568873D01*
X144805409Y-89567678D01*
X144792152Y-89572732D01*
X144792151Y-89572732D01*
X144771317Y-89580674D01*
X144700540Y-89586249D01*
X144689547Y-89583418D01*
X144687927Y-89582922D01*
X144674780Y-89577071D01*
X144666391Y-89574328D01*
X144654227Y-89567031D01*
X144628335Y-89564648D01*
X144628567Y-89562130D01*
X144626608Y-89562279D01*
X144626476Y-89564078D01*
X144614678Y-89563212D01*
X144606211Y-89562590D01*
X144603957Y-89562404D01*
X144583497Y-89560520D01*
X144583686Y-89558468D01*
X144582207Y-89558067D01*
X144581761Y-89558135D01*
X144581567Y-89560780D01*
X144555821Y-89558890D01*
X144542620Y-89564090D01*
X144534404Y-89565340D01*
X144519967Y-89569099D01*
X144499851Y-89571816D01*
X144499546Y-89571834D01*
X144492170Y-89569998D01*
X144478276Y-89572882D01*
X144478275Y-89572882D01*
X144457159Y-89577265D01*
X144448415Y-89578761D01*
X144443923Y-89579368D01*
X144443918Y-89579369D01*
X144436914Y-89580315D01*
X144430526Y-89582708D01*
X144429956Y-89582839D01*
X144429453Y-89583016D01*
X144422623Y-89584434D01*
X144412154Y-89589244D01*
X144403808Y-89592720D01*
X144370572Y-89605173D01*
X144365195Y-89610788D01*
X144364870Y-89610968D01*
X144349652Y-89617960D01*
X144349475Y-89618025D01*
X144342188Y-89618387D01*
X144329729Y-89625163D01*
X144329728Y-89625163D01*
X144310325Y-89635715D01*
X144302740Y-89639516D01*
X144291735Y-89644572D01*
X144286511Y-89648585D01*
X144286076Y-89648834D01*
X144285712Y-89649101D01*
X144279789Y-89652322D01*
X144273906Y-89657525D01*
X144270804Y-89660268D01*
X144264086Y-89665808D01*
X144235549Y-89687727D01*
X144232813Y-89684165D01*
X144196087Y-89708926D01*
X144125107Y-89710488D01*
X144093644Y-89694877D01*
X144090704Y-89693517D01*
X144090443Y-89693289D01*
X144080923Y-89688565D01*
X144071070Y-89680956D01*
X144073199Y-89678200D01*
X144071525Y-89676735D01*
X144068768Y-89680468D01*
X144047978Y-89665112D01*
X144050237Y-89662053D01*
X144048026Y-89660866D01*
X144046678Y-89662787D01*
X144010943Y-89637710D01*
X144008458Y-89635921D01*
X144004846Y-89633253D01*
X143993072Y-89624556D01*
X143990757Y-89623544D01*
X143988536Y-89621986D01*
X143970841Y-89614798D01*
X143967897Y-89613557D01*
X143928151Y-89596191D01*
X143929426Y-89593273D01*
X143927025Y-89592044D01*
X143925298Y-89596296D01*
X143905428Y-89588223D01*
X143907300Y-89583617D01*
X143903743Y-89582638D01*
X143902719Y-89585440D01*
X143863556Y-89571127D01*
X143859391Y-89569520D01*
X143849872Y-89565653D01*
X143849869Y-89565652D01*
X143848231Y-89564987D01*
X143848230Y-89564986D01*
X143847360Y-89564632D01*
X143847355Y-89564631D01*
X143843316Y-89562990D01*
X143839656Y-89562393D01*
X143836005Y-89561059D01*
X143820786Y-89559157D01*
X143818892Y-89558920D01*
X143814245Y-89558251D01*
X143773393Y-89551591D01*
X143773788Y-89549167D01*
X143770039Y-89548317D01*
X143769486Y-89552744D01*
X143747187Y-89549956D01*
X143747638Y-89546348D01*
X143745352Y-89546412D01*
X143745119Y-89548686D01*
X143701332Y-89544193D01*
X143698598Y-89543883D01*
X143690827Y-89542911D01*
X143684572Y-89542129D01*
X143684570Y-89542129D01*
X143679219Y-89541460D01*
X143676931Y-89541689D01*
X143674461Y-89541436D01*
X143655189Y-89543834D01*
X143652268Y-89544162D01*
X143621165Y-89547279D01*
X143608726Y-89548526D01*
X143608395Y-89545219D01*
X143605923Y-89545314D01*
X143606492Y-89549892D01*
X143584361Y-89552645D01*
X143583733Y-89547594D01*
X143580131Y-89548499D01*
X143580619Y-89551532D01*
X143539490Y-89558145D01*
X143535047Y-89558779D01*
X143524862Y-89560046D01*
X143524859Y-89560047D01*
X143523057Y-89560271D01*
X143523056Y-89560271D01*
X143522147Y-89560384D01*
X143522146Y-89560384D01*
X143517849Y-89560919D01*
X143514350Y-89562188D01*
X143510491Y-89562809D01*
X143494482Y-89569305D01*
X143490126Y-89570977D01*
X143451249Y-89585082D01*
X143450415Y-89582784D01*
X143446714Y-89583875D01*
X143448390Y-89588007D01*
X143428851Y-89595935D01*
X143426890Y-89591102D01*
X143424489Y-89592407D01*
X143425983Y-89595829D01*
X143386325Y-89613143D01*
X143383289Y-89614422D01*
X143365793Y-89621521D01*
X143363555Y-89623084D01*
X143360887Y-89624249D01*
X143345796Y-89635430D01*
X143343027Y-89637423D01*
X143307713Y-89662091D01*
X143307712Y-89662092D01*
X143305959Y-89659582D01*
X143303493Y-89661089D01*
X143306212Y-89664759D01*
X143285883Y-89679821D01*
X143283677Y-89676843D01*
X143282095Y-89678428D01*
X143283559Y-89680318D01*
X143248717Y-89707320D01*
X143246547Y-89708964D01*
X143235198Y-89717373D01*
X143235191Y-89717379D01*
X143230807Y-89720628D01*
X143229340Y-89722339D01*
X143227417Y-89723829D01*
X143215106Y-89738884D01*
X143213214Y-89741143D01*
X143184687Y-89774409D01*
X143182141Y-89772226D01*
X143180452Y-89773967D01*
X143184027Y-89776891D01*
X143165063Y-89800082D01*
X143159169Y-89803289D01*
X143150890Y-89814792D01*
X143137405Y-89833527D01*
X143132678Y-89839685D01*
X143124412Y-89849793D01*
X143121692Y-89855266D01*
X143121486Y-89855569D01*
X143121337Y-89855850D01*
X143117675Y-89860938D01*
X143114914Y-89867507D01*
X143114914Y-89867508D01*
X143112651Y-89872893D01*
X143109329Y-89880146D01*
X143092884Y-89913238D01*
X143092797Y-89920126D01*
X143092782Y-89920171D01*
X143080881Y-89948490D01*
X143076455Y-89946630D01*
X143075103Y-89951616D01*
X143076987Y-89952299D01*
X143066012Y-89982562D01*
X143063611Y-89989181D01*
X143061326Y-89995022D01*
X143055513Y-90008854D01*
X143054612Y-90013993D01*
X143052770Y-90019072D01*
X143051904Y-90026138D01*
X143051902Y-90026147D01*
X143050956Y-90033868D01*
X143049999Y-90040299D01*
X143043278Y-90078636D01*
X143041779Y-90078373D01*
X143040543Y-90083539D01*
X143044808Y-90084061D01*
X143040601Y-90118406D01*
X143035578Y-90117791D01*
X143035558Y-90121139D01*
X143038795Y-90121430D01*
X143035011Y-90163499D01*
X143034587Y-90167497D01*
X143032405Y-90185308D01*
X132629376Y-90185308D01*
X132625725Y-90172876D01*
X132624335Y-90171671D01*
X132616652Y-90170000D01*
X131544315Y-90170000D01*
X131529076Y-90174475D01*
X131527871Y-90175865D01*
X131526200Y-90183548D01*
X131526200Y-91255884D01*
X131018200Y-91255884D01*
X131018200Y-89643885D01*
X131526200Y-89643885D01*
X131530675Y-89659124D01*
X131532065Y-89660329D01*
X131539748Y-89662000D01*
X132612084Y-89662000D01*
X132627323Y-89657525D01*
X132628528Y-89656135D01*
X132630199Y-89648452D01*
X132630199Y-89021331D01*
X132629829Y-89014510D01*
X132624305Y-88963648D01*
X132620679Y-88948396D01*
X132575524Y-88827946D01*
X132566986Y-88812351D01*
X132490485Y-88710276D01*
X132477924Y-88697715D01*
X132375849Y-88621214D01*
X132360254Y-88612676D01*
X132239806Y-88567522D01*
X132224551Y-88563895D01*
X132173686Y-88558369D01*
X132166872Y-88558000D01*
X131544315Y-88558000D01*
X131529076Y-88562475D01*
X131527871Y-88563865D01*
X131526200Y-88571548D01*
X131526200Y-89643885D01*
X131018200Y-89643885D01*
X131018200Y-88576116D01*
X131013725Y-88560877D01*
X131012335Y-88559672D01*
X131004652Y-88558001D01*
X130377531Y-88558001D01*
X130370710Y-88558371D01*
X130319848Y-88563895D01*
X130304596Y-88567521D01*
X130184146Y-88612676D01*
X130168551Y-88621214D01*
X130066476Y-88697715D01*
X130053915Y-88710276D01*
X129977414Y-88812351D01*
X129968876Y-88827946D01*
X129923722Y-88948394D01*
X129920095Y-88963649D01*
X129914569Y-89014514D01*
X129914200Y-89021328D01*
X129914200Y-89378900D01*
X129894198Y-89447021D01*
X129840542Y-89493514D01*
X129770268Y-89503618D01*
X129705688Y-89474124D01*
X129676949Y-89438054D01*
X129621009Y-89332847D01*
X129621008Y-89332845D01*
X129618113Y-89327401D01*
X129558768Y-89254637D01*
X129490810Y-89171311D01*
X129490807Y-89171308D01*
X129486915Y-89166536D01*
X129479970Y-89160790D01*
X129331718Y-89038145D01*
X129331719Y-89038145D01*
X129326970Y-89034217D01*
X129321553Y-89031288D01*
X129321550Y-89031286D01*
X129149790Y-88938416D01*
X129149785Y-88938414D01*
X129144370Y-88935486D01*
X128946071Y-88874102D01*
X128939946Y-88873458D01*
X128939945Y-88873458D01*
X128745754Y-88853048D01*
X128745752Y-88853048D01*
X128739625Y-88852404D01*
X128653715Y-88860223D01*
X128539036Y-88870659D01*
X128539033Y-88870660D01*
X128532897Y-88871218D01*
X128526991Y-88872956D01*
X128526987Y-88872957D01*
X128379132Y-88916473D01*
X128333760Y-88929827D01*
X128149800Y-89025999D01*
X127988023Y-89156071D01*
X127984065Y-89160788D01*
X127984063Y-89160790D01*
X127909967Y-89249095D01*
X127854591Y-89315089D01*
X127851627Y-89320481D01*
X127851624Y-89320485D01*
X127777267Y-89455741D01*
X127754587Y-89496995D01*
X127691821Y-89694861D01*
X127691135Y-89700978D01*
X127691134Y-89700982D01*
X127671038Y-89880148D01*
X127668682Y-89901150D01*
X112407043Y-89901150D01*
X112394233Y-89697538D01*
X112337445Y-89399846D01*
X112268594Y-89187945D01*
X112245020Y-89115392D01*
X112245020Y-89115391D01*
X112243794Y-89111619D01*
X112114758Y-88837402D01*
X111952370Y-88581520D01*
X111947900Y-88576116D01*
X111893930Y-88510879D01*
X111759192Y-88348008D01*
X111538271Y-88140550D01*
X111293090Y-87962416D01*
X111027517Y-87816415D01*
X111023848Y-87814962D01*
X111023843Y-87814960D01*
X110749409Y-87706304D01*
X110749408Y-87706304D01*
X110745739Y-87704851D01*
X110452200Y-87629484D01*
X110151530Y-87591500D01*
X109848470Y-87591500D01*
X109547800Y-87629484D01*
X109254261Y-87704851D01*
X109250592Y-87706304D01*
X109250591Y-87706304D01*
X108976157Y-87814960D01*
X108976152Y-87814962D01*
X108972483Y-87816415D01*
X108706910Y-87962416D01*
X108461729Y-88140550D01*
X108240808Y-88348008D01*
X108106070Y-88510879D01*
X108052101Y-88576116D01*
X108047630Y-88581520D01*
X107885242Y-88837402D01*
X107756206Y-89111619D01*
X107754980Y-89115391D01*
X107754980Y-89115392D01*
X107731406Y-89187945D01*
X107662555Y-89399846D01*
X107605767Y-89697538D01*
X107586738Y-90000000D01*
X107213265Y-90000000D01*
X107210217Y-89986531D01*
X107210224Y-89982562D01*
X107208000Y-89962656D01*
X107208000Y-80429463D01*
X108941500Y-80429463D01*
X108941501Y-82170536D01*
X108953597Y-82231353D01*
X108999680Y-82300320D01*
X109068647Y-82346403D01*
X109080816Y-82348824D01*
X109080817Y-82348824D01*
X109122519Y-82357119D01*
X109129463Y-82358500D01*
X109999859Y-82358500D01*
X110870536Y-82358499D01*
X110931353Y-82346403D01*
X110941670Y-82339510D01*
X110941671Y-82339509D01*
X110990007Y-82307211D01*
X111000320Y-82300320D01*
X111046403Y-82231353D01*
X111048825Y-82219180D01*
X111057293Y-82176605D01*
X111058500Y-82170537D01*
X111058499Y-80429464D01*
X111046403Y-80368647D01*
X111000320Y-80299680D01*
X110931353Y-80253597D01*
X110919184Y-80251176D01*
X110919183Y-80251176D01*
X110876605Y-80242707D01*
X110870537Y-80241500D01*
X110000141Y-80241500D01*
X109129464Y-80241501D01*
X109068647Y-80253597D01*
X109058330Y-80260490D01*
X109058329Y-80260491D01*
X109014065Y-80290068D01*
X108999680Y-80299680D01*
X108953597Y-80368647D01*
X108951176Y-80380816D01*
X108951176Y-80380817D01*
X108942881Y-80422519D01*
X108941500Y-80429463D01*
X107208000Y-80429463D01*
X107208000Y-78745150D01*
X108936482Y-78745150D01*
X108953852Y-78952004D01*
X109011069Y-79151545D01*
X109013887Y-79157027D01*
X109013888Y-79157031D01*
X109103135Y-79330686D01*
X109105955Y-79336173D01*
X109234894Y-79498854D01*
X109239581Y-79502843D01*
X109239584Y-79502846D01*
X109271778Y-79530245D01*
X109392976Y-79633392D01*
X109574180Y-79734664D01*
X109771603Y-79798810D01*
X109977725Y-79823389D01*
X109983860Y-79822917D01*
X109983862Y-79822917D01*
X110178555Y-79807936D01*
X110178560Y-79807935D01*
X110184696Y-79807463D01*
X110190626Y-79805807D01*
X110190628Y-79805807D01*
X110284664Y-79779551D01*
X110384632Y-79751640D01*
X110569917Y-79658046D01*
X110733495Y-79530245D01*
X110869133Y-79373106D01*
X110971667Y-79192614D01*
X111037190Y-78995644D01*
X111063207Y-78789698D01*
X111063622Y-78760000D01*
X111043365Y-78553408D01*
X110983368Y-78354685D01*
X110885913Y-78171401D01*
X110837083Y-78111529D01*
X110758610Y-78015311D01*
X110758607Y-78015308D01*
X110754715Y-78010536D01*
X110747770Y-78004790D01*
X110599518Y-77882145D01*
X110599519Y-77882145D01*
X110594770Y-77878217D01*
X110589353Y-77875288D01*
X110589350Y-77875286D01*
X110417590Y-77782416D01*
X110417585Y-77782414D01*
X110412170Y-77779486D01*
X110213871Y-77718102D01*
X110207746Y-77717458D01*
X110207745Y-77717458D01*
X110013554Y-77697048D01*
X110013552Y-77697048D01*
X110007425Y-77696404D01*
X109921515Y-77704223D01*
X109806836Y-77714659D01*
X109806833Y-77714660D01*
X109800697Y-77715218D01*
X109794791Y-77716956D01*
X109794787Y-77716957D01*
X109646932Y-77760473D01*
X109601560Y-77773827D01*
X109417600Y-77869999D01*
X109255823Y-78000071D01*
X109251865Y-78004788D01*
X109251863Y-78004790D01*
X109247042Y-78010536D01*
X109122391Y-78159089D01*
X109119427Y-78164481D01*
X109119424Y-78164485D01*
X109115622Y-78171401D01*
X109022387Y-78340995D01*
X108959621Y-78538861D01*
X108958935Y-78544978D01*
X108958934Y-78544982D01*
X108957989Y-78553408D01*
X108936482Y-78745150D01*
X107208000Y-78745150D01*
X107208000Y-70037933D01*
X107210161Y-70018898D01*
X107210169Y-70014200D01*
X107213349Y-70000372D01*
X107213265Y-70000000D01*
X107586738Y-70000000D01*
X107605767Y-70302462D01*
X107662555Y-70600154D01*
X107756206Y-70888381D01*
X107757893Y-70891967D01*
X107757895Y-70891971D01*
X107804796Y-70991640D01*
X107885242Y-71162598D01*
X108047630Y-71418480D01*
X108240808Y-71651992D01*
X108461729Y-71859450D01*
X108706910Y-72037584D01*
X108972483Y-72183585D01*
X108976152Y-72185038D01*
X108976157Y-72185040D01*
X109250591Y-72293696D01*
X109254261Y-72295149D01*
X109547800Y-72370516D01*
X109848470Y-72408500D01*
X110151530Y-72408500D01*
X110452200Y-72370516D01*
X110745739Y-72295149D01*
X110749409Y-72293696D01*
X111023843Y-72185040D01*
X111023848Y-72185038D01*
X111027517Y-72183585D01*
X111293090Y-72037584D01*
X111538271Y-71859450D01*
X111759192Y-71651992D01*
X111952370Y-71418480D01*
X112114758Y-71162598D01*
X112195204Y-70991640D01*
X112242105Y-70891971D01*
X112242107Y-70891967D01*
X112243794Y-70888381D01*
X112337445Y-70600154D01*
X112394233Y-70302462D01*
X112413262Y-70000000D01*
X112412328Y-69985150D01*
X122586482Y-69985150D01*
X122603852Y-70192004D01*
X122661069Y-70391545D01*
X122663887Y-70397027D01*
X122663888Y-70397031D01*
X122715373Y-70497209D01*
X122755955Y-70576173D01*
X122884894Y-70738854D01*
X122889581Y-70742843D01*
X122889584Y-70742846D01*
X122921778Y-70770245D01*
X123042976Y-70873392D01*
X123224180Y-70974664D01*
X123421603Y-71038810D01*
X123627725Y-71063389D01*
X123633860Y-71062917D01*
X123633862Y-71062917D01*
X123828555Y-71047936D01*
X123828560Y-71047935D01*
X123834696Y-71047463D01*
X123840626Y-71045807D01*
X123840628Y-71045807D01*
X123934664Y-71019551D01*
X124034632Y-70991640D01*
X124074190Y-70971658D01*
X124214416Y-70900825D01*
X124214418Y-70900824D01*
X124219917Y-70898046D01*
X124383495Y-70770245D01*
X124519133Y-70613106D01*
X124621667Y-70432614D01*
X124687190Y-70235644D01*
X124713207Y-70029698D01*
X124713622Y-70000000D01*
X124712166Y-69985150D01*
X125126482Y-69985150D01*
X125143852Y-70192004D01*
X125201069Y-70391545D01*
X125203887Y-70397027D01*
X125203888Y-70397031D01*
X125255373Y-70497209D01*
X125295955Y-70576173D01*
X125424894Y-70738854D01*
X125429581Y-70742843D01*
X125429584Y-70742846D01*
X125461778Y-70770245D01*
X125582976Y-70873392D01*
X125764180Y-70974664D01*
X125961603Y-71038810D01*
X126167725Y-71063389D01*
X126173860Y-71062917D01*
X126173862Y-71062917D01*
X126368555Y-71047936D01*
X126368560Y-71047935D01*
X126374696Y-71047463D01*
X126380626Y-71045807D01*
X126380628Y-71045807D01*
X126474664Y-71019551D01*
X126574632Y-70991640D01*
X126614190Y-70971658D01*
X126754416Y-70900825D01*
X126754418Y-70900824D01*
X126759917Y-70898046D01*
X126923495Y-70770245D01*
X127059133Y-70613106D01*
X127161667Y-70432614D01*
X127227190Y-70235644D01*
X127253207Y-70029698D01*
X127253622Y-70000000D01*
X127252166Y-69985150D01*
X127666482Y-69985150D01*
X127683852Y-70192004D01*
X127741069Y-70391545D01*
X127743887Y-70397027D01*
X127743888Y-70397031D01*
X127795373Y-70497209D01*
X127835955Y-70576173D01*
X127964894Y-70738854D01*
X127969581Y-70742843D01*
X127969584Y-70742846D01*
X128001778Y-70770245D01*
X128122976Y-70873392D01*
X128304180Y-70974664D01*
X128501603Y-71038810D01*
X128707725Y-71063389D01*
X128713860Y-71062917D01*
X128713862Y-71062917D01*
X128908555Y-71047936D01*
X128908560Y-71047935D01*
X128914696Y-71047463D01*
X128920626Y-71045807D01*
X128920628Y-71045807D01*
X129014664Y-71019551D01*
X129114632Y-70991640D01*
X129154190Y-70971658D01*
X129294416Y-70900825D01*
X129294418Y-70900824D01*
X129299917Y-70898046D01*
X129463495Y-70770245D01*
X129599133Y-70613106D01*
X129701667Y-70432614D01*
X129767190Y-70235644D01*
X129793207Y-70029698D01*
X129793622Y-70000000D01*
X129792166Y-69985150D01*
X130206482Y-69985150D01*
X130223852Y-70192004D01*
X130281069Y-70391545D01*
X130283887Y-70397027D01*
X130283888Y-70397031D01*
X130335373Y-70497209D01*
X130375955Y-70576173D01*
X130504894Y-70738854D01*
X130509581Y-70742843D01*
X130509584Y-70742846D01*
X130541778Y-70770245D01*
X130662976Y-70873392D01*
X130844180Y-70974664D01*
X131041603Y-71038810D01*
X131247725Y-71063389D01*
X131253860Y-71062917D01*
X131253862Y-71062917D01*
X131448555Y-71047936D01*
X131448560Y-71047935D01*
X131454696Y-71047463D01*
X131460626Y-71045807D01*
X131460628Y-71045807D01*
X131554664Y-71019551D01*
X131654632Y-70991640D01*
X131694190Y-70971658D01*
X131834416Y-70900825D01*
X131834418Y-70900824D01*
X131839917Y-70898046D01*
X132003495Y-70770245D01*
X132139133Y-70613106D01*
X132241667Y-70432614D01*
X132307190Y-70235644D01*
X132333207Y-70029698D01*
X132333622Y-70000000D01*
X132332166Y-69985150D01*
X132746482Y-69985150D01*
X132763852Y-70192004D01*
X132821069Y-70391545D01*
X132823887Y-70397027D01*
X132823888Y-70397031D01*
X132875373Y-70497209D01*
X132915955Y-70576173D01*
X133044894Y-70738854D01*
X133049581Y-70742843D01*
X133049584Y-70742846D01*
X133081778Y-70770245D01*
X133202976Y-70873392D01*
X133384180Y-70974664D01*
X133581603Y-71038810D01*
X133787725Y-71063389D01*
X133793860Y-71062917D01*
X133793862Y-71062917D01*
X133988555Y-71047936D01*
X133988560Y-71047935D01*
X133994696Y-71047463D01*
X134000626Y-71045807D01*
X134000628Y-71045807D01*
X134094664Y-71019551D01*
X134194632Y-70991640D01*
X134234190Y-70971658D01*
X134374416Y-70900825D01*
X134374418Y-70900824D01*
X134379917Y-70898046D01*
X134543495Y-70770245D01*
X134679133Y-70613106D01*
X134756445Y-70477013D01*
X134807484Y-70427662D01*
X134877102Y-70413740D01*
X134943196Y-70439666D01*
X134984781Y-70497209D01*
X134992001Y-70539250D01*
X134992001Y-70894669D01*
X134992371Y-70901490D01*
X134997895Y-70952352D01*
X135001521Y-70967604D01*
X135046676Y-71088054D01*
X135055214Y-71103649D01*
X135131715Y-71205724D01*
X135144276Y-71218285D01*
X135246351Y-71294786D01*
X135261946Y-71303324D01*
X135382394Y-71348478D01*
X135397649Y-71352105D01*
X135448514Y-71357631D01*
X135455328Y-71358000D01*
X136077885Y-71358000D01*
X136093124Y-71353525D01*
X136094329Y-71352135D01*
X136096000Y-71344452D01*
X136096000Y-71339884D01*
X136604000Y-71339884D01*
X136608475Y-71355123D01*
X136609865Y-71356328D01*
X136617548Y-71357999D01*
X137244669Y-71357999D01*
X137251490Y-71357629D01*
X137302352Y-71352105D01*
X137317604Y-71348479D01*
X137438054Y-71303324D01*
X137453649Y-71294786D01*
X137555724Y-71218285D01*
X137568285Y-71205724D01*
X137644786Y-71103649D01*
X137653324Y-71088054D01*
X137698478Y-70967606D01*
X137702105Y-70952351D01*
X137707631Y-70901486D01*
X137708000Y-70894672D01*
X137708000Y-70272115D01*
X137703525Y-70256876D01*
X137702135Y-70255671D01*
X137694452Y-70254000D01*
X136622115Y-70254000D01*
X136606876Y-70258475D01*
X136605671Y-70259865D01*
X136604000Y-70267548D01*
X136604000Y-71339884D01*
X136096000Y-71339884D01*
X136096000Y-70000000D01*
X147586738Y-70000000D01*
X147605767Y-70302462D01*
X147662555Y-70600154D01*
X147756206Y-70888381D01*
X147757893Y-70891967D01*
X147757895Y-70891971D01*
X147804796Y-70991640D01*
X147885242Y-71162598D01*
X148047630Y-71418480D01*
X148240808Y-71651992D01*
X148461729Y-71859450D01*
X148706910Y-72037584D01*
X148972483Y-72183585D01*
X148976152Y-72185038D01*
X148976157Y-72185040D01*
X149250591Y-72293696D01*
X149254261Y-72295149D01*
X149547800Y-72370516D01*
X149848470Y-72408500D01*
X150151530Y-72408500D01*
X150452200Y-72370516D01*
X150745739Y-72295149D01*
X150749409Y-72293696D01*
X151023843Y-72185040D01*
X151023848Y-72185038D01*
X151027517Y-72183585D01*
X151293090Y-72037584D01*
X151538271Y-71859450D01*
X151759192Y-71651992D01*
X151952370Y-71418480D01*
X152114758Y-71162598D01*
X152195204Y-70991640D01*
X152242105Y-70891971D01*
X152242107Y-70891967D01*
X152243794Y-70888381D01*
X152337445Y-70600154D01*
X152394233Y-70302462D01*
X152413262Y-70000000D01*
X152394233Y-69697538D01*
X152337445Y-69399846D01*
X152243794Y-69111619D01*
X152237628Y-69098514D01*
X152169935Y-68954659D01*
X152114758Y-68837402D01*
X151952370Y-68581520D01*
X151759192Y-68348008D01*
X151538271Y-68140550D01*
X151293090Y-67962416D01*
X151027517Y-67816415D01*
X151023848Y-67814962D01*
X151023843Y-67814960D01*
X150749409Y-67706304D01*
X150749408Y-67706304D01*
X150745739Y-67704851D01*
X150452200Y-67629484D01*
X150151530Y-67591500D01*
X149848470Y-67591500D01*
X149547800Y-67629484D01*
X149254261Y-67704851D01*
X149250592Y-67706304D01*
X149250591Y-67706304D01*
X148976157Y-67814960D01*
X148976152Y-67814962D01*
X148972483Y-67816415D01*
X148706910Y-67962416D01*
X148461729Y-68140550D01*
X148240808Y-68348008D01*
X148047630Y-68581520D01*
X147885242Y-68837402D01*
X147830065Y-68954659D01*
X147762373Y-69098514D01*
X147756206Y-69111619D01*
X147662555Y-69399846D01*
X147605767Y-69697538D01*
X147586738Y-70000000D01*
X136096000Y-70000000D01*
X136096000Y-69727885D01*
X136604000Y-69727885D01*
X136608475Y-69743124D01*
X136609865Y-69744329D01*
X136617548Y-69746000D01*
X137689884Y-69746000D01*
X137705123Y-69741525D01*
X137706328Y-69740135D01*
X137707999Y-69732452D01*
X137707999Y-69105331D01*
X137707629Y-69098510D01*
X137702105Y-69047648D01*
X137698479Y-69032396D01*
X137653324Y-68911946D01*
X137644786Y-68896351D01*
X137568285Y-68794276D01*
X137555724Y-68781715D01*
X137453649Y-68705214D01*
X137438054Y-68696676D01*
X137317606Y-68651522D01*
X137302351Y-68647895D01*
X137251486Y-68642369D01*
X137244672Y-68642000D01*
X136622115Y-68642000D01*
X136606876Y-68646475D01*
X136605671Y-68647865D01*
X136604000Y-68655548D01*
X136604000Y-69727885D01*
X136096000Y-69727885D01*
X136096000Y-68660116D01*
X136091525Y-68644877D01*
X136090135Y-68643672D01*
X136082452Y-68642001D01*
X135455331Y-68642001D01*
X135448510Y-68642371D01*
X135397648Y-68647895D01*
X135382396Y-68651521D01*
X135261946Y-68696676D01*
X135246351Y-68705214D01*
X135144276Y-68781715D01*
X135131715Y-68794276D01*
X135055214Y-68896351D01*
X135046676Y-68911946D01*
X135001522Y-69032394D01*
X134997895Y-69047649D01*
X134992369Y-69098514D01*
X134992000Y-69105328D01*
X134992000Y-69462900D01*
X134971998Y-69531021D01*
X134918342Y-69577514D01*
X134848068Y-69587618D01*
X134783488Y-69558124D01*
X134754749Y-69522054D01*
X134698809Y-69416847D01*
X134698808Y-69416845D01*
X134695913Y-69411401D01*
X134631240Y-69332104D01*
X134568610Y-69255311D01*
X134568607Y-69255308D01*
X134564715Y-69250536D01*
X134557770Y-69244790D01*
X134409518Y-69122145D01*
X134409519Y-69122145D01*
X134404770Y-69118217D01*
X134399353Y-69115288D01*
X134399350Y-69115286D01*
X134227590Y-69022416D01*
X134227585Y-69022414D01*
X134222170Y-69019486D01*
X134023871Y-68958102D01*
X134017746Y-68957458D01*
X134017745Y-68957458D01*
X133823554Y-68937048D01*
X133823552Y-68937048D01*
X133817425Y-68936404D01*
X133731515Y-68944223D01*
X133616836Y-68954659D01*
X133616833Y-68954660D01*
X133610697Y-68955218D01*
X133604791Y-68956956D01*
X133604787Y-68956957D01*
X133456932Y-69000473D01*
X133411560Y-69013827D01*
X133227600Y-69109999D01*
X133065823Y-69240071D01*
X133061865Y-69244788D01*
X133061863Y-69244790D01*
X133057042Y-69250536D01*
X132932391Y-69399089D01*
X132929427Y-69404481D01*
X132929424Y-69404485D01*
X132844960Y-69558124D01*
X132832387Y-69580995D01*
X132769621Y-69778861D01*
X132768935Y-69784978D01*
X132768934Y-69784982D01*
X132747918Y-69972344D01*
X132746482Y-69985150D01*
X132332166Y-69985150D01*
X132313365Y-69793408D01*
X132253368Y-69594685D01*
X132250472Y-69589238D01*
X132158809Y-69416847D01*
X132158808Y-69416845D01*
X132155913Y-69411401D01*
X132091240Y-69332104D01*
X132028610Y-69255311D01*
X132028607Y-69255308D01*
X132024715Y-69250536D01*
X132017770Y-69244790D01*
X131869518Y-69122145D01*
X131869519Y-69122145D01*
X131864770Y-69118217D01*
X131859353Y-69115288D01*
X131859350Y-69115286D01*
X131687590Y-69022416D01*
X131687585Y-69022414D01*
X131682170Y-69019486D01*
X131483871Y-68958102D01*
X131477746Y-68957458D01*
X131477745Y-68957458D01*
X131283554Y-68937048D01*
X131283552Y-68937048D01*
X131277425Y-68936404D01*
X131191515Y-68944223D01*
X131076836Y-68954659D01*
X131076833Y-68954660D01*
X131070697Y-68955218D01*
X131064791Y-68956956D01*
X131064787Y-68956957D01*
X130916932Y-69000473D01*
X130871560Y-69013827D01*
X130687600Y-69109999D01*
X130525823Y-69240071D01*
X130521865Y-69244788D01*
X130521863Y-69244790D01*
X130517042Y-69250536D01*
X130392391Y-69399089D01*
X130389427Y-69404481D01*
X130389424Y-69404485D01*
X130304960Y-69558124D01*
X130292387Y-69580995D01*
X130229621Y-69778861D01*
X130228935Y-69784978D01*
X130228934Y-69784982D01*
X130207918Y-69972344D01*
X130206482Y-69985150D01*
X129792166Y-69985150D01*
X129773365Y-69793408D01*
X129713368Y-69594685D01*
X129710472Y-69589238D01*
X129618809Y-69416847D01*
X129618808Y-69416845D01*
X129615913Y-69411401D01*
X129551240Y-69332104D01*
X129488610Y-69255311D01*
X129488607Y-69255308D01*
X129484715Y-69250536D01*
X129477770Y-69244790D01*
X129329518Y-69122145D01*
X129329519Y-69122145D01*
X129324770Y-69118217D01*
X129319353Y-69115288D01*
X129319350Y-69115286D01*
X129147590Y-69022416D01*
X129147585Y-69022414D01*
X129142170Y-69019486D01*
X128943871Y-68958102D01*
X128937746Y-68957458D01*
X128937745Y-68957458D01*
X128743554Y-68937048D01*
X128743552Y-68937048D01*
X128737425Y-68936404D01*
X128651515Y-68944223D01*
X128536836Y-68954659D01*
X128536833Y-68954660D01*
X128530697Y-68955218D01*
X128524791Y-68956956D01*
X128524787Y-68956957D01*
X128376932Y-69000473D01*
X128331560Y-69013827D01*
X128147600Y-69109999D01*
X127985823Y-69240071D01*
X127981865Y-69244788D01*
X127981863Y-69244790D01*
X127977042Y-69250536D01*
X127852391Y-69399089D01*
X127849427Y-69404481D01*
X127849424Y-69404485D01*
X127764960Y-69558124D01*
X127752387Y-69580995D01*
X127689621Y-69778861D01*
X127688935Y-69784978D01*
X127688934Y-69784982D01*
X127667918Y-69972344D01*
X127666482Y-69985150D01*
X127252166Y-69985150D01*
X127233365Y-69793408D01*
X127173368Y-69594685D01*
X127170472Y-69589238D01*
X127078809Y-69416847D01*
X127078808Y-69416845D01*
X127075913Y-69411401D01*
X127011240Y-69332104D01*
X126948610Y-69255311D01*
X126948607Y-69255308D01*
X126944715Y-69250536D01*
X126937770Y-69244790D01*
X126789518Y-69122145D01*
X126789519Y-69122145D01*
X126784770Y-69118217D01*
X126779353Y-69115288D01*
X126779350Y-69115286D01*
X126607590Y-69022416D01*
X126607585Y-69022414D01*
X126602170Y-69019486D01*
X126403871Y-68958102D01*
X126397746Y-68957458D01*
X126397745Y-68957458D01*
X126203554Y-68937048D01*
X126203552Y-68937048D01*
X126197425Y-68936404D01*
X126111515Y-68944223D01*
X125996836Y-68954659D01*
X125996833Y-68954660D01*
X125990697Y-68955218D01*
X125984791Y-68956956D01*
X125984787Y-68956957D01*
X125836932Y-69000473D01*
X125791560Y-69013827D01*
X125607600Y-69109999D01*
X125445823Y-69240071D01*
X125441865Y-69244788D01*
X125441863Y-69244790D01*
X125437042Y-69250536D01*
X125312391Y-69399089D01*
X125309427Y-69404481D01*
X125309424Y-69404485D01*
X125224960Y-69558124D01*
X125212387Y-69580995D01*
X125149621Y-69778861D01*
X125148935Y-69784978D01*
X125148934Y-69784982D01*
X125127918Y-69972344D01*
X125126482Y-69985150D01*
X124712166Y-69985150D01*
X124693365Y-69793408D01*
X124633368Y-69594685D01*
X124630472Y-69589238D01*
X124538809Y-69416847D01*
X124538808Y-69416845D01*
X124535913Y-69411401D01*
X124471240Y-69332104D01*
X124408610Y-69255311D01*
X124408607Y-69255308D01*
X124404715Y-69250536D01*
X124397770Y-69244790D01*
X124249518Y-69122145D01*
X124249519Y-69122145D01*
X124244770Y-69118217D01*
X124239353Y-69115288D01*
X124239350Y-69115286D01*
X124067590Y-69022416D01*
X124067585Y-69022414D01*
X124062170Y-69019486D01*
X123863871Y-68958102D01*
X123857746Y-68957458D01*
X123857745Y-68957458D01*
X123663554Y-68937048D01*
X123663552Y-68937048D01*
X123657425Y-68936404D01*
X123571515Y-68944223D01*
X123456836Y-68954659D01*
X123456833Y-68954660D01*
X123450697Y-68955218D01*
X123444791Y-68956956D01*
X123444787Y-68956957D01*
X123296932Y-69000473D01*
X123251560Y-69013827D01*
X123067600Y-69109999D01*
X122905823Y-69240071D01*
X122901865Y-69244788D01*
X122901863Y-69244790D01*
X122897042Y-69250536D01*
X122772391Y-69399089D01*
X122769427Y-69404481D01*
X122769424Y-69404485D01*
X122684960Y-69558124D01*
X122672387Y-69580995D01*
X122609621Y-69778861D01*
X122608935Y-69784978D01*
X122608934Y-69784982D01*
X122587918Y-69972344D01*
X122586482Y-69985150D01*
X112412328Y-69985150D01*
X112394233Y-69697538D01*
X112337445Y-69399846D01*
X112243794Y-69111619D01*
X112237628Y-69098514D01*
X112169935Y-68954659D01*
X112114758Y-68837402D01*
X111952370Y-68581520D01*
X111759192Y-68348008D01*
X111538271Y-68140550D01*
X111293090Y-67962416D01*
X111027517Y-67816415D01*
X111023848Y-67814962D01*
X111023843Y-67814960D01*
X110749409Y-67706304D01*
X110749408Y-67706304D01*
X110745739Y-67704851D01*
X110452200Y-67629484D01*
X110151530Y-67591500D01*
X109848470Y-67591500D01*
X109547800Y-67629484D01*
X109254261Y-67704851D01*
X109250592Y-67706304D01*
X109250591Y-67706304D01*
X108976157Y-67814960D01*
X108976152Y-67814962D01*
X108972483Y-67816415D01*
X108706910Y-67962416D01*
X108461729Y-68140550D01*
X108240808Y-68348008D01*
X108047630Y-68581520D01*
X107885242Y-68837402D01*
X107830065Y-68954659D01*
X107762373Y-69098514D01*
X107756206Y-69111619D01*
X107662555Y-69399846D01*
X107605767Y-69697538D01*
X107586738Y-70000000D01*
X107213265Y-70000000D01*
X107210217Y-69986532D01*
X107210242Y-69972344D01*
X107210757Y-69972345D01*
X107210038Y-69963721D01*
X107219602Y-69793408D01*
X107225159Y-69694456D01*
X107226741Y-69680419D01*
X107242509Y-69587618D01*
X107263699Y-69462900D01*
X107276816Y-69385698D01*
X107279960Y-69371923D01*
X107351920Y-69122145D01*
X107362722Y-69084651D01*
X107367383Y-69071330D01*
X107481789Y-68795130D01*
X107487918Y-68782404D01*
X107632521Y-68520764D01*
X107640039Y-68508799D01*
X107813035Y-68264986D01*
X107821844Y-68253940D01*
X108021043Y-68031035D01*
X108031035Y-68021043D01*
X108253940Y-67821844D01*
X108264986Y-67813035D01*
X108508799Y-67640039D01*
X108520764Y-67632521D01*
X108782404Y-67487918D01*
X108795130Y-67481789D01*
X109071330Y-67367383D01*
X109084651Y-67362722D01*
X109283322Y-67305485D01*
X109371923Y-67279960D01*
X109385698Y-67276816D01*
X109533058Y-67251779D01*
X109680423Y-67226740D01*
X109694456Y-67225159D01*
X109963145Y-67210070D01*
X109971611Y-67210791D01*
X109971612Y-67210144D01*
X109985797Y-67210169D01*
X109999628Y-67213349D01*
X110013469Y-67210217D01*
X110017438Y-67210224D01*
X110037344Y-67208000D01*
X149962067Y-67208000D01*
X149981102Y-67210161D01*
G37*
%TD.AperFunction*%
M02*
