%TF.GenerationSoftware,KiCad,Pcbnew,(6.0.0)*%
%TF.CreationDate,2023-02-05T21:46:31-06:00*%
%TF.ProjectId,drv8212p_eval,64727638-3231-4327-905f-6576616c2e6b,rev?*%
%TF.SameCoordinates,Original*%
%TF.FileFunction,Soldermask,Top*%
%TF.FilePolarity,Negative*%
%FSLAX46Y46*%
G04 Gerber Fmt 4.6, Leading zero omitted, Abs format (unit mm)*
G04 Created by KiCad (PCBNEW (6.0.0)) date 2023-02-05 21:46:31*
%MOMM*%
%LPD*%
G01*
G04 APERTURE LIST*
G04 Aperture macros list*
%AMRoundRect*
0 Rectangle with rounded corners*
0 $1 Rounding radius*
0 $2 $3 $4 $5 $6 $7 $8 $9 X,Y pos of 4 corners*
0 Add a 4 corners polygon primitive as box body*
4,1,4,$2,$3,$4,$5,$6,$7,$8,$9,$2,$3,0*
0 Add four circle primitives for the rounded corners*
1,1,$1+$1,$2,$3*
1,1,$1+$1,$4,$5*
1,1,$1+$1,$6,$7*
1,1,$1+$1,$8,$9*
0 Add four rect primitives between the rounded corners*
20,1,$1+$1,$2,$3,$4,$5,0*
20,1,$1+$1,$4,$5,$6,$7,0*
20,1,$1+$1,$6,$7,$8,$9,0*
20,1,$1+$1,$8,$9,$2,$3,0*%
%AMFreePoly0*
4,1,22,0.500000,-0.750000,0.000000,-0.750000,0.000000,-0.745033,-0.079941,-0.743568,-0.215256,-0.701293,-0.333266,-0.622738,-0.424486,-0.514219,-0.481581,-0.384460,-0.499164,-0.250000,-0.500000,-0.250000,-0.500000,0.250000,-0.499164,0.250000,-0.499963,0.256109,-0.478152,0.396186,-0.417904,0.524511,-0.324060,0.630769,-0.204165,0.706417,-0.067858,0.745374,0.000000,0.744959,0.000000,0.750000,
0.500000,0.750000,0.500000,-0.750000,0.500000,-0.750000,$1*%
%AMFreePoly1*
4,1,20,0.000000,0.744959,0.073905,0.744508,0.209726,0.703889,0.328688,0.626782,0.421226,0.519385,0.479903,0.390333,0.500000,0.250000,0.500000,-0.250000,0.499851,-0.262216,0.476331,-0.402017,0.414519,-0.529596,0.319384,-0.634700,0.198574,-0.708877,0.061801,-0.746166,0.000000,-0.745033,0.000000,-0.750000,-0.500000,-0.750000,-0.500000,0.750000,0.000000,0.750000,0.000000,0.744959,
0.000000,0.744959,$1*%
G04 Aperture macros list end*
%ADD10RoundRect,0.250000X-0.275000X0.312500X-0.275000X-0.312500X0.275000X-0.312500X0.275000X0.312500X0*%
%ADD11O,1.700000X1.700000*%
%ADD12R,1.700000X1.700000*%
%ADD13FreePoly0,180.000000*%
%ADD14FreePoly1,180.000000*%
%ADD15C,4.400000*%
%ADD16RoundRect,0.250000X-0.475000X0.250000X-0.475000X-0.250000X0.475000X-0.250000X0.475000X0.250000X0*%
%ADD17RoundRect,0.120000X-0.400000X-0.750000X0.400000X-0.750000X0.400000X0.750000X-0.400000X0.750000X0*%
%ADD18RoundRect,0.120000X-0.200000X-0.075000X0.200000X-0.075000X0.200000X0.075000X-0.200000X0.075000X0*%
%ADD19RoundRect,0.250000X-0.262500X-0.450000X0.262500X-0.450000X0.262500X0.450000X-0.262500X0.450000X0*%
G04 APERTURE END LIST*
G36*
X117967853Y-89769614D02*
G01*
X117988094Y-89814263D01*
X117968448Y-89859506D01*
X117910108Y-89880938D01*
X117850577Y-89859506D01*
X117829741Y-89813667D01*
X117848791Y-89769019D01*
X117907727Y-89748778D01*
X117967853Y-89769614D01*
G37*
G36*
X120668191Y-89801761D02*
G01*
X120702719Y-89880938D01*
X120668191Y-89959519D01*
X120597944Y-89985713D01*
X120447925Y-89985713D01*
X120447925Y-89774972D01*
X120596753Y-89774972D01*
X120668191Y-89801761D01*
G37*
G36*
X117987498Y-90101203D02*
G01*
X118014287Y-90162520D01*
X117988094Y-90223838D01*
X117909512Y-90252413D01*
X117829741Y-90223838D01*
X117802356Y-90161925D01*
X117829741Y-90100608D01*
X117908917Y-90072628D01*
X117987498Y-90101203D01*
G37*
G36*
X116358128Y-89801761D02*
G01*
X116392656Y-89880938D01*
X116358128Y-89959519D01*
X116289072Y-89985713D01*
X116136672Y-89985713D01*
X116136672Y-89774972D01*
X116286691Y-89774972D01*
X116358128Y-89801761D01*
G37*
G36*
X114432523Y-90698296D02*
G01*
X114364409Y-90688193D01*
X114297613Y-90671461D01*
X114232779Y-90648263D01*
X114170532Y-90618822D01*
X114111469Y-90583421D01*
X114056161Y-90542402D01*
X114005140Y-90496159D01*
X113958897Y-90445138D01*
X113917877Y-90389830D01*
X113882477Y-90330767D01*
X113882021Y-90329803D01*
X115087731Y-90329803D01*
X115102019Y-90406003D01*
X115133570Y-90428327D01*
X115192506Y-90435769D01*
X115410391Y-90435769D01*
X115498088Y-90427658D01*
X115579013Y-90403324D01*
X115653166Y-90362769D01*
X115692289Y-90329803D01*
X115925931Y-90329803D01*
X115933075Y-90391716D01*
X115964627Y-90424755D01*
X116030706Y-90435769D01*
X116092023Y-90427732D01*
X116123575Y-90403622D01*
X116134886Y-90372070D01*
X116136672Y-90330994D01*
X116136672Y-90196453D01*
X116286691Y-90196453D01*
X116323600Y-90194072D01*
X116369902Y-90303742D01*
X116400858Y-90375576D01*
X116416469Y-90409575D01*
X116438495Y-90432792D01*
X116476595Y-90444103D01*
X116537912Y-90427434D01*
X116593277Y-90392906D01*
X116611731Y-90351234D01*
X116593872Y-90289322D01*
X116560534Y-90213519D01*
X116533547Y-90151209D01*
X116512909Y-90102394D01*
X116562519Y-90039158D01*
X116592284Y-89965340D01*
X116602206Y-89880938D01*
X116594467Y-89807119D01*
X116571250Y-89740444D01*
X116536127Y-89683889D01*
X116505766Y-89653528D01*
X116647450Y-89653528D01*
X116665309Y-89710678D01*
X116993922Y-90377428D01*
X117033808Y-90419695D01*
X117090362Y-90435769D01*
X117102269Y-90435769D01*
X117157633Y-90419695D01*
X117197519Y-90377428D01*
X117306078Y-90157163D01*
X117591616Y-90157163D01*
X117602397Y-90240903D01*
X117634743Y-90312738D01*
X117688652Y-90372666D01*
X117756186Y-90417645D01*
X117829410Y-90444632D01*
X117908322Y-90453628D01*
X117987234Y-90444566D01*
X118060457Y-90417380D01*
X118127992Y-90372070D01*
X118163754Y-90332184D01*
X118284559Y-90332184D01*
X118315516Y-90407194D01*
X118389334Y-90439341D01*
X118854869Y-90439341D01*
X118928687Y-90425053D01*
X118954286Y-90394097D01*
X118962025Y-90333970D01*
X118954881Y-90273248D01*
X118926902Y-90238720D01*
X118857250Y-90227409D01*
X118639366Y-90227409D01*
X118639366Y-90221456D01*
X118669131Y-90209550D01*
X118742950Y-90169366D01*
X118826294Y-90103584D01*
X118864989Y-90060722D01*
X118897731Y-90005953D01*
X118920055Y-89943445D01*
X118927497Y-89877366D01*
X118923310Y-89842838D01*
X118997744Y-89842838D01*
X119035248Y-89916656D01*
X119107281Y-89958328D01*
X119190625Y-89921419D01*
X119206103Y-89907131D01*
X119206103Y-90332184D01*
X119207889Y-90375642D01*
X119219200Y-90408384D01*
X119251049Y-90431602D01*
X119310878Y-90439341D01*
X119372195Y-90431304D01*
X119403747Y-90407194D01*
X119415058Y-90375642D01*
X119416844Y-90334566D01*
X119416844Y-90332184D01*
X119494234Y-90332184D01*
X119525191Y-90407194D01*
X119599009Y-90439341D01*
X120064544Y-90439341D01*
X120138362Y-90425053D01*
X120163961Y-90394097D01*
X120171700Y-90333970D01*
X120171210Y-90329803D01*
X120237184Y-90329803D01*
X120244328Y-90391716D01*
X120275880Y-90424755D01*
X120341959Y-90435769D01*
X120403277Y-90427732D01*
X120434828Y-90403622D01*
X120446139Y-90372070D01*
X120447925Y-90330994D01*
X120447925Y-90196453D01*
X120596753Y-90196453D01*
X120666603Y-90187986D01*
X120734866Y-90162586D01*
X120801541Y-90120253D01*
X120845891Y-90076944D01*
X120881312Y-90020836D01*
X120904530Y-89954607D01*
X120912269Y-89880938D01*
X120904530Y-89807119D01*
X120881312Y-89740444D01*
X120845891Y-89683889D01*
X120801541Y-89640431D01*
X120734998Y-89598098D01*
X120667132Y-89572698D01*
X120597944Y-89564231D01*
X120343150Y-89564231D01*
X120281833Y-89572268D01*
X120250281Y-89596378D01*
X120238970Y-89627930D01*
X120237184Y-89669006D01*
X120237184Y-90329803D01*
X120171210Y-90329803D01*
X120164556Y-90273248D01*
X120136577Y-90238720D01*
X120066925Y-90227409D01*
X119849041Y-90227409D01*
X119849041Y-90221456D01*
X119878806Y-90209550D01*
X119952625Y-90169366D01*
X120035969Y-90103584D01*
X120074664Y-90060722D01*
X120107406Y-90005953D01*
X120129730Y-89943445D01*
X120137172Y-89877366D01*
X120127250Y-89795543D01*
X120097484Y-89719939D01*
X120047875Y-89650552D01*
X119982324Y-89595320D01*
X119904735Y-89562181D01*
X119815108Y-89551134D01*
X119725546Y-89562048D01*
X119648156Y-89594791D01*
X119582936Y-89649361D01*
X119533657Y-89717690D01*
X119504090Y-89791707D01*
X119494234Y-89871413D01*
X119500187Y-89932134D01*
X119532632Y-89966067D01*
X119599009Y-89977378D01*
X119659731Y-89970234D01*
X119691878Y-89948803D01*
X119703189Y-89919038D01*
X119704975Y-89879747D01*
X119704975Y-89872603D01*
X119709737Y-89845219D01*
X119741289Y-89789855D01*
X119807369Y-89761875D01*
X119866900Y-89772591D01*
X119898452Y-89795808D01*
X119916906Y-89827955D01*
X119925241Y-89858316D01*
X119914079Y-89910405D01*
X119880592Y-89959519D01*
X119831330Y-90004614D01*
X119772841Y-90044648D01*
X119709737Y-90082451D01*
X119646634Y-90120848D01*
X119588145Y-90163413D01*
X119538883Y-90213717D01*
X119505396Y-90270421D01*
X119494234Y-90332184D01*
X119416844Y-90332184D01*
X119416844Y-89671388D01*
X119410891Y-89608284D01*
X119394222Y-89582686D01*
X119363266Y-89568994D01*
X119306711Y-89563041D01*
X119239441Y-89593997D01*
X119235869Y-89596378D01*
X119040606Y-89772591D01*
X118997744Y-89842838D01*
X118923310Y-89842838D01*
X118917575Y-89795543D01*
X118887809Y-89719939D01*
X118838200Y-89650552D01*
X118772649Y-89595320D01*
X118695060Y-89562181D01*
X118605433Y-89551134D01*
X118515871Y-89562048D01*
X118438481Y-89594791D01*
X118373261Y-89649361D01*
X118323982Y-89717690D01*
X118294415Y-89791707D01*
X118284559Y-89871413D01*
X118290512Y-89932134D01*
X118322957Y-89966067D01*
X118389334Y-89977378D01*
X118450056Y-89970234D01*
X118482203Y-89948803D01*
X118493514Y-89919038D01*
X118495300Y-89879747D01*
X118495300Y-89872603D01*
X118500062Y-89845219D01*
X118531614Y-89789855D01*
X118597694Y-89761875D01*
X118657225Y-89772591D01*
X118688777Y-89795808D01*
X118707231Y-89827955D01*
X118715566Y-89858316D01*
X118704404Y-89910405D01*
X118670917Y-89959519D01*
X118621655Y-90004614D01*
X118563166Y-90044648D01*
X118500062Y-90082451D01*
X118436959Y-90120848D01*
X118378470Y-90163413D01*
X118329208Y-90213717D01*
X118295721Y-90270421D01*
X118284559Y-90332184D01*
X118163754Y-90332184D01*
X118181901Y-90311944D01*
X118214246Y-90240308D01*
X118225028Y-90157163D01*
X118218331Y-90107454D01*
X118198239Y-90058341D01*
X118155377Y-89993452D01*
X118128587Y-89969044D01*
X118146447Y-89949994D01*
X118181570Y-89894034D01*
X118198834Y-89821406D01*
X118189309Y-89746000D01*
X118160734Y-89680119D01*
X118113109Y-89623763D01*
X118052520Y-89580768D01*
X117985051Y-89554971D01*
X117910703Y-89546372D01*
X117836091Y-89554839D01*
X117767828Y-89580239D01*
X117705916Y-89622572D01*
X117656968Y-89677870D01*
X117627599Y-89742164D01*
X117617809Y-89815453D01*
X117637455Y-89898202D01*
X117669006Y-89949994D01*
X117689247Y-89969044D01*
X117664244Y-89991666D01*
X117616023Y-90060127D01*
X117597718Y-90107900D01*
X117591616Y-90157163D01*
X117306078Y-90157163D01*
X117526131Y-89710678D01*
X117543991Y-89653528D01*
X117526429Y-89613642D01*
X117473744Y-89577328D01*
X117403497Y-89557088D01*
X117351109Y-89589234D01*
X117334441Y-89624953D01*
X117096316Y-90146447D01*
X117083368Y-90118914D01*
X117054048Y-90055364D01*
X117015353Y-89971276D01*
X116974277Y-89882128D01*
X116933349Y-89792980D01*
X116895100Y-89708892D01*
X116865186Y-89643408D01*
X116849261Y-89610070D01*
X116829616Y-89578519D01*
X116809375Y-89561850D01*
X116777823Y-89557088D01*
X116717697Y-89577328D01*
X116665012Y-89613642D01*
X116647450Y-89653528D01*
X116505766Y-89653528D01*
X116492669Y-89640431D01*
X116426126Y-89598098D01*
X116358260Y-89572698D01*
X116289072Y-89564231D01*
X116031897Y-89564231D01*
X115970580Y-89572268D01*
X115939028Y-89596378D01*
X115927717Y-89627930D01*
X115925931Y-89669006D01*
X115925931Y-90329803D01*
X115692289Y-90329803D01*
X115720548Y-90305991D01*
X115776545Y-90237865D01*
X115816543Y-90163264D01*
X115840541Y-90082190D01*
X115848541Y-89994642D01*
X115840355Y-89907429D01*
X115815798Y-89827359D01*
X115774871Y-89754434D01*
X115717572Y-89688652D01*
X115649483Y-89634218D01*
X115576185Y-89595336D01*
X115497678Y-89572008D01*
X115413962Y-89564231D01*
X115193697Y-89563041D01*
X115132380Y-89571077D01*
X115100828Y-89595188D01*
X115089517Y-89626144D01*
X115087731Y-89667816D01*
X115087731Y-90329803D01*
X113882021Y-90329803D01*
X113853036Y-90268519D01*
X113829838Y-90203685D01*
X113813106Y-90136890D01*
X113803003Y-90068776D01*
X113799624Y-90000000D01*
X113803003Y-89931224D01*
X113813106Y-89863110D01*
X113829838Y-89796315D01*
X113853036Y-89731481D01*
X113882477Y-89669233D01*
X113917877Y-89610170D01*
X113958897Y-89554862D01*
X114005140Y-89503841D01*
X114056161Y-89457598D01*
X114111469Y-89416579D01*
X114170532Y-89381178D01*
X114232779Y-89351737D01*
X114297613Y-89328539D01*
X114364409Y-89311807D01*
X114432523Y-89301704D01*
X114501299Y-89298325D01*
X121498701Y-89298325D01*
X121567477Y-89301704D01*
X121635591Y-89311807D01*
X121702387Y-89328539D01*
X121767221Y-89351737D01*
X121829468Y-89381178D01*
X121888531Y-89416579D01*
X121943839Y-89457598D01*
X121994860Y-89503841D01*
X122041103Y-89554862D01*
X122082123Y-89610170D01*
X122117523Y-89669233D01*
X122146964Y-89731481D01*
X122170162Y-89796314D01*
X122186894Y-89863110D01*
X122196997Y-89931224D01*
X122200376Y-90000000D01*
X122196997Y-90068776D01*
X122186894Y-90136890D01*
X122170162Y-90203686D01*
X122146964Y-90268519D01*
X122117523Y-90330767D01*
X122082123Y-90389830D01*
X122041103Y-90445138D01*
X121994860Y-90496159D01*
X121943839Y-90542402D01*
X121888531Y-90583421D01*
X121829468Y-90618822D01*
X121767221Y-90648263D01*
X121702387Y-90671461D01*
X121635591Y-90688193D01*
X121567477Y-90698296D01*
X121498701Y-90701675D01*
X114501299Y-90701675D01*
X114432523Y-90698296D01*
G37*
G36*
X115497455Y-89791194D02*
G01*
X115570530Y-89839861D01*
X115620982Y-89912638D01*
X115637800Y-90001191D01*
X115620536Y-90089446D01*
X115568744Y-90161330D01*
X115495520Y-90209104D01*
X115413962Y-90225028D01*
X115298472Y-90225028D01*
X115298472Y-89774972D01*
X115412772Y-89774972D01*
X115497455Y-89791194D01*
G37*
D10*
X124000000Y-75162500D03*
X124000000Y-76937500D03*
D11*
X128732200Y-89916000D03*
D12*
X131272200Y-89916000D03*
D13*
X130650000Y-75100000D03*
D14*
X129350000Y-75100000D03*
D15*
X110000000Y-70000000D03*
D12*
X136350000Y-70000000D03*
D11*
X133810000Y-70000000D03*
X131270000Y-70000000D03*
X128730000Y-70000000D03*
X126190000Y-70000000D03*
X123650000Y-70000000D03*
D12*
X110000000Y-81300000D03*
D11*
X110000000Y-78760000D03*
D15*
X150000000Y-90000000D03*
D16*
X133000000Y-75100000D03*
X133000000Y-77000000D03*
D15*
X150000000Y-70000000D03*
D16*
X127000000Y-75100000D03*
X127000000Y-77000000D03*
D17*
X130000000Y-80000000D03*
D18*
X129050000Y-79250000D03*
X129050000Y-79750000D03*
X129050000Y-80250000D03*
X129050000Y-80750000D03*
X130950000Y-80750000D03*
X130950000Y-80250000D03*
X130950000Y-79750000D03*
X130950000Y-79250000D03*
D15*
X110000000Y-90000000D03*
D19*
X130909700Y-84836000D03*
X129084700Y-84836000D03*
M02*
